<mxfile host="app.diagrams.net" modified="2023-07-07T11:17:09.295Z" agent="Mozilla/5.0 (X11; Linux x86_64) AppleWebKit/537.36 (KHTML, like Gecko) Chrome/114.0.0.0 Safari/537.36" etag="S-43O2F7Ykc5DzLUvVLg" version="21.6.1" type="device">
  <diagram name="Page-1" id="X1TOzB4hbB5rbLvCi2Ok">
    <mxGraphModel dx="661" dy="897" grid="1" gridSize="10" guides="1" tooltips="1" connect="1" arrows="1" fold="1" page="1" pageScale="1" pageWidth="850" pageHeight="1100" math="0" shadow="0">
      <root>
        <mxCell id="0" />
        <mxCell id="1" parent="0" />
        <mxCell id="f1LZs93N_JSt4YXncMPd-2" value="" style="shape=image;verticalLabelPosition=bottom;labelBackgroundColor=default;verticalAlign=top;aspect=fixed;imageAspect=0;image=https://logos-marques.com/wp-content/uploads/2021/03/GitHub-Logo.png;" parent="1" vertex="1">
          <mxGeometry x="1010" y="10" width="210" height="118.82" as="geometry" />
        </mxCell>
        <mxCell id="f1LZs93N_JSt4YXncMPd-3" value="" style="shape=image;verticalLabelPosition=bottom;labelBackgroundColor=default;verticalAlign=top;aspect=fixed;imageAspect=0;image=https://upload.wikimedia.org/wikipedia/commons/thumb/e/ed/Octicons-git-branch.svg/1280px-Octicons-git-branch.svg.png;" parent="1" vertex="1">
          <mxGeometry x="1092" y="135" width="50" height="80" as="geometry" />
        </mxCell>
        <mxCell id="f1LZs93N_JSt4YXncMPd-4" value="main" style="text;strokeColor=none;align=center;fillColor=none;html=1;verticalAlign=middle;whiteSpace=wrap;rounded=0;fontFamily=Courier New;fontStyle=1;fontSize=18;" parent="1" vertex="1">
          <mxGeometry x="1167" y="160" width="60" height="30" as="geometry" />
        </mxCell>
        <mxCell id="f1LZs93N_JSt4YXncMPd-5" value="dev" style="text;strokeColor=none;align=center;fillColor=none;html=1;verticalAlign=middle;whiteSpace=wrap;rounded=0;fontFamily=Courier New;fontStyle=1;fontSize=18;" parent="1" vertex="1">
          <mxGeometry x="1007" y="160" width="60" height="30" as="geometry" />
        </mxCell>
        <mxCell id="f1LZs93N_JSt4YXncMPd-7" value="" style="shape=flexArrow;endArrow=classic;html=1;rounded=0;" parent="1" edge="1">
          <mxGeometry width="50" height="50" relative="1" as="geometry">
            <mxPoint x="980" y="10" as="sourcePoint" />
            <mxPoint x="980" y="145.59" as="targetPoint" />
          </mxGeometry>
        </mxCell>
        <mxCell id="f1LZs93N_JSt4YXncMPd-9" value="git push" style="edgeLabel;html=1;align=center;verticalAlign=middle;resizable=0;points=[];fontStyle=2;fontSize=14;" parent="f1LZs93N_JSt4YXncMPd-7" vertex="1" connectable="0">
          <mxGeometry x="-0.0093" relative="1" as="geometry">
            <mxPoint x="-40" as="offset" />
          </mxGeometry>
        </mxCell>
        <mxCell id="f1LZs93N_JSt4YXncMPd-8" value="" style="shape=flexArrow;endArrow=classic;html=1;rounded=0;" parent="1" edge="1">
          <mxGeometry width="50" height="50" relative="1" as="geometry">
            <mxPoint x="1250" y="10" as="sourcePoint" />
            <mxPoint x="1250" y="145.59" as="targetPoint" />
          </mxGeometry>
        </mxCell>
        <mxCell id="f1LZs93N_JSt4YXncMPd-11" value="git push" style="edgeLabel;html=1;align=center;verticalAlign=middle;resizable=0;points=[];fontStyle=2;fontSize=14;" parent="f1LZs93N_JSt4YXncMPd-8" vertex="1" connectable="0">
          <mxGeometry x="-0.1691" y="6" relative="1" as="geometry">
            <mxPoint x="34" y="13" as="offset" />
          </mxGeometry>
        </mxCell>
        <mxCell id="m3v_cfv3_CRkb0MolT_l-2" value="on push" style="shape=image;verticalLabelPosition=bottom;labelBackgroundColor=default;verticalAlign=top;aspect=fixed;imageAspect=0;image=data:image/png,iVBORw0KGgoAAAANSUhEUgAABDMAAAImCAIAAADBnlb+AAAAAXNSR0IArs4c6QAAAARnQU1BAACxjwv8YQUAAMpSSURBVHhe7L2Hf1vV/f//+0u+aQhJ2LPQAqW0dNAJHR/aAgUKhED2gAyyJ8R7JU4cZ++9p+PsvfceTrz3XvJ6/15vXdVVrmzpSpYsyXk9H294OPa9555z7pX0eul9xv8nhBBCCCGEEBJs6EwIIYQQQgghwYfOhBBCCCGEEBJ86EwIIYQQQgghwYfOhBBCCCGEEBJ86EwIIYQQQgghwYfOhBBCCCGEEBJ86EwIIYQQQgghwYfOhBBCCCGEEBJ86EwIIYQQQgghwYfOhBBCCCGEEBJ86EwIIYQQQgghwYfOhBBCCCGEEBJ86EwIIYQQQgghwYfOhBBCCCGEEBJ86EwIIYQQQgghwYfOhBBCCCGEEBJ86EwIIYQQQgghwYfOhBBCCCGEEBJ86EwIIYQQQgghwYfOhBBCCCGEEBJ86EwIIYQQQgghwYfOhBBCCCGEEBJ86EwIIYQQQgghwYfOhBBCCCGEEBJ86EwIIYQQQgghwYfOhBBCCCGEEBJ86EwIIYQQQgghwYfOhBBCCCGEEBJ86EwIIYQQQgghwYfOhBBCCCGEEBJ86EwIIYQQQgghwYfOhBBCCCGEEBJ86EwIIYQQQgghwYfOhBBCCCGEEBJ86EwIIYQQQgghwYfOhBBCCCGEEBJ86EwIIYQQQgghwYfOhBBCCCGEEBJ86EwIIYQQQgghwYfOhBASKFpEmluksVkamjRs9qhvlLpGqbZJRb2U1kpxjZTX6T/xS/zJOMY4Hic2NUtLi5ZDCCGEkC4PnQkhJCDATtQ2SEaJXMyR05lyJEP23ZadN2TTFVl1URaekeTjEnNIIg9I0lGZd0qWn5cNl2XHdUm/JYfuyckHciFH7hRLRZ3aG0IIIYR0eehMCCF+oMWeG7E1qRu5VyKH78nSszJ1r3y1Qf61XP66WP6wQN6eK28ky8uJ8nScPBEjvWOkV7QGfkA8GSsvJsjrs+SXKfK7+fLeYvnHMumzTsbultSTknZLrhVojqW+UdMp8Cp0K4QQQkgXg86EEOIj8AYwJDAJTc3qGc5mydqLMiVdPl2jPuSlROkWIf9vhh/i2Tj5Vap8sEKGbZUFJ+XAHcks09FfuLRaFHoUQgghpEtAZ0II8QVYAluTVNbrGK3v98qHK+XX8+S1WZoPeTxKHouUH/nJliBQVPdI6RGlqZUfJ8lbKfKHhTJks6w4Jw/sFsWYjkIIIYSQsIbOhBBiFYh/GJLGZh1SVVStM0b6r9fcyBMx/vQhFgP+57l4eSdVko7I1Xz1Jw1NtCiEEEJIGENnQgixBAQ/PElFnVzOk1lH5c8L1JD0iNJsRufbEkS3CL3uY5HSM1peSZLR23WUV2G1Y5QXIYQQQsIOOhNCiDuMPImtScdNHbonU/bIr1N12joMib+mkXQwutmHez0eJa8mydfrZdk5uVEgZbXMnxBCCCFhBp0JIcQdEPclNbrWVr8NKv2NDEmIeBLngD9pzaL8bbGuRJxRquaEEEIIIeECnQkhpG2aW3Q+yZU8+WG/vDNfB02pJ3GxBKEWqCHMyTNxMnSLbo1SVK2D0AghhBAS+tCZEELMtPw3VbLjuny5Tp6MCcUkifuAP3k8SvdFiTkod0vsI7scjSOEEEJIiEJnQgh5CHiS+ka5XaQ7k7yV4lh3K/RTJa5hJE9eSpSv1suuG1JVT39CCCGEhDR0JoQQB/Ak0O51jbLzuny4QncmMWn9MI1e0fLKTIk7qFkgY/94QgghhIQgdCaEEAeN9q3cp6c7lgP+UbiN4Govutk3aoQ/+XC57L8jtQ2O9hJCCCEkpKAzIYRoGgF6/XKeDN6kCt4vngSFGBu3w+e8lCivJcsbs+Xnc+QXc+XtVN0w/rfz5XcL5PcL5Z0F8pt58qtU/dPPU+Rns+X1ZN3r/anY/20n3/HhZPAnqAwKX3PBsaYwIYQQQkIKOhNCiFTW6zaFn6zypy15Nk7eniv/WC7fbJP5J3Wmx8G7cipTLuXpJJbscimukRqbDh6DT8itlHslci1fzmTpCsV7bsnyszJul3y0SpcFezlRuvujVrA3qNibc2TeSSmocrSdEEIIISECnQkhjzRN9hFc6y/LX5dI7xjfUxPGdPOe0Tpp/oMV6kbmHJfdN3TTw/I6tR8NTTpaDIErNrdotCD+uw6Y8Rv8CYFjcHB9o85ZzyiVQ3dlyRkZu1s+Xyt/WCAvJGjqo1sHsiio5xuzJe6Q5FRwQWFCCCEkhKAzIeTRBa4AtmHZOR1MZZLv1sNIRDwRLX9aKGN2ydZrcjlX55rDb/gLlFRlkzvFmnWZfVw+XS0vJjiGePnsT36cJBPTpLCaq3URQgghoQKdCSGPKE0tmpSA0H9zjvSINAt3K9E9QueBvJgofdbK/FNyOktyKzQ90mjPivhX8RvrhtmapLxWbhTK5qsydqf8eq70jtYciA/+pHukPBcv/TfqQDJUmP6EEEIICTp0JoQ8isCW1DXID3vl5SRfJpbgFJiZ12bKyG26G2NWuc4YgRvpHHAdWJSiarmYK4mH5W+L1SDBaXjrT3B8r2idx3KvhMO6CCGEkOBDZ0LII0dLi1TbZPR2XTULgt6k1z1GtwidkdJ/g1zKVUMCk6A5B38nSdyDa8FcNTRpiqawWmYfk1+m2M2Jly4LFguu5u1UuZLvz+FnhBBCCPEBOhNCHi2MQVxJR+T5BO8WvOpmzCeJkd+kysyjklepxiAUxDxaBKN1LEP6rNOhZXAaXmWBdDXhSPlgJSfEE0IIIUGGzoSQR4vKell3SfcVgXz3avgTbMyLCdJvgxy5p97G7zNJOkJLi5qK7HJZeEoXGesVba68+0A/PBUr3+3QeTKEEEIICRZ0JoQ8KsBL1DTIzhvyh4W68K5JnbuJbhHSM0reXaSZlltF6gE6bUqJdVAj1KquQY7fl2+3yy9S7DPjLSdPukfKqzN1peOSGp1qTwghhJDOh86EkEeF+kY5dl/+vtQsyj0GJP7na3XF3ipbCOVJ2qOlRXdR3HRFfjvP6/0Zf52qCaWqekdRhBBCCOlM6EwI6frATjQ1687rX633bqRTtxm6LO+QLXI5T2e6h2CqxBVtrH3myc4b8pcl3k2L7xGlW7uk31IXFxaNJYQQQroSdCaEdH1gS8pqdQOQJ2O8GeAUIU/FyITdamnCbmp4S4su27X3try32LFnvKl17cWPIvSUa/n2BccchRFCCCGkM6AzIaSL09witQ0yJV0neVtctMpYhuuVJEk9IcXVdo0ehiLdMCcnH8j7y3T1Lett7xktX6zWxYg54YQQQgjpTOhMCOnKQJ3XNMiso7oDiVVpbt/i483Zsui0DmpqCufEAZoPd3E1XxcF7h3tRQ/0ipZxO6WiLiwtGSGEEBKm0JkQ0pVpbtGkwRvJOovdpL/bjG72Vap+N193drc1qS4Pd2WO+jc265z4z9ep47I4rAud8GKirLqge7YQQgghpHOgMyGkywJbUlQto7Z7kS6AgXkrRbbbbUlXmgLe1CyltfKF3ZxY6QojcfTxKrleEH5zbAghhJAwhc6EkC4L3MXWq/LGbLPsbi+6zdC9FDdcDpXN3f1LS4vcL5VPVltNHyFeSJSIAzrhhBBCCCGdAJ0JIV0TWIsbBbpM8BMxZsHdZsCW4MjEIzpdvuPZEhSgI8FCap94u1U7mSn/WqHLjlkZ1gUP87v5su+2dggnnBBCCCGBhs6EkC4IZHS1TXc0fynR6uAlqPDxuyWnwscFqaDbId9xbmOzplwq67WovErdtRB+AL/En1TfOw4PDuiW+kZJu6mbMFrJnOg6XVEycrtklfvYLYQQQgixDp0JIV0QeIOzWfLP5fbkgIvgdo2e0fL1Bs2x+LZAMCwHTiytlaMZ8sNe+Xy1/GuZ/G2x/H2JfLBcvl4vSYflap6u4Rv0ORtoXUWdLD2rqwJY6Rkc8+pMWX5OvRYhhBBCAgqdCSFdDTiLgirdwMTKdu9Q3t0jdcePU5ma3PAWCH31JDU65GnQRhXxuOhjkeqIfmQP/IB/9o6Wt1NkUppOKK9p8NH/+IumZsmvlHG7rG7w0iNK/rVcbhTqAsrBzfkQQgghXRs6E0K6FJDO0P1HM9QJwBWYRLZr4JjXk2XNRdXrPrgFmJnbRRJ1QH6WrAreMCRwO63pCONntSh2f/LeIh1jhlPqGoNmTnDZ5ha5mCsfrNBkUWtXtBfGUDe0sbJeTySEEEJIgKAzIaRLAelcWqszRuAEWu2Bm3gyVoZs0UWrvAW+osYmx+/L4M3yfLzDkJgKNwUO6BEpLydKv42y8Ypklumsj2BpfVx63UX5yUxLaRMc85tUuZYf/NFohBBCSBeGzoSQLkVDs1zIkV+nWlp7Csf8br4cu++L4MYph+7K+0vVApmK9RiPRWqiZuwuOXjXvs+6o8hOBc6qsEoGbdLKWPFUvaIl8bAvA94IIYQQYhE6E0K6FPWNMvOoymiPavtHEZowiTuky2d5m7iALbmSLx+t9GJXdedA3fTqMfLuIvlhn1qpalsQFr/CFc9mazLEirmCgfnDAl1tjAO6CCGEkABBZ0JI16HFPpTrL4stSe0ekfLxSh1S5YPULqiSibvV2JjK9DbgT56J0w1Glp/TWemwCp2p+9FdtQ0y/6TONvFo5BC9Y2TL1a65DSUhhBASCtCZENJFgFyGaN52TQ2DxzwGLAF09p5bOjzJW52N43dcl1+maBrBVKy3YSRPekbJy0m6KeSBOzrLXOfiOy4VcGCEimvky7Wa/DHVzTV6RMmADZreCdbcfUIIIaRrQ2dCSBcBIrvGJoM3qoA2SWpTwA9AiI/fpRkDb0W2kWeYvEc3jPdhHJebQLWfi5dp6bqtYb1955PO0f/wZvtu61R4j2mT7pHyUpIcuscBXYQQQkhAoDMhpIsAuXw0Q8W9x6FccBQQ4meyNMfiLU3NcrNQ/rPGDwkTU6BW3SPUMr2dIsvOSnZ5J42bQosKq2TUds9GCwf0jpbpe9U40ZsQQgghfofOhJCuQEuL7hDy/V6d+/4jTwobBmDENimuVlHuLXALh+7K7xeYy/RXdLOnJp6KlT5rdcyYkT8JaI4CXacrCF/SGS/uu84Ye/aHBerNfOg6QgghhLiHzoSQrgC0+91ieW+xZ1sCef1snGy87MsME4Cztl6Vt1LMxfo31J9EyCtJurLw4Xs6+STQXCvQjd6tJIJ+MktWnFMzQwghhBD/QmdCSFegoUk2XZafzjLLaNeA+P7HMrle4OM0bijyVectXaibfet0j06pvTASFE/H6VJjSUfkYo5euilgyZPiGok5qGkTUzVc48kY+XabDgAjhBBCiH+hMyGkK1DXIFH7dZKJSUa7Ru9o3UKkqNpxorfAHiw9q9kMU7Gu8UKC/H2JHgmD4XEKh5vAuS8myIcrNFORZ19Z2DdP5R5bo+y/I7+fb766a/SIlPeXycVcx4mEEEII8Rd0JoR0BXIrpM863ZfDJKNd47fzdCkqnwcjWXcm7y7WLd5XXZCPVui8ke7wJy7HWAx4m55R8upMGbRJ0m7qni3NLX6eg97UonNaBmyy+yiXCjhH90h5e67svuE4kRBCCCH+gs6EkK7AmSx1Ah6nSUBzQ3w/KPV9Ard1Z/Kvlbq+Vo1NbhVJ1AH56Uxdd6sj/gQnwp+8OVsi98udYvvgLv/lT1AM3M6SM/JyoocRaPjr8/Gy8HRAUjeEEELIowydCSFdgS1XVbJD95tktHN0i5CnYyXlRIcSDnWWnck/lsv9Ut2WBAEXcfy+DNksLyaqffLdnERoyuLJGPnrYllzQfIqfFn42A3H7ssfFloweBEyIU2q6mlOCCGEEH9CZ0JI2AOnMeuYzt52P50DvgXuBR6mI3jrTFA3AAUPC5FXqRuV/Gu5w5+4T024CfUn9pW7hm3RfQ8LqnTFMONCHSSjRD5ebWk/+L7r5V4J1w4mhBBC/AmdCSHhDUR/Zb2M2mmWzq4BM/DuIjnxwHGib/jmTAxQVZx+NV8iD+hc894WZsW4CSN/8vPZuvXh6UzNYHQcFDJmp86KMV3LNd6z96R/MzaEEELIIw6dCSHhTVOz3C6Sz9aapbNrPB6lhz0oc5zoGx1xJgDmBBUuqtZZ+PAAP50pPaI6kDz577aM/1gmc47LjQKpbdAr+pw+qW+UBafkZQute3WmbL6qxxNCCCHEX9CZEBLeNDTpXoR/XGiWzq7xdJxM2tPR3EIHnUkr+H1OuWy+Ip+u1uSJxxWx3AfOfSlRfde6S1Jaowtt+WZO0JkH7sjP5pjLd40nYiTpmJTXOU4khBBCSMehMyEkvKlvlLWXdEUpk3R2jVdnytIzHf2a31/OBDQ1a4rjdrEsPiO/XyC9ojtkTrpHaAk/my0TdklmmX2He+/dCWqbVSa/ne+5Jj2jdL/F7HLHiYQQQgjpOHQmhIQ31TaZc1K/wjdJZ9f45Vw5mqErZXUEPzoTA/gHNOFSnozdqTsqGoO7fLYoOBdd8bclcj5bEyAer24Ch8PSfLbG8+rGqCcOu1PsOJEQQgghHYfOhJDwpqxWYg5pusAknV3jT4t0mV1vxboJvzsTgGPglyrqZe9tXbnrmTgPyx+7D5gT2IbfzpOTD3Rnd29papaIfdqf7me/PBapVb1R6DiLEEIIIR2HzoSQ8KagSibv8bz7O3T2ByvVAHTMmATEmRjgyIZmHR8166gO7noW/iTSwzrIbgLW4uNVcq1Ai/WqyXAmq87rrHr3zgR1e3ehXMlznEUIIYSQjkNnQkh4k1UuI7brtAeTdHaObvbv+AdsVNndQQLnTACOxfG1DXI5VyalyS9TfF9ZGL7iqRgZt0vXAfOqDk0tsvO657wN/vqbVLmQ6ziLEEIIIR2HzoSQ8OZeifTf6GFzwG4Ral3G7Ah1Z2LQYt+WMb9SN4UcukVeT9bK+5A8gTmBedh5Q6eOWAcVPpohz8VrVsRUoHOg8DeS5Uy24yxCCCGEdBw6E0LCm5uFuvBuD7cyGrL+iRidPtHkvU8w0QnOxADnwZ/cLZZFp+Wfy7X+MAPezox/OlampkthlaNMK6DCl/PkhQQPzgRd+mJCR7etJIQQQogzdCaEhDdX8uTvS3Swlkk6O4cObYqV2cfCyZkAnNrYrFP8L+ZKxH4d3PW4l8mTHlE6T/1CjqNAK6DCD8p0dxT3XQqP1CtajmQ4ziKEEEJIx6EzISS8OZctv5vnYVIEnMmz8bL8bId8gkFnOpNWmuz+5OBd6bNWnolVzwB/YiV/gm55I1nSbzvKsQIqjGv9eKYHZ4JA4Xtu+6eBhBBCCAF0JoSENyceyM+S1XuYdLNzQEM/nyBbr4arM0EZKKehSUpqdLPIP9m3ZXTfZCNgYJ6L0/kq1muBC1XVyzvzPDsTVGDzNT8sd0YIIYQQAzoTQsKbQ/fk+XgPY5y6R+rwpP13wtWZtILS6ht1Hsi4XfLTWZ7NSbcZ0jtK1lz0oho4stomHy73MHUHgauvvmDfbN5xKiGEEEI6BJ0JIeHNvjv2patcdLNzwJm8nCTH74e9MwEt9m0Zcypk1HZdU9h9w/HXxyNlyVnNt1jE2JP+y7U6R8VUmingTFAyOgSnEEIIIaTj0JkQEt4ctpYzeTFR9vljUkRwnQk8gK1JlyObf0reW6RpDY/OBLZt5QUvlks2ciYfWMyZXGTOhBBCCPEbdCaEhDcnM+XN2R7GNRnzTDZfCW9ngpIam3Ud4bG71Ix5HMqFgDN5JlY2XfFunkllvfw61dI8k62cZ0IIIYT4DzoTQsKb8znyh/metwV8Nk4dRZg6k6Zm3Rj+yD2ZvEc+WKn5H4trc6Hhr82UtJuOcqyACpfUyKvW1ubae4dDuQghhBC/QWdCSHhzJV/eX+ZBRkOgPxUryUfDbz8TnN7QpPvcxxzUPMaTsZZSJa2BbvnbEjmT5SjQCrgiqm1lP5MnouXIfcdZhBBCCOk4dCaEhDe3CuU/1vaAn7E3rPaAb9FUSUmNrLuoW0nCWcEqeGVLEHAyU9OluNpRphVQ4Uu5lvaAfylBh9IRQgghxF/QmRAS3kD9D9qkm6ObpLNzGBPBx+zwYiJ4e3SCMzHyJKW1ulXL6O3ySqLnme6ugeNhY36TKjuv6yR16+DqRzLkuXjPA+TenC1nsx1nEUIIIaTj0JkQEt7kVMjondIz2iydnQMy/bFI6b8hDJyJsWjv5TyJPyxvpzh2VPTWliBw1tOxuu1JYZV3dWhqkR3X5Jk4nUZiKtM58Nd35snFXMdZhBBCCOk4dCaEhDdF1TJtryp4k3Q2BZT6hyt0m8IOjucKnDOBJaht0KW3lp+Vj1fplH2ofx88iRGwah+skHPZWgGvmgzztvycDh5Dj5nKdA44vb8ulqv5jrMIIYQQ0nHoTAgJb8rrJP6I9I4xS2fX+NMiya3wOolhIkDOpKVFLdbOGzJ0i/xkpgdX4DG62YdarbNvNuItcCYR+xy5GlOxzgFnAqd3s9BxFiGEEEI6Dp0JIeFNbYPMO6UT3E3S2TV+OVeOZej+Gx3Bv84Ef2yy7x9yNEPG75bfzJMnYzqUKsG5vaPlTwtk0Wmd+O6tDcPhMDMfr/Jch8ejpM9azfAQQgghxF/QmRAS3tgaZetVeSPZLJ1d49WZOlCqvtFxom/4y5ng1/hTQ5OmceaekHfm67QQUwlexY8iNI/x+iyZuFsX1yqv82WnEVQps0x+O99cuGv0jFYrlVfpOJEQQgghHYfOhJDwprFZ9+v421KzdHaNp2JlUprmWDqCX5wJftdkn+m+56b8Y6lON+/h/YrArdHNbktQyOdr5PA99SQwPN5mSwzQmSjhzTnmS7jGEzGaqkITCCGEEOIv6EwICW8g8bPK5OuNZunsGo9HyedrNSfQETroTFpaVP1X1evqWyO2qp14zPsVgVsDJ+J0mIS3U2XOccmtVE/SEeobZfFp+bGF1v18juy+6cs8FkIIIYS0B50JIeENtH5tg0zco1MjTOrZFBDx7y3u6OaAHXQmdQ1yq0iSj2leokeU5jp8tiWIxyPVIYzeIdcL1CTgWj6M4HKmsl4XGn7Kwriyfy6XCzkdnbRDCCGEEGfoTAgJe6DGF56SFxM8DIiCdfnZbNl8RY/3Gd+cCf4P55BRIusvyWdrdB/DjngSnNsjUl5Pln4bdO+RqnpdUKuDnsTgXol8tMrDtpUI1HzwZskpN/suQgghhHQEOhNCugJ7bsqv5nrYthx6+okY3cGwI7ua+OBMcK3SGtl9Q4ZslleTOpQkMeKZOPnXcllyRrLLdTCbHzl8T36/QJNLpiuaAr5oxn7tChoTQgghxI/QmRDSFbicJ39fquOjTBraFHAF/TZq7sLnzeCtO5N/rZCsch0fdfKBTEuXX6fqJiEeh5y5iR9F6LYtf1oocYd0C0WU7K9UCUA5tiZJPek59YS/vpyouzHSlhBCCCH+hc6EkK5AUbV8vcHzTvAIOIT9d3yfum3dmby7WPbckpQT8n9LdUP3jqRKYAYei9TWfbtNDt6V4hr/D6NqapEHpTJgk6XpOr+dJ/tuO04khBBCiL+gMyGkK1DbILEH5fl4s4x2jSdiZPpeKaxynOgt9Y2aLnh1prlY13gmTn6TqumFx+0z3U1/tR44F57k/5bIukuSX6nWKBCzO2DVYDZgOUxXd40eUTr9/Uq+40RCCCGE+As6E0K6Ag1NOrX9p7M8pyYei5S/L5Gr+T6Og4IzWXtRZ5+binUN1KRbB6a548Tudk/y89kSf0juljhW3woQsGrT9lpKOuGYAZt0g3lCCCGE+Bc6E0K6ApDs90rkz4s8Zyeg+HtGyaoL9nnw3gt92IMd1+XtueZi/R49ojQzM2SzHL4rlXX+nFLiCgq+nCfvL/U89x0B+wdv5vNwOEIIIYS0B50JIV0BaOuGJok+IL2jPZsTHDB0i05N8WEefGOzHMuQdxf5ngxxH93sKwK/EC//XiULT8uDMt83dLcIDA9M2rpLOhnGfddpGidSVxq4U+z7EgKEEEIIaQ86E0K6CJDvpzLltVke1g5GQP2/OVtOPPBlx3RcJaNEvlqv/iEQ5qRnlPx+vkQflCt5mpcIpCVx0NSiQ7m+2ardYqqMKeBbnoiRqAO0JYQQQkhAoDMhpIvQ0iIVdTJss6W1g2EARm2Xmgav0xG4Sl2jJB6RFzytrutVGFWCXxq3S5cOK63V5Ewn2BIA/7P1mryR7NlowfK9MlOO3w9sDocQQgh5ZKEzIaSLALXc0CRpN3WKtkeR3c2+KceOa3qKDzL7WIbuK+LRAlkJ1KR7hDwZI5+sko1XJKfCz5snugceI79SPlxuaYbJ41EyeJOU1QZwxgshhBDyKENnQkjXATobuvkfyzzrbFiXHpHyxwVyu8iXDEBFnaZNno/zPALKffwoQnpGy69SZfFp3TC+xmaf6e64SMCBwahtkFlH1Bd5zP+gx2D5dl730csRQgghxCN0JoR0KWxNMue4zoP3mDZxzJrYr6d4a07gHwqrpN96HYLlw5gu1A1n9YiSp2Jk5Da5U+RLHToIrtbYrEOznonzPDMHAbP3t8U6/o0JE0IIISRA0JkQ0qWA2r5VJL9NtZTNgD14c44c8H5LeEPW3yzUlXatuCBTQOU/Fy//XinptzRPolNKWjo7EQEjVFGnqxLDIHnsKzSwd4zMPqareBFCCCEkQNCZENKlMAZ0TUm3JLgRT8XK8K26OK+3qQAcDz9zJU+nXrw6U82GlQFROOz5ePnrEpl5RB6UBiFV0kq1TTez/3GSVQv361S5VqAmihBCCCEBgs6EkC6Fkc3Yd0d+kaIzy00K2zWguV9JkrknVKn7ME4J17pfKklH5A8LdLaGqXDngC3pESnvzJcpe+RMlk7wCJYnMTibLf9cpqPRTPV0DdQc/i3pqHZRcOtMCCGEdG3oTAjpakA8F1VL3CF5McEssl0Dshvm5I8LZft1qap3lGAdmBmYE1xu322JPCD/WK4+p2e0ZmzgQxCPR+k/fzJTPlwh3++T3Td19S1bUCeRo8J3i+W7nZ63VjQCTfh4lVzN79TZ+YQQQsgjCJ0JIV2Qhia5kCMfrlTjYdLZbUavaHUOV/I0J+Cb+IZqL6nRZMj8UzJht/TboKsAf7paBm6SiWmy9IxcytVhZg3BHg0FKwVrBI/0UqK5E9qLt1Jkw2WpsjlKIIQQQkiAoDMhpAsCg1HXIIvPaLLC4piuJ2LURWSX+z6VAhe1NUl5nRRUSVa5jvJCoMDCKqms12J9tj3+AhVA9eae1G0irazH1S1C0z4jtmsruO87IYQQEmjoTAjpstwplk9W62Akk+BuM7rNUHMyapsvG8OHBS0turLW0fv2We8uzW8zHovU+TMH7gbfUxFCCCGPAnQmhHRZbE2y84YORrKy/BTiRxE6rCvV19nwoQxa09isq4H9co76DVPD24uXk3SlYPQGIYQQQjoBOhNCuizG4KWxOzUZYmWqN6J7pK5Dtf261DV2ncyJMU3/fql8sFxHZ1lJmMDLPR4lH63SPVt8Ht5GCCGEEK+gMyGkKwN3cTZLfj/fi0QBRPlPZ0naLV+W6gpNmprlRqF8u83qHi+I7hHy2izZdFmaOIqLEEII6SzoTAjpyrS0aPZjyWl5KcHSVHgjekTKL+bKsnO6HHBYZwxgzBqa5OQDXSvsqViriSNjVNukNG1+FxvVRgghhIQydCaEdHGgraGwp+zRXQUtZgyM+NlsnWWRXxmu6hzVrrHpppMfrdQ9VSzOesdhMGZ91kpGSdcZz0YIIYSEBXQmhHR9jFkWw7eq5raYN0A8FimvzJQf9kluRfhlTpqadfuUleflt/Oktze2BK3+YLmO/mpoYsKEEEII6VToTAjp+kBgQ6lfL9CtDy0uItwaz8TJ8C3yoEyVenM4LJ4LOwEfVVEnc07odooWPYkRsCW/mivncrQE2hJCCCGkk6EzIeSRADIb1uJMlvzfUp1wYl2v42CYmf9bosOiQn+rE9gJW5MUV8v0vTpXxMp2is7x4yTZdEWbSVtCCCGEdD50JoQ8KsBUNDbLrpvyznzvMifd7Fuhv5Qoycd0S5AaWyiuWGW0rqhatl6TT1bqCC7r49YQMGDPxUvsYSmu4XbvhBBCSHCgMyHkEQKGwtYkay/J68lmae4+utlXrHomTvquk23XpbTWUWDoUNOge49EHVQH9Vikd3P9EbAlY3bprHdmSwghhJBgQWdCyKNFc4uK+JnH5IUErwc7Qe4/HiW/mSezjsrV/JDYjdGYVVJUrXbrszXaKDgor+aW4PgnY+TrDXItXwe8EUIIISRY0JkQ8sgBN1FSI7OP60wMb3MLRryUKP9eJTuuS0GVjuyCPehkh4LL4aLGCK6zWRJ1QH6RYq6klYCHgdfqs1bOZTNbQgghhAQZOhNCHkWamnVE1vrL8qI9c+JVkgHxowjdT/0Xc9WfLDyt2Ya6Rvt6Vo7iAwu8kK1Jcipk53WZsFv+uFBbYX2T+9ZAK3rHyKgdukYwCiSEEEJIcKEzIeQRpblFahtk/115e65OcPfWnBgBV/NCgvxpoUTsl1OZUlmvA6JgUYxEir8w0iNwUw3NaiEelMmys/LhSvnJLLUWvqV9ukfo9ouxhyXfnvYhhBBCSNChMyHkEQVqHHK/vlHO58j7yzTn8CPvJb4xMx7GBir/Wfv8+M1XdNv4apuWjPI7rvlhS+B2ahqkvE6O35dp6brlSK9oTdpotscnW4J4KlbHs5XWquGhMSGEEEJCAToTQh5poPt1qka2Th9/MlZthm/JEwTOhb3pHSOvz5Kv10vyUTmSIRmlOhelsl6Niq1JAzbDyKsYAWNg/GD8HoFjcDC8TVG1ZJZp3ZaeldHb5U8LtIaPw5D46kYQaF3PKHktWVJO6GQbLhBMCCGEhA50JoQ86rSIGoMrebo+lc+Do4wwUiiI7pHqUp6KlT/Ml2+3ycIzknZLDtyVY/d10Ne5bLmUq3vS3yqSO8W62i+ufiFHTmdpVuTQPUm/Lasu6ByS/1ui6/miKBQIQ6LGqWPV6xEp7y6S9ZekvFZdGbMlhBBCSOhAZ0IIUY3eZDcnw7bKc3HqBHzOnDgHCoGjeDxKDc8zcfJKkvx8jvw2Vf68ULei/2ilJmr6rJNPVsk/l8lfFsnv5usSWz+dKc/H6yk9o/xWEwRcTa9ovdDO61JVz7klhBBCSMhBZ0IIcdDcIvdLJfag/G6e6niTsg/rQHOejZNBm+TkA7E1OtpLCCGEkJCCzoQQ4qDFvppwSY0cuisDN+lSvDp6ykXlh1eg/j2j5b1FurrxvRKdxwIDRgghhJAQhM6EEGLG1qQiPuW4/DJFl8AKU3/SzT4j/7k4GbpFZ7BU1uugNUIIIYSELHQmhBAzxoJdNQ1y4oF8vkaeju3QclhBCbipHpHyq1Td+SS/kqkSQgghJAygMyGEtI0xLT67XGYdkdeTdUp6d5/2POnM6GZ4kih5KVG+Wi8n7mv+h56EEEIICQvoTAgh7QJJD1kPcW/MPHkrRRcCNpmBkIoekboC2LuLZdFp3UelsZkjuAghhJCwgc6EEOIBiPuGJh0TtfO6TE3XBX9fTnLseBgK80+M+STPxsk782XARll8Ri7nSZ19B3pCCCGEhBF0JoQQL6isl/M5uoH6l+vktVkhMbirV7T8fYl8v0/23ZacCm7rTgghhIQrdCaEEC9otk+Or6jXjdvTb8mkPfLnRfJEjD2F4r9dEd2HMbsdhuSNZBm4URac1k3lC6s0scP9EwkhhJDwhc6EEOIjcClF1XIhRxackm+36c7uT8fq7PPHItWldI9QC9ERr4Jzu9kLQaBAFIvCe0fLW7Ol7zqJPiiH7klWma4hRj9CCCGEdAHoTAghPmLMj29okhqblNdJYbVcypOV52XMDrtLidPlvHpEqrvwwZ/gLHibx6M0N/JUrPxqrgzdJHNPyLH7klshpbVSVS/1jTp2i3PcCSGEkK4BnQkhxD+0GpXaBqmo0+Feay/KsM2OveRNxsM1ekTJM3HyYqL8OElenSW/TZWPVsjobbLYPlirrFZzI7amrmZF0BQ0B/3WGvgnrVbgcO1wo88JIYSEAnQmhBB/Ysi+JvteKI3NciVP1/LqEWn2Ia7xzjxZflaX1cqpkCqbmhAEfA4KQaA0Q0F2JQ2JRhkurrhalz4rrPpfLgiNJX4HvYqHqtqmRregSvIqtefR/7gLuBeEEEKCDp0JISSAXC+Q95dpPsTkQ1zjzwt1pJYhyruMLEdD0Bw4Kwjimga1H+gQNDP9tmy7LqsuSuopiT0kk/fIqB0yZpf8sE8Sj8qiM7Lusuy4IfvuyMkHcrtI5/NAPesUf3vKiLbFDegf9BL6Cs8SHEhGqZzNlgN3ZddN2XBFlpyVWce0n8fu0slRk/ZIzCGZe1JWXZCt13RRh6MZcjX/f/YY986wxIQQQjoBOhNCSACx7kx+O0/3c4Sg7Eo02veBuZgrO2/I7OOqhj9drXNmXk6UXlHtTr/Rqf8z5KkY+UmS/G6+fLleJqfrPi37bsu1fCmpoVBuF/RMZb3cKVaDseaiRByQQZvlL4vljVnyTKwuomDq6tZAh/eMkpcT5Fcp8u+VahRhYLZelTOZklmmtpAQQkgnQGdCCAkg1p3Jz2fLjuu6Q2K402ysCtCg4jj+sHy1QXvg7bk6i6ZntHaFxVXLcAAOg5g2lgGAmXlnvnywQgZv0cXQLuSoBDdSKI84RpIET87tIllzQcbslE9Wy58Wyk9nOdazRh9a73DcnR6ReqeejZO35shfl8jna2Xsbn04s8s1i4L7SwghJEDQmRBCAoh1Z/Jqkiw8pWt8hSnQq8bALTThwB2ZtFuNBNRtN39vRgnpDJfy96USc1DOZ+vCaNDlOuLIUZFHCLQabYdbuFYgqSfkb0t198+eFh42bwNlwqUM2CgbL+t0IA7xIoSQAEFnQggJINadSe9omZimY5/CEYhUqNWCKtlyRfptkNeSdaVji1/VexvGV/uPR6nteWO2jN0ph+/pcCNU4NHByJNU1cupTJmeLr+ZJ88n2Lf7RIf72woidA3rSF0F++Uk+WilLDqls+frG2lOCCHEz9CZEEICCJzJP5apZDRJPdfoESmfr5F7JY4TwwXDk1TW69gt1B+GRLdwcWldgAIXQt/ioqO2y+VcHdGk47scVeuaoHU6dqtBMkpkwm75yUxNaATCAbYXMJxw0e/Mk1XnHbPkH82EFSGEBAI6E0JIALHuTLpHyDupOn0ijL6HRlVrG+RuiczYL28ka2pIJXIAvrN3E8aWlLj0L1J0Ua/scp3l0oW/y4cPzK3QJbbeXWhPktgTU6Y+CWgYOSv4k2fjZMhmOXRPUzdNtCaEEOIP6EwIIQHEujOBwn4pQcfxh8UgGWNKSVaZ7ib58Sr9Er0zv7ZvM6CVf5wkgzdL2i1dZbiL+RO0Beq/sFoOZ8i3W3VqO9rbySbQFLjjeLB/O0+nuOA5r2nQp4IQQkhHoDMhhAQQ684EAa05fa/ufBf6Cq+qXs5k6SrAcFOd/J29m4A16h4pb6dK3CGdFN7UhWaeoC0ZJdqud+Z16ng5j4G7/1y89Fkn26/pGDNCCCEdgc6EEBJAvHImEHl/X6JTTUJ5MjckcnGN7pXxwXJdCDjoqRJTGIO7XkyQT9fIkXtdYZY2bKqtSYf5fbNNFyULeqrENVAfI3my4JSUhYOvJoSQkIXOhBASQLxyJjqgK1EHdEGJhiYQnbAlc07IL+aqRDbVP6QC1Xt3key4pjYvfM0Jam5rlPM50metjuAKNU/iHPCoP5kpEfultJbmhBBCfITOhBASQLxzJvaVpgZt1DWmQlDaNTVLWa1EHZCXkkLdliCML/J/kyqrz4frFubQ9/WNOmruvUV2W+LSxpAKVA9PxYsJ8t0OnaMPT0V7Qggh3kJnQggJIF45E8SPIuSVJN3MO9TmSDQ2656G43fJk7Ed/eYeEhbN7B6pQhbRI0oDXYTQn//7++7Wtop3Hyjn9WRZelYlfnitH2UM4rqY898RXC5Nsx6ODrcvqIVAD7d2uNHnxu+NZb46eHNRQu9oXYcgryKkByUSQkhoQmdCCAkg3joTBA6enCbVthAag4Sa5FbK8C3Sy74Gl6nCXgWEb88o3Rbw1Vm6T+Iv5sqv58m/V8rgTfLVevnrEvlVqvw8Re3EKzPl2Xjvus41cDko8pcSJeVEmO2vX9Mg++/oTJ6O2xL0AMpBf76WrH37dqqOc0Nvf7NFe/53C/Qu/GyO/GSWdlQHkzOGC+oJc7JF7hRzWBchhHgHnQkhJID44EygRN+cLRdzQ0XVNTbrzvTfbtNsiQ+2RL1BpPbACwny9lz5v2UycrssOi1pN+Vslu6FUlqrG/bV2NSMVdZLfpXcKJTj92XHdbUTgzbJe4vl53Pk6Vj9dh8i2wfdjArAUy0+q0uKhb5WNgZxpd+SN+fow2Bqi8cwvEGPSN2A8o1k+dMi+XydzDqq/XksQx/IvErtB3S40efo//ulOpVl/21Zf0mm7JF/rpDfztfcXe9ouy/y/qZrBaJkzC7JLGPmhBBCvIDOhBASQHxwJhCCkNGT9+hsk1CgqFoSj8rLST5+lf5EjPw6Vb5cJwmHVW1DqjY1q/jWeQjOYd/d3Pk3OAZR2yC3CmXLVe2QT1bLz2b7mLRBr741R3Ze131OQhxbk5x4IH9c6IslQKB/YALfX6Y7xK+7KFfytA+NznTuXtcOR+AYGImSGnWGC07J0C3ylyXSy9e0Vc9ombZXnQ8hhBCL0JkQQgKIL87ELi5/M0/VYXBldFOLbq6y9JwvX96jCRCmb6XI+N2aHrlXol/PozneTvaAXIaTgVgvr5MbBWpR+m2U12Zpfby1KD2idBTT6UwtDcWGIEZjL+XJ52s1X2Gqv/vAY4M+eTZePlqpuaZz2WowdHaNl0uTGXYF/gTn5lTIyQfywz75k7HfvJcdjuOfjZN5Jx3WiBBCiEfoTAghAcQHZ2LEU7Eyyr7GUbCAkqyxyc4bOrDHVDf3ocO37Oti9d8oW6+quvWjKoWxuVssqy7obipP20eXeZXJgXZ/f5lcyrXrdUeRIQRqlVkmo3d4N9nDsLJo2jvzdCtGtM6Pk5RQTlmtHLqnw/l+Osve4d74Exz/erKsudDVtuQnhJAAQWdCCAkgPjuT7pE6QXx1kCQdrojrXsiRD1bohHVT3dwEVHKvaPlohZoHiOyaBlXbfgQVa2zWaRLXCmTOcZ0u38Ob6kEo4158sFLtTUjNf8Adhn/Lr5KJabo8gFd2q0ekeobJe+RKvuZJ/PvAGBWrb1STvP26fLpano7zwpygIbBMb6XIpiuhMjqREEJCGToTQkgA8dmZGF+E91mnsyw6X0PDThRUydfrtebWVbKRKhmxTTJK7FuyBNJQofBqmxzOkPcW6UXRV6bKuAlo6wm7pbAqhNImUP+1DRJ5QLMl1tuCI41UyearmtkIdCII/gSObtwuHaMF52z9wYB3+nWq7L6hzQydPieEkBCEzoQQEkB8diZGQALGHNQ56J2s5+Arko7oVAevhu48E6ey9YF9OSY/juBqD1yioUkXMft0lfT2ZvgTVPXPZsu6S1rPgNon66AmJ+7rclheLT7WK1r+sliHWtnsu7UEuilGwgoOKvGwPJfghYPCU9QjSm12ln39A0IIIe1BZ0IICSAddCaPRerCrxsua36gE7Q+wEUMuf/WbFXwpvq0GVDS0J2vJUvUQZ1V0pkZHqO2xTXyzVZdkMqirMcxOPLTNTqlvjNr2x64syU10m+DFxkquIKnYuXjVXL4nqYyOhNYIBjXeafkl3M1GWLdnxhbXlbWO8ohhBDiCp0JISSAdNCZIKD8/rpEjj9QCd4JQCXnVeq+h9bnb6CGv06V5ed0W5LOT0Hggk3NuoZYxH5ds8u6UH51pq5hFfQ1bVF/W5MmcHpFe5EteSJGl/Q9l633q9O7XO8ynsb02/L3ZWpOTHVrL2Cz/2+pnM7qJI9NCCHhCJ0JISSAdNyZQK1Cs369Xm4XqRwMqKgzhuusOKfjsrpbk/jGyKit1+wL1AZJceKyMCdF1Ton/s3ZOnbIisSHpP7zIs05aK8GTytDpt8s1JUGLEp8WC88DyO265SPzjGrbYIeq2uUs9nyyRq1HFYMIY7BcxV1QAqrOaaLEELahs6EEBJAOu5MENDZT8bIqO26V3dAv2+GXrxhr7DVYVF2lbz5qn2HEEcZQQM9U1wt0Qfl+XhLQhkN7BklE3erpQnWt/i4LBxd/CGV7BbrDAMzcJOuMRAKmQfU4fgD3Y0R5sRU1fbiFym6FHVtg6MEQgghztCZEEICiF+cCQKy9bl4ldF5lQGcGlFeJ5H7ra5ai2OeiJHZxztvDox7UAVUI7NMd954KtZc2zYDTfjJTN29sZOnarSCW3kqU2exW1zqCg/Sv1dqjiW4eR5ncPeNTW8sulk0of9GXfktROpPCCEhBZ0JISSA+MuZILpFyMuJjqW6IMH9LuxQ3tks+dsSSzNM4JRw2NR0lZghNTIHkv1Gofx5sX6Lb2VhMdyaoZt1WnZQdHJdoyQfk5cSzbVyDYh+9PkfFqiTsQVvEJcreA7h65ackVdmWloyAa2Ab9x/Rx8behNCCDFBZ0IICSB+dCYIKL8fJ0rsQfUD/s2cQCM2tai+RPlWhhX1ipYBG3WqQ6jpSwhl9Myhe7pPpZUhRmjs8/FyNT84DblWoOtrWXk8ukfomsKrLoRKhsoZ9LluxrJfnoy1lDbBfZmUpqeEWkMIISTo0JkQQgKIf52J8cX5q0m6DtXdEn8O6YEuzyyTfhu1fI/isluEvLtIjmUE4ct7NBdNNqI98Je6Rt0+/ykIZQsuq0eUzvTAKf7qTCvgUnBQGy/rqtBWFhtAWyam6aLMnVlJg9YOd3NlPD/Z5fL+UnuqyqXypkB7f5miU2VwFiGEEGfoTAghAcS/zsQImIcX4lWn3rDPN/AL9Y2Sfkt3EzddyzWg9XvHyJR03YKjk7/zxuXgH8pr9dI1Nne6FkcWVcu/llkSyjjmTwskq7xT1xZDDQur5LudlpIMiL8slpOdtXK0M7hiVb1uMF9Rb1/noP0uwpHrL1lafgCPUK9omX0sCM0hhJAQh86EEBJAvHImFkUqAtoO5mTIFjl6XzV6xx0CdHzEfnnawsRx6PjfL5ADdzx8ie5fIGELqnSF35QTaoompEnCYZ14nVmmnqpNuQwZvfGyvJjgOW0CJf1EjKw8F8ClBVxBi85kyV8XmyvjGqjes3Hy/T61B51mBWHS0IHX8tVsRB2USXsk4oCOJbuYq0YFf3WtCH4Jr/WFfRFhUxNMgeccx7y3WPIrO69FhBASFtCZEEICiHVnAnHc25u99hA9o3TC+mr73AM3X2Zb4Wq+1tOjpkQ8Gy+T96gG7TQgXq/k6Wz7Py+UZ+wzGRC9ouRXc3UZruP3VeW7Nr+pWYVv33Wex0qhtO6R8p/VKv072I3WqaiTeSd133pTZVyjR5Tuu3Iq03FiJ4A+KK5RX/fFWh1s1sOed8L/fzpL/r1KJyO1uc4yug7Wbvt1TZtYeYyfipUd15k2IYSQh6AzIYQEEOvO5O9L5aMVum+JFVVnRDf7AllvpcgP+3QfRluTL99A4wyowy1XLW2pgQN+OVeOZHSeoKxv1B0zYDCei1fj1FpD9BL+CXX77iI5n9NGfSCUcS7a9YK18UWvJ2sSo9NmPuisng2eHww08/kEmXlUVw/rHOAu8ir1ir9MUavcuhYw/o+fUWF4lZiDbc9fx29yKvRmWXnge0XLhF3c2IQQQh6CzoQQEkCsO5PhW2XXDcfBHgcgOQf04rNx8skqSbupG5JAWUIgWncoOBiqN+6w54viAKjJ8bukpqEzcgu4BPzGuWz5bI0mlEyVMQJyGd31n1XtfIsvujfll+ssba/+QqKsPN9Jc/pRsWsF8naKh3wOWgdP9d4iudcpk8VRK/QhenLWUbUfhiFxDVTp1STZdlXvjutTAKex6YouI2Y6yzVgqt9dbJ/T7ziVEEIInQkhJJBYdyajdkp+lZy4L79JtaSkW8PQr9B58CejtusV6xrangnQJpC8BVUyZLNnZwIZ/XyCzu7onMQChC/aor4iyl3SA3/qHSNbrrQtlGG65p3SA0xnucbTsTItvTO+wkclUdVt1zTn0576NwJ3BE9O9AF70wKv3/HMoLtST6jxcDOuz3CD/1qmE05c3SCM8e0i+XS1+SzXwCXeStHBeIFvGSGEhA10JoSQAGLdmXy3Swf3w1QcuKuKDae4l62ugeN72gfbRO6XK/lSXK0rWcFFuMpHZyAlM0p0CodHZwIp+fM5OgzJfYEdB8VDi98rlgEbNEtjqoZroK8m7pLStmaJoJxj9+W3FtYcQyH/XqWdFmjQe9U2vUfuEyYIHPBkrOy91RlWEJeoqJOFp+W1We58oBF4En4yU59t1ycBv0EfTkn3/DjhKj9OklXnO8N0EUJIuEBnQggJIF45k5Ia/d4aYnrvbV25yKvMiRGQgxB8EI4/naWb2aEcuI6qenfiD5c7naWzODwaIbRi1DbNKgRaSkLd3iqSgRvt9syTwEX0iFIPk13eRsUguO8US9/15lNcA532h4U6eCzQoEq40f9ZbckAvDmnMxawQr+V1cqKc/KihTk5iO5wJkm6VJqrZUJN4XVXXtABeO7vHf76ZIxOkaIzIYSQVuhMCCEBxFtnAg2KqGuQg3d16sjT1jbVdo3uETp9+edzpP9GST6me5VA69fYdB4FhCO0YKsarG/U1ZZ6W5h53zNa15DVkUWOUwMCyr+Wr6PLekVbUskIdO+wzZLb1i6E6MzKel3xFirffQPRYz+bLZuvOE4MHOj/u8XyuoXUBBzXdzvanmvuR+Auiqpl6VnNlqCXTHVoM+BMfjpT91eBkW6TY/fl9/P1MNOJzoHbgT7/aoMfVpYjhJAuA50JISSA+OBMDOoaVfn12+D5u2f3Afn7ZIxOth6wUfe223JFLubohdSf2L/hhgsas8NzDaEjX0jQ7QgDqpKhUK/mydAtOorJVAE30TNKYg+4Sw2tuyQvJXhwAvjrs3G6JlWggTncds3SbcVNwZGBtoKwJbCmv0yx6gMRMDBwVm4ehrslaomtPPb/t0znpbTncAgh5FGDzoQQEkB8dib4AZ7hUq5+aw5LANXoW/IEAQXc3b6Z4IsJ8tYceX+ZjN6uC7/OOSZLz6hq/8N8PcB0likgRj9ZpVXyqCFRc4jp8jrNDKD5uRV6luuwH1dw1o0C3aLk2XjP9WkN9MzTsbpyALxWe5zM1D3U3ScE0L04YNQOzSzBFgYuKuslar+6Kfc3FO36caL2nkcriL9D2dc36ng2+Lp7JTo0q8GeGXOPMa4MtuS387Q+pgq0F6g2nufP12iuo726Gau9PRNnPtc1fr9AjmW4u3eEEPJIQWdCCAkgPjsTA4h16PuxO+W5OB0b05HkSWtA9PeOVtX4fLy8nCivzPSskvFXHBN1QOWvGyCFDbG7+YrOH+i/Qfqs0eXC5p2QO0XalvaErKGt75fK2F1qS0xXdxPokF7RMmKbPWHiKKwNUPJXFjYPQbwzX+emxx6UuIAFbMl7Cz2Pm8Jten+pqn83oMnoc1uT3CyUlGMyYqsuoIxuxyUO3FFziNvRXrfgxIo69aXvzNNruX8AnAM1fydV935xk8zBc7Lhko6OM53rGr9K1dWuURQhhBBAZ0IICSAddCaQj43N+hX4nGM6st/Yjdt0og+BQqDpf/Tf8FgmDoaZWXrWw3Yf0Jdo76BNurjwEzHqGeBn8P8nY7UTzmWrYG3zi3y0MbdCJux2bO1nunp7gVqhQwZs0NWW3edkimvkm206T8ZUgmtAdqPmAY3eMXoVjyYTx/Rd58GZoNWwHyvO6Xb4T8X+r8NxlddmSewhbXib5gSPWW2D7Lopv0jR2SymS7sJPC2/niuH7rZ7Kw3wJOy9ZWlJtLdSdDfMztlGhhBCQh86E0JIAOmgMzHALyEEd16Xfy3XkUuqa11OD2hARkPs7rjeroJErVHJm4XSb6Me6Vo99MDPkrUJVQ8PAcKPsCUFVTI5zdKuI62BSzwZo7ud3CnWEtyoZFDTIBNQvgVnEjqBHvt2q9bcDVX1us7vT2e1kfTAb2BRRm2Xwmpz/6D/UeyBu465JdafJfjAn8/RFEedp0n5uOLJB7qRoqkE13gjWdZeEJvbXBwhhDw60JkQQgKIX5wJwO+NjMTENB93O+lIwJk8FauLC7c36gbVK6uV+MM6iRxi13Q6AiXAUEGGrrmog4hahTJOzKnQBY7RojZPbDNQGmzGV+vlQo6aJbciWYGSjjuko9dM5YRy9IzSbnGz8yO67tA93ZezTaeK36A/Ucg3WyWr7H85JfQ8/Azcxa/memdxUdpbczRvhhvt3gcCXO5avvxjubkQ13h1pk50cT9KkBBCHh3oTAghAcRfzgTgL0Z6Yf0lFeUvJ9kHd/lj5onHgCqFrL9TrPOq2wQVu5KnKR03Shd/ghT+ZYqsPK8thbqFz3lQJpP3aLbEC1ti36/9i7VyJEMnlLvpsVYgfBee0hk1pqJCOXpGS/TBdp0Jeq/GJnNO2N1F+12HXu0VrYso3CpSt4DbVFkv267KHxd4Z0t6RKktmXtCd1FsNTluwE3JLJNPLOwE/1KipBzX+0gIIQTQmRBCAogfnUkrtiYVmklH5Q92fWkqJxBhfF+eU6HStk1QpcP35BdzzCe6Bir861Q1J1X1anVgS57yZoFgiGn4sY9WyPH77vIJJlA9ixOyQyfgKGA82pPseE7gUcfuMp/lGvAtMHKjtuvivOV1OiTvvUXeTXnHkW8ky+zjUlDpuLpHYJxKa6XvBnNRrvFsnKbarN9KQgjp2tCZEEICSCCcCWRfU7OU1qg6jzwgv01VFRtQiwJn8rfFuhl5e86kvlHSbql+NZ3oGhDK6I3fpOpQpa836ILI7vfjcw61JVHyf0vUBUHLWukrAziTtJvy9lxzgSEbaGnvGFl2rl1n0mRPSvTf6Nlg4ADcPvTzkM0SfUBXT8bT4vGs1sDd+XGSJB2RvPbvviu4Mw1NMmiLuTTXeCJGfthPZ0IIIQ7oTAghASQQzqQVHAx/ci5bV2Eypg1AR0KGWtedFgNl/mmBO20KZ5J+W9eDMp3YXqBASNIe3rgpNAoN/N08OfHA68E/UMk7rus6VKYyQzbQWDiTRWfcOZOcChm21XxiewFDiA5/Jk770Prjgdv0dJxu0FlQ5XluiTM4FmZjwCZzga7xVKy6azoTQggxoDMhhASQgDoTHIvjIbsr63WPwsQj6k8gQL1Sn1YCCvUnM3XP7/acCepw8oFmb0wnugmvamjYkncXyelMdUFe9RLAKavOy+sWUjqhE72idUN6N6O5ymo122C9G2FOcLBXx8OWoA7ltZbmljiD6hVWyRfrzGW6xvPxmpDx1moSQkhXhc6EEBJAAupMnIF2hLzLKNHdLT5eqROLISuNUV7drW1a4iYMkXq9UB1Im+DqD0pl6JZATcpHB/5hvu4e6IMtAeiZlBO6raSp2FCOntEyY1+7yQT0AVzi5qvaKOs7wFiP7pF6x2MOOnZE8ZamFt2K/qNV5mJd48dJMu8knQkhhDigMyGEBJBOcyY4z5h/AvNQZU+hLDot/TbobnevJes8447oV5iNJ2N1dkd7zgRXx59235Dfz7fUWK8CtuqPC2T7Nd120KsxRa1A30fs17FMppJDOdCNY3d6GOYEIzpim3dLCFgMONvJezRLhgfShy6Ha7qYK39fai7WNX46S5afU8NJCCEE0JkQQgJIpzkTZwyLAlGbX6k7fmy8LFEHdGjNX5eoUXlztn7R/kSM1qpHlH3olyfTggNw/MYrOpXcDYXVMue4LoHV3X/DyVDDX6fK6gu6C4rPnVNZr93bK6x2WkTDh2zysNMibsex+/KvFdo0+DdTCb4F7t2LCbrq1+2ido2oR3Di0Qz540Jz4a6Bp2XDJQ/PFSGEPDrQmRBCAkhQnIkJuJRqm7qUizmy95asPq8z5kds101R/rNG/rlcenmqHmwGtG/qSQ8KEpXPq9RdOF5I8I9QRiFvz5UV53VORUdA24ds0fFRpvJDOeAYP1utN849jc06uf9vS/yWqnouXsbs1JxbR55EPCe7buisJ1PhrvGLFM2G0ZkQQogBnQkhJICEgjMBLS1aMlRsQ5OK3cJqHahzp1irdyZL3k7xYCTgTNCE8bs8jLpB3XGV7HLdcL2D48cQkOa/mKNDfWBLfJjq4MzNQvl0jWYhTJcwBZr5s9k6BK7/xgAGDCHsVndP65Lhjvx+vmZ7PD4RuKHptxzmpCOTfHDFp2J1eNiNwo5ahbpGWXZW93c3XcI1fjNP9t72PTlDCCFdDDoTQkgACRFn4oa6BvlyrecFfGEz/rRAR4h5rCCaUFSt8zogc33OnOByP07U2fwdzJYYHLwrv5uvVsd0FeeALekZJSO3S0ap3A9k3C6S2IOawHE/4A1/fTpWD/b4SODvcAIH7qiT0bF5LkVZCVgaPKXDtqiLa+rwQ4gnedpeHQFouopr/GmRnM1qd803Qgh51KAzIYQEkNB3JvWNKpR7eRTK9i/Ur+Z7Tl+gBTimuEam7lFt7YM5wSkvJOg6v5X1Hc2WoDLo0qVn5akYD/kEXPTHSbpsAK4Y0ECHn8rUzvSY38BjA29ma/I87x9thGk8mqFZJq92iTFCXVm0GtTMMk1fdPwZvFEon8PuWkhSfbRKx9p1/mNPCCGhCZ0JISSAhL4zMaYEPAmh7FIlU0C8LjljF8qOU9sFBzTZd7QYu9Mhwa1/kd89Uk9Zdk6ldsd7AyXAI41P81yBxyJ1qv3he44TA0djs25c+McFnj0bPEb/DVJjs9QPOKSuUYd1vZFsX4HAsiFENfB8frJK1332S+4CPurAXflliofhfLgjuO6327R1Hb7PhBDSRaAzIYQEkNB3Jg3NcqtIfpbsWcv2iJKv19tnPlgTypC5mWXynd2cWM+c/DhJUk9IeQdW4nIGdcAt+HS1+SqugXv0f8t0Hd5Ag3ZV1Mm4nZ7n4cBgPB+vo8ssDq9CyTUNsvmKTiu38sgZ8WSMfLpKs2HoKyt31j0oob5R5p3S1rl3g0ZmbO4JP1yUEEK6DHQmhJAAEvrOpKlZcirkizWencljkfLKTLmWb7WSUJwo/GahrgP2vH21LvdSFeW/OlN3si+o0hP9Ql2jpN3UhZJN13KNJ2J0lkWVp7WwOo6h3Zed8zwnBD3WO0bWX/IilYE7U1YnK8/Lb1I973qJ8mEa+6zV0WX+2usQJiqvUkbtMF/LNeC73pitSR4aE0IIaYXOhBASQELfmeCKZbUyLd2zM4GQfSZO11zyaoY0PMatIhm+1fNMD9iSmENqk/zYB+jSiAOWdjJ5Ll6/v3e/+Ji/QJ+feKDbhrjvEPwV7mLENksrdLUC51NVL4vPqB+D+TGV6RwwY/9ZLccy/DO3xABFnc2Wvyw2X8s10LR35uuz0emPPCGEhC50JoSQABL6zgRCtq5Rllr4Ch9/7REln6/RMVrWcxpG5uRqngzdrMZGp0C4lIxf/jhJd1nJKvfPVAeAjsR1z+fofn/uBToCVXplpuy77bere+RusfxzmeeKwQ3+MkXX3fJqGV/0OZ6lpWfl5/YJ8a7+B8XCrX24Qo7c03ks/gJ9XlGnWa9nLWy33zNaF1DG8XQmhBDSCp0JISSAhL4zAbjo8Qeepywb8dNZuiO7zcvcAkzCnSJdreuNWSrHoYxbAxd9PkHiD0tupT9FKhpV06A7q/S00PmoxnuLdBhSp/V/YZVM3mNp88cnYmTgJvVsXgFzUlkvay/Kr1K0B9DJzn2OB/L/luhaXh3ct8QZ9Bx670qeDiSz8iA9GSMLT3VSkooQQsIFOhNCSAAJC2cCMst0wJUVEd8rWneOR7u8AkK5sVn3OTl4V4Zslrfm6FimFxPl1STdInDbdW27f/MVKO1Srq6iCyFuaoIpcAAcQtQBS8uO+Qso8vTbuuWiqTKu0T1S93/ceFmfDXSjdXB8Vb0u4JtwWP66WF5JkpcStdthQaem604pdY1+toK1DRJ9QDvTysjAV2dqHawn3wgh5FGAzoQQEkDCxZlAKEP7vjbLXCvX6A5NmaT7bEBTeiWUAQ6HYYBcLqiSawXqHOCIKuo0A+NtUe5BaZDdk9LsKtmlCaZAi56O0/3+OlMl41oZJbolvEcRj/qjhl+sk3slvtTQMAxltXr6hVy5XihFNVZXIvYK3NnLuToqz2PCBE3GK2LsDn3qgvS8E0JIiEJnQggJIOHiTCArr+TptnemWrkGhPKPIuSzNbpIV4P3Y4HgGdBGKGxc0YgmL1MBVkCxZ7J0WovHhAnisUhdlavGH9unWAdNhi6fe9JSJdHnryfrilvV3s8JQZvMHd6sv/FvW9EcGM4xO/VRt5IweT5eDt3VyhBCCHGGzoQQEkDCxZngupX1Mm2v9LYwFAfxSpKOESqs8r/G7SCoDJT3g1IdM+ZxD3IEGgtvsPumP9ensggud/y+vLfY8zx4BNry96Vy6J49zxBSPW6nyqarG1u0gt0j5ct16rK8WuSNEEIeBehMCCEBJFyciUH6Ld0HHcLRVDfXgAD9WbKsvaQjhUJKKKMD8yt1HNeTMVYTJu8v1Z4PSiNQ1bG75OlYc63aDJgoCPobhSGXakDXHbyra6D1sPDkIHpFa/5HrSCdCSGEPAydCSEkgISXM8mpkG+36e57prq5hjH54XcL1Mx05sRxj5TXyaxjugQwbInHGSYIuILZx9VfBQV03Y7rumW7lTwVArWduFvbqEPgHGUEGRiMy3nSd51uCmnFCsK9vLtItzEJ7qNOCCGhCZ0JISSAhJczgcrcc1NXgrKi6RHdI/Wb8uzykFCZqAKqsfOG/HKupbQPAn7g41VyNT9oWQhUuLha3WAva4PocF+ej5c5x3RMV4j0+f1SnV7ybLy5qu3Fy4ky/5QOHSSEEOIKnQkhJICElzPB1SvqdEnZJ6x9/w0xjab9Z7XOfg66UIatOpctH67UKRlWVH73CN2bZfNVTZgEq/K4bFOL7L8jryVbmm2CgOl6daZmWoI+Ggo1h8GYf1q3o/G4HhcCtgoPVf+NcqeYc98JIaRt6EwIIQEkvJwJQAVuFso7qVaFMrTmkzEyabfq+2DJTQh0XPp+qQzdomOKTDVsL3pGybCtOlc+uOCGV9kkYp+lBY4ROAbm5M05usyxjqMLxgNjGKoam2y/IS8kmGvYXqDab83RxQZwszjDhBBC2oTOhBASQMLOmeD60LvrLuhsE4vji2BOno7VIUk5FVr/zm9BQ5NklOpUhx5RllI9CFT73UW6CTrODTpNzZpGeHO25UFo9qW63k6VPbeCM6wLVyyvk+Xn1AdarDPiiRgZvVMfEroSQghpDzoTQkgACTtnAlCH2gYZskmrbeVbfET3CNWd/TfKxdzOW60LF0FVq+rlfI78a7nVnAMC7uW5eIncr/I6FDocVYAbXHxaa2XFDSJw2GORugLBpitSWqveppP6vEW9XGaZxB6SJ2O98IGo7f8tlVMPQsIKEkJIyEJnQggJIOHoTADk45EM+VWqVaGMML7I/2hl5+25gUuU1cqGS/L7+Sp8LdoSRO9o3Snycl4IfXkPa1FULV+vtzRhozWM8VELTklepZYQaNBduLMXczQ/1tPaZB4jYGBeSpQ5x3Vj/s5xUIQQEqbQmRBCAkiYOhMjF7HkrM4RtzjhBAEBql+NL9PdKm4XOQYa+b1BKLCxWWfqX8iRmEPyyxR7bsfyl/dQ879O1SW8UL3QwchFHLgrf1qoBs9U7fYCzUGfv5EsE9Pk8D1NAQVoCgfuI7rrfqmsuiCfrNKRfhazJQjcmidjZOR2ySgJIStICCGhCZ0JISSAhKkzMSiokh/26TK1pqq6D2jW12bJZ2t1U/CcCsdAI780C4Wgf6DgYXtSTsgHK3TTcevf3CNQt17RknxMF5UKQZVcZZMNl9U4Wc//IHDwE9Hy50U6Pu1slp8NIe4dSoMP3Hldvtkqrydb3U7RCNQNZvXzNTqRphOyOoQQEu7QmRBCAkhYOxN4gFuF8vUG+1gp69+R2w0Amvyz2fL5Wtl0Wcca2Zo6JJehj5vsX9tnlcvCU/LP5bqXIi6BC1kX8WhCzygZt0sdV0j1cytoY3mdbvfxk5lepKoQaBoMAzwk/EnUfrlkn+3TwfwJzsUDUNMgB+7I6B26HeRTsTrYzCvXhFb8dbFj3/qOVIYQQh4R6EwIIQEkrJ0J6tLUrBNOoHe9+qbcCEMuv5wkfdbJqvM6bbquUcUuRCokuBoVIxxXU/Czhv33OACH4WC4Gpx4OU/mnpD3l6r+9kq1twbuwudrdDpHiH95X1Yr0/fKs16mg4yAVXs6zpE/OZahqSH0nnZ480Mdbu7z/3a49nmz3iOYwPxK2XVdt5x/dZYub+CVITECt+m1mfoSoC0hhBCL0JkQQgJIWDsTA4jUrVfl53O8S1AYgeO7w59E6RiqFxJkwHod4lVQpYq5tkFLNnRzq2iGLG61IjU2HUR0t1jmnZSPVqgh6RntWBfYB5UMlf+nBbq4MGR3iItkdALMSZ/1jqSQqSEeA6fAEuDc3jGar4g/pA9heZ1mP9CrrUal1Y3gn4YVwR2ptklhlRy8K+N26irGvaO1nO6RvlQD8Vy87L3DWe+EEOIFdCaEkADSBZwJqgTlmnJcpSqMgQ9f5BuhKZQo/fb9Z7Plmy0Sd0gtx6oLup35wXtyJltOZsq+O7Llqiw7p+s4RR6QgZt0ygpcDaS2D24EgbNwXVz0F3Pl+ANpCJMv71FJWLJ/r9a2e7Val3Og7eg3lPBigvRZq6O8Zh+XpWd1oeG9t+VEppzPlcMZuhjA2ouy4LQkHpYpe+S9RbocsGGKfOtzRA/7RvVLzqq3bKItIYQQy9CZEEICSBdwJgBC2dYkW67Inxf7bhIQhk+A5IXa7h6pgdJcw/iThv1gnOL7FSN0dkSfdXI2OwyyJc40Nev8nD7rvZ7l7xyuHY4w9bYRrX/FwR3xJAgU8qtUWXnBvswAbQkhhHgDnQkhJIB0DWcCUDFbo5x4IJ+usY/w8VUrd1pAW6OSLyTI2F06R8UYMxZewJwUVWvuSLNVPk2t6eSApekdo2umbb+ug/FQf0IIIV5BZ0IICSBdxpkAVA1a82KuDNmiir8jX6t3QkAlPxEjM/ZLdnn4eRJnKupkyRn5zbxQ7/Bu9vktX6zVlYsbuNE7IYT4BJ0JISSAdCVnAlC7+kbdmyLygM4AgRI1tSIUAgq+R5T8fLaknnRsjh7OxkTrX14n6y7J7xdYepCCEvCBPaNl8GZ94GFLwtoKEkJIEKEzIYQEkC7mTAxQycJqWXRa57LDnHRwWoIfwxjBBVvy/lKdWN+V5jmgLbtuyPvLdL0stDF08ie4+3gGXoiX8bt0t5lw94GEEBJc6EwIIQGkSzoTAAFa3yjH7svn9vWjIE9Nzen8gFhHNSCRx+6U+6U6Zb8rfXOPtqBFaFfEfnnWvqNLiJiTntHyl8Wy+Yomdhq5bwkhhHQMOhNCSADpqs7EoKFJp2gnHpbXknVSR7CmxWuqJFLX4IJEXn1B8zmQyF0SGMK6Rk0HfbjcseNksPwJTCCe6p/MlG+36gIDsKn0JIQQ0nHoTAghAaRrOxNUFhWGKt13WwZslB8n+b6+bUcCjuj1ZBmxTS7lOiY5dFWRbHQ4fNeDMt0Q5tepmrDqfHOCu/x0rPxtifrAgip7h9OWEEKIP6AzIYQEkK7tTAygSmFO7hZLygn5Yp38IsWeP4kMrEtB4T0ida+P382XfhtVIudU2Cc5PBoSGeaktFbSb8n43fLXJbrbus+741sPOEA8yT+dpesCR+6XUw90gBk3UiSEED9CZ0IICSCPgjNppa5R7pXoXhZjdsof5gdwojYkODzJ+0t10sW+25JbEd795jOwYeV1cvKBJB6Vz9bIK0mBmvCD+/hYhG6r0n+j7tB/OVe9KCGEEL9DZ0IICSCPlDOBUG6yT9TOLpdTmTLzmO5u8dosXU6qh31zRp+NSjf7Luboxidi5BdzZMhm1ccXcnSWi63RPprIUYVHC7Qafd7QpP7kRqHsvinjdskfF6ht6xltn4Xiq1HBnYLJ6RGpo8WetpvAGfsl7ZZmxqptnOlOCCGBgs6EEBJAHiln4gyUa2W9PCiVo/dl7gkZskl+maIyFxYFitmI7q1hNx6O+O8vjWMgjnHKU7EquL/bIUvP6nzrnHKpa6A4NgPDUFglV/Nl81WZtlc+WK6zQdB76ENzn7ff4Qic0jNKl4T+ar0kHJE9t+V2kQ4e66rrChBCSOhAZ0IICSCPrDMBaEtTs6ZQahqkol5bdzpLUo5J/w36HfxvU+Uns3SCxDNx+q08vAcCP+CfLyToPol/XiAfrpDhW2TZWe1GKGNYndoGTRE8OvNJvAJdgj5vsK/fVWWTsjqdKA+XMjlNPlkp7y3SdNOLCW10+LPxusoW7gjuS7/1MuuIrgedV6mpmGqbDtyCJ3lkE1OEENKZ0JkQQgLIo+xMTKBlrUYFehc2A3alqEb36LiSL6cz5Vy23CrUSSNldhNSVa+HwYrglC7cLQEF/QZTAaNSY9P+RK/CbMBy3C6S8zly4oH2PPofd6Gizt7nRoc32r2fowxCCCGdB50JISSA0Jk4g8a1tGgbjWiyJ1XaDqfDmB7pCOi81p603uHsckIICQp0JoSQAEJnQgghhBCL0JkQQgIInQkhhBBCLEJnQggJIHQmhBBCCLEInQkhJIDQmRBCCCHEInQmhJAAQmdCCCGEEIvQmRBCAgidCSGEEEIsQmdCCAkgdCaEEEIIsQidCSEkgNCZEEIIIcQidCaEkABCZ0IIIYQQi9CZEEICCJ0JIYQQQixCZ0IICSB0JoQQQgixCJ0JISSA0JkQQgghxCJ0JoSQAEJnQgghhBCL0JkQQgIInQkhhBBCLEJnQggJIDcL5cOV0vORdyZoV2Oz2JqktkEKqyWrXO4Wq227lCtnsuRohuy/KwfvyYkHci5bruRpv2WUSE6F9kldozQ0SVMzbZsXoKvQXeg0dHt9o1TZpKxWiqolr1Iyy+Reqdwq0rhdLBmlkl0h+VXa1eV1Um3T43FWU4u0sMMJIaRzoTMhhASQeyUycKM8EWP2Ia4xeqcUd1FnAl9RWCVX82XvbVl8VqbtlW+3ydcb5KOV8t4ieTtFfpwovaPlmVh5fZa8M0/+vkQ+XS0DN8moHRJxQFZekMP35FahamtqZYs0NqnTgPc4nSUH7srOG7L+siw/L/NOSdJRiTgok9Nl0h6Ztk9iDknycVl4RlZfkM1XZfctOZwh53PkfqlU1bPDCSGkU6EzIYQEkKwymZImz8aZfYhrDN+m32d3DWcCOQs3UlkvpzJl7UWJOihDt8q/V8lvUuWZOOkVrUmkx6OkR6Q8FindI+RHEdJthgZ+wD/xS/wJB+AwOJaXEuWPC+SzNTJiu8w+LluualKlxqbf61M2t2JkSOobpaBKLubK7puy7JwkHlXvMWGPTEiT8WkyDrFbxu6WMYhd/w37b/B7HIDAwXAsMw7InBOy5pIcylBPWF5nT1u1sMMJISSw0JkQQgJIaa3EHJDn480+xDX6b9RvqSEuwxfIVkMf1zbIkXsyY5+8u1hem6VWBK7D1F4fAoU8EytvztFky6yjcjFHahoco7weWcWMhsMHogdKatWQbL0uqack+qAajO92dTTgW6bslYQjsvSc7L0jd4q1w7W3aVAIISQw0JkQQgJIXYMkH5UXEswi2zU+W6OTK8LXmUCt2pr0C/sd12XYFvn5HHk2XlMfRj7E1Fifo5s9qdIzSl5MkHfmy8Q0OZahg440f/LoyWWYBDQ8q0z7POmoJjomp2tiRLMiLjbDt0A5KG18mkzdK9GHZP4ZOfZAOxwPKu0JIYT4HToTQkgAqW+U+Sd1PJJJYbvGByt0OjiEZtgBfdxgn9Ww7Zp8tlo9w+NRaiFMDfR7wPPAojyfICO36USUOvu8bVSmy4MmGp6kvE7nhMQd0cFaY3abTUUgAi5lUrqmZW4UOpYlYP6EEEL8CJ0JISSAwJksOSMvJ5lVtWv8bYmczlS1F15AIlfbdHb70C06naaHfd5IJ9gShE5NiZDu9hkpz8br4LFbRTqQrMuDPq+slwu5knJSsxl+zJBYCVigcfbpKGsu6Rpf6HCaE0II8Rd0JoSQAGJrkvWX5JWZZlXtGn9cIGk3dRx/WGB8bQ9Veq9EUk/KnxeqPfhRpxgS1zCmzj8dq/NPNlzWtYZhCLukXG6y50nulMjqizJxj05bN9mGTgv4E5iiqIOy57YuQ1xnzD9xVJMQQoiP0JkQQgJIY7PsvyOvJ5vFtGv8LFlWnJOKOseJIQ5kaHGNLgDVf4Nj7JYfJ5P4FoY/QVeP2SnH7ndBc9LUovvAbLsu3+93LK5lcgudH6gD/MnMY7oRDSwTngpCCCEdgc6EEBJAmprlcq78PMUso13jqRiJ2K974YU4kPto1O0iiTyge4/0ig5aqqTN6B6pu8f8faksP6edCWfYBdQymlDbIFfyZdFZneM+NnipEtcwpshHHJBNVyW3sot0OCGEBAs6E0JIAGlu0b3Mf5XqOaXQI0r62RcODmUgOiE9bxXJiG3yXHxoeRLnQMV+Okum79XBZuG+CwesIGzJyUxJOKoJCpMxCJ2YuEcWnNaZJxzWRQghPkNnQggJIJCV+ZXyySr9Lt+9OcEBf5gvZ7NDd0gMKlbXKCcfaHOeiVP1H/QRXO0FKob+hHf6fK1uZ24Lt3UFWkGf19hk/13dtb2TZ7p7G8bIrlnH5WqBNITztjyEEBJE6EwIIQEELqOqXqan6/q27lesgtB/OUHWXFD1H4ITJJpadObGvts6kaOHJ5dlJVACOgStRnS3L7Gl///vb/zleXpFy/vL5GiGLnoWspavTVBZVBieaucNv43ggnnQgMOx7/tuhPFPf3mecWkSf0TO5+qQv/DqcEIICQXoTAghgQUSbe1FeTJWBbdJN5sCunzCLimrDTlJB6dUUScrz+sUjsf8ZEtQDtzakzGafnk+QV5M1P0on4vXJbZ6x+isevSG6SwfAn2OC/1poey5FWYLCuMZqLLJigt+26sEhRir/U5K153dp+2T6ft0/8Qp6TJpj15lnN2imM7yNuBw4HaiDsqRDF1Omt6EEEK8gs6EEBJYmlrkcp6K7+6RZt1sCsjovy+R7HKdyxE6GBI5+ZilJrQZ8CGwGT1gRaLlx0nydqr8bal8tV7G7ZS4g7rfy/ZrcuSe7L8tGy7JvBMSsU/nsXy2Rv68WN5K0a0be0WrwfA5l9IjSn6dKum3NR8V+l/kG9mSompZfl6NhG/ZDMMhwIpMTlefMPOYzp5fe1kzMIfuydksuVmoM6Cu5supTE2FbbkmKy/I/NOScER+OOBYkthno4JLf79fL1RjX02YEEKIRehMCCGBxVCZv5un2tqkmE3RLUKF+9H7obXfIsTltuvy5hwPo9HaC3iJnlE6BgxupP8mWXBKN5Qsq9VUkkaLBrqoNfQ39j/BnqHfDt6VmUel/0b58yLtHI95pzbDsEYfrVSLGFKur01aWnQF3vWX1R747A1wbsxhWXBGdtzQRb1K7Ym41sAlnKP19+ic3AqdbY+rzzkhMw6oxzCVbDFgjSIPytlwnuRDCCGdD50JISSwQPlB3I/dod/cmxSzKSCge8dI1AGd0REKoOZwCMfuy3tLPFfeFGoGInVo1p8WypQ9ugHiuWwpqdGmQf5CBHvESB3g4LpGlcvH78uK8zJ4i7w9V62Ot/kTNUjRMnCT7sOIMkP2e3xUrKJOx57ppiUuct99GHmSaftk4RlNEMGQFFary8VNxK20QmufV9t0/8Qz2bL1uuZbfBtRNi5N1xO7WRTSHU4IISEFnQkhJLBAk0GZpd3UIUkmuewa3SPk3YWaUrAoJQMKFO39Uhm2xb6XoktV3UQ3+1z2t+boBIZD9/w2cwaFZJdrEmDwZnl1pl7Cq1oh4K8mp4XunoCoFJzbiQearPDWCcCWwAnARRy4K3mV/km7oT6whbeLZfNV3b4Gtsdbs4RT5pzQuxaaHU4IIaEGnQkhJOBAlhVVy2uzPA9GgqZ/Kla2XdMxMEHUcrg06pxTIVPTdWK6VwYANub1WTJ+tw5Lg0TWhrT4py0opMm+cjH80o7rMnCjju/yOEbOOWBm0JyFp7RWIaiVG+x7xcBdwJZY9wA4GJ4k6qBmWrIrHFM7/OVsUQ58Nbzc9QJZfUEnzY/zxjKhFePTNIcTgus6EEJICEJnQgjpDKCnh25W1W7Syq7RI1LeW6S7oARRyeHSlfU66/1p+74lphq2FzgSPuGfy2X/HR24FbgxPJDLsBb5VbrR++vJOmzMonfCYajkWykO7xdSoM/RaRDxE7zZThG2BNJ/1UXdf722IVCpNpTa1KyPxIUcXRRYJ8e71MRNTErXTFdDUM02IYSEBXQmhJDOADoYavhlC/kHSGf4gaVnpTF4Sg4i8tA93UYdlbGeMOkVLR+tkEu59rkNfsqTtIehlesbdTkvrzInaA784buLdRJF6Ahl2BL4ivVXNPthfRzX2N060x2iv6LOi8kkPoNKwm1mlknKSbVD1s0J6vn9fp2wFOinghBCwh06E0JIZ2BIur8v8ZyCgHSGzv7Xcl3UFXKz84EALa6Rvmu9mF6CRj0Zq+v8nsnq1FwEtHhdg2y9qmkQr2r7bJxE7A+VIUaoAh6PEw/si3G5yPo2w0iVxBzS7eEr6gPuSZzBM1lcLcsv6F4osBymirUXqPCs43I3SI80IYSEC3QmhJDOAAq4vFZm7LNvBu+ilU2BA15OkrnH9bvwTgYat75RFp/WlawsCn3EU7EyaJOcz9FmdrLUR4UbmnSX978t9ez6WgNN++08naxSEwLbL6IJpTUSe8QLoQ9bknzcsSZvZ9oSgKvhLsMQ7ropP+z3IsMzKV2Xn66sd5RDCCHEFToTQkhnAD0HAb3vjm75Z2W/wl7R8uEK3foDurMzlWdTs1zMkT8ssDo+CmbgiRj9pv9moTYwKEAow03BF322Vg2VqYbtBXoYbupucWcre1fQb2m31GyYpHybga4el6YLXt1Ahwcv/4A+r7bJwXsSfchqnge+K/awXCsIgn0lhJBwgc6EENJ5ZJfLdzs1w2BSya7RzT7iKPpgp64gjAuV1MjIbfaRUdbyDz2idL/2rBBYFraxWTdS/GiVF2O6XkqUZWc1bRJEc4IrPyjTndctJkwMfX+rKPgdjk5D1+2/qzuoWB2Etks3m6/q3OFnhBASRtCZEEI6j9oG2XlD3plnVsmuAXkN6fz7+boRCs7qHGyNsuWqvDnb0rAo1LBntPRdr/NhArcMl3WMzMm+O/LnxZb2hTR6+J/L5Gp+0JIPEOjoOoj1Sda2e4ctmbJX5+6jwqGg7Q0ru/GKTE43V7W9iDwg1wu11YQQQlyhMyGEdB5NLboc8LfbrO4S2Ctap8JfzLWvvOQoI4DAY/RZZ2lHSFS+e6S8v1RlfUipzCqbbLwsP5+jrsNKDz8dK4lHgjbbBM/DnRJJPGo15zAhTWd3aJLHUUDwwZOZU6GrdcE1WWnF+DRZe8meNnEUQAgh5H/QmRBCOg+oMej4NRflDfsuHCaV7BqQ1z2idCOU3IqAGwDUbed1+WWKpYo9FqlbvO+7rWmKoA8rcsbInMw+Ks/Hq/0zVds10JC/LArarvC1DbLpqi7JZZLvrgHRD+kPTR9qWxaiLqjPjUJdKMzKJoxjdsuEPToajSsIE0KIK3QmhJDOJqtc+m+U3tbmanebIb1jJOqAStLArbgKcVlZrzu+94q2NMPkhQRNNRTXhKK4bLGvejxiq6V1hHFAz2gdw9YQjEWurhfqxoVWZphA9KeclEz7fJ4Q7HP03slMHWlmJW2C9i4/rwaSs00IIcQEnQkhpLOBjNt5Q0ccWRluhPhRhDwTJynHAzgbvrFZd0j8YIWlKj0Wqc7qbnHo7k2B5lzIkdfsO0WaKu8aaE6/9Z2di8ClbE2SdtuSLUFM2yeHM6Su0XF6qIHHEk5j/mlLzRmzW1cQzigNreQPIYSEAnQmhJDOxkhQjN8tT8ZYks6I7pHy6kxZeV7nGARCz1XV6ypVP5lpvq5roCavJ2tNOn8nDesYQjlqv6UUUPcITQEdv9+pRgs3saBKlpw1q/Y2A3J/0VnJrwppKd/UoitHT9/neSr/GPtsk+3XQ9fZEkJIsKAzIYQEAUjMK3k6g9zitiEIeJjfzXdM7fA7GSUycKMOfzJd1DWeiJEB9oRJiNPYLNfy5U8LPXs/WBc0fHp6wGfyOANRDh0ffcis2l0DQh9y/0hGSNsSADcIs7rusrW0yS4dxhaIJ5kQQsIaOhNCSBCAyKxrkE2XNU1hZaI2QiecROuAK5iTaps/dSqKgvD92WzPNUEdXk+WDZdCd1hRK2hUTYPMPqZLCLhPm6BRaPjvF6g96zT1X9sgh+7pYsEmye4a49Nk4RmdORPioOfQew/KJOKgJXMyOV0P7rQOJ4SQsIDOhBASHFpadEmoGfusTjpH4LCe0fL+MtlxTSrsy0l1XNehGlDJi854zt5AwfeIlP4bdAuLsBCUqOS1AvnbEkurjb2cpFvHdNo29qW1suKC7uZu0uuuMX2fnMnq1HxOR4Ab3HLN0n72E/fIgTth0y5CCOkc6EwIIUEDsiy3QoZs0u/srUw9R+CwnlHy9lxZfs4/q3VBvsNpTErzPOoJBzwbL2svarXD5ZtuGICEI5Z2aHkuXtca7pzxReg93PeoQxamZOyWBHutQnZKjwk8G3dLNG1iaohrwL3MP80BXYQQ8hB0JoSQoAG5CSV3JkudRg/LE05gTmASoKR13d7qji53C2+TXS6frPKct3ksUn46S64XhNMIHFuTfjH/5mxzW1yjd4zuG1Nlc5wYONB56PMLOZ6HPI3ZpUmVrdfCqcNR1aJqSzP70fyYw7pCFyGEkFboTAghwQSas6JOlp3TJW5NWtl9wJz0jJLvduimdbpMlqM8r4GxuVag2t1j0qZHlHy9TmpsYfP9PYDxu5YvH68yt8U10Lq/LpU7gZ/Zj96ra5CNVyw4k9065OlqWFlB1LSuUfbc9ryxCVo3bZ8cue/7o0sIIV0POhNCSJBpapacct3l8IUEq7PhjYA56RUtfdbK/juaPEE5PngGuJodN+TJWM/OpGe0zD/ZIRfU+UDTo2fG77aUEXo7VXsy0KBKlfWSeNTzUC5Yl+iDalzDyAoCVPZSnkzd66GBRkZo7WU/jEgkhJAuA50JISQkuFEg327THRVNitljPB4l7y6S5GOaPPFh1D5OiTton4XvUrIpnojRPcvD6Pt7g6YWWXxGnvZkvWDzfpwkS844zgocqE9BlX27dE/OBMJ905WOjtYLCpllumO9lRW6Fp6xZ+Ec5xFCyKMOnQkhJCTQUVX5MmSzpi+gkk262U10s2/H8ZOZ8tlaFdYQhbYmL/xDXaP0Xed5lkv3SPnzQl15ybpKxoGoRlOzNDTrqCrfUjoAZ+FclGAUgjK9LebQPd0Kxv0KXfAtPaNkSnrAVTKacKdYN0H3ON5pfJo+Ejg+7Kiokw1XLK3QNfekzksJO+tFCCEBgs6EEBIqNLXI7SL5cp06Da/MiRHdI+Qns+TT1bL1iloI6HgV8Z40X22D/BGq3e3loNpRpanpXuRkcGlUAKLzTJak35H9d+VCrlTXW6pSK+pJWlTmXsmXfXdk7x05mSl5lQ6TY13Nwgl8bu9VU7tcY+hW+0JYjvPaBQegIUaghl4FLOj5HJmwx7MzmbpXx31Zb2boAG98KEOnkZha5BrJxyWrXLuREEIIoDMhhIQKkGeQrVDefdZ4scmJc8Bg9IyWlxLl89Vy8I7ul4IC3cs+eJhXEj2MdMJfUZ/5p1RxWgFXrLbJpqsSeVDl6eR0Hbw0fZ9ueX7wnmZprChRHAPXdCZbp2TgXJQwJV2m7dUy119Wz2M9mVBQpZYDPWNql2v026hrKLv3TvhrQ7Mu2Qyvtf+O7LnlXey+qavlWpn+Hns4XBfVhSnFjcOdMjXKNRKOqhsPx7wQIYQEAjoTQkhoAVVXUCkDN+o6tl5NiG8NI8Xx2iwdG7bxstwr0a/eofLhKyABofhbhTd+gML2uN0HPNITMbLlqiVngvIr6vS78Alp5rQA1DZcyvorOrXAPVD/EOX7brc96gklLzit49ac2+KGKps6AY/NRHy+VrLcbkxu+KX9d3XF24l7tCbjvYxxaVoZjwkTHJN6IlydCR6zq/kSd9jcKNdAN17KozMhhBAHdCaEkNACqhhCDfp41DZdrcsknS0GvARcTY9IeS5O/rxARm7TnRmP39eRM3ApMBjGWC9c6E6x52QCSnsyVo7e1wyMR6rqZeV5uy1pKy0AwT11r47LQgXa0//4Pf56Lkelf5uFQNaP2y1rL+lGim5cRCvwElEH5VkLqwt8uFKXImhPKMMvldXpddE6dRdG2OvjVZia02aggehGi0mqUMN4rmYeMzfKNSIOyKnw2eGeEEICDZ0JISQUgVa7VyKT98irM3VBW5OAth7d7JPXH4/SpMc782TwFh0cteK87t938K6czZbNVzxPf4czeSZObhTqKCb3wCZcyJEZ+1W4mzRoa0Cap5x0N7sABqCiTscyuSkE8f1+HU9lxSzVNWr+4cdJ5na5xt+Wap+0KZRRK5Sz5Zp9ioinsVgdj/FpVpNUIQjubHa5pJwwN8o1pu3TAX5WbiIhhDwK0JkQQkIXyLvEI/LWHF8mxLsGXIoRsDrPxskvU+QfS+VvSzwXjgNem6WV8fjdNrzGRguLMs04IKfb/6YcuvZafrsJk9bAVbZf1xSNR2yNsuaCvJ5sbpdr/GGBHG5HKKNWd4rlh/3magQoJqTJ3tvhKtnRV8XVOuLO1CjXmJQuu2/RmRBCiAM6E0JI6ALtXlglay/KP5frmrZ+8SdGtA73gkuBVzH91RS47p8X6tR8j86kqVmWnPM8YGlyuhy4264eha49nOE5NQFnsvKCDujyiK1Jdt1QJ2Zql2v8aq4e2WbFGppVQ6PmpmoEKND8Ew88J6lCk5YWdYx4EkyNcg00c+v1cJ1OQwghfofOhBAS6lTb5FSmzol/MkZNgkcj4ffARd9dKPkWnAlMxbLznp3JlL3uxvCgkGMPPDuTcWmy+qLO4PcILqTOZK65Xa6BY3Zeb3sMFX65/LzWylSNAAUudDLTc4eHJnAmeGiXWnEmabL5mk4EIoQQAuhMCCGhDpR6faPkVkjMQZ0s4XFaiN8DzuTN2ZJd4VkoQ5JuvW43FS4a1DkiD8rZnHZLQ3tvFek4H/fzTCBq026pAvYITMW6i/LGbHO7XON38+XAnbYtEwpZfM7zQDV/BVp3sP20UoiDx6CkVvd3NzXKNSbukR032raChBDyCEJnQggJA1rser2yXr/Rf3+p9I62j8Ly3+Au9wFn8nSc3Cu1NAP++H3dfsTdDPjdMuu43C3RbQfbBLq2ol6X8HLvTGBdzmZb0u7wdQtP6VoCpna5xl+WyOl2MhW40MYrMqmzcibGLJowdSZ4VvMqJfWkuVGugbu8P2wNGCGE+B06E0JIeGCYE2i4B2USe1DenqszTzrHnOAqT8XqnHUrCrK0Vuad0qFWJg1qBGwJHIUxtaAdY6K/hzfYc9vd0CmYlkVnVf6iTzxS1yDxh+X5eHO7XOOfK3QjjjZXDcYvYYSs7Gvul0AHrrkYrskEeM6MEvWfpka5xg/7deRemA5aI4QQv0NnQggJMyDjyut04aYBm3SE0hOBn3wCZ4Kr7LI26gbVu12ke3uPd9lpEXZi0h6dGA1H4R74jRqbLDmrM85Ns01Q5oQ0XfvY2KHPgjHREV+4LppgapdrfLpGJXWbyRxUqaxW5p5Uz+BxIk3HA301/3QY77R4vUDij5gb5RpRh+R8++P6CCHkUYPOhBASfkA5Q/wVVulmfP036pK+j0eZRbYfA86kd4wsP2v1K3yI+GsF6iuckx5Q81P3yrrL7nYycQbH5FfJpqv6tXqrOUEhMDyQ7LAldZZVe0mNfLvd84aSiL4bpKCq3erh9zcKJemYh2FmfglcIulouDoTOI3zueo6TI1yDbgXeJg2k1SEEPIIQmdCCAlLIJ4hlGsaNEGx9qIM3SI/nyNPBGb+SbcZOnIs/pBVoYy6QZvCVxzK0IFbqy7Imks60flkpu6hjmpbMCZ299Wi2aGz2bLzpi7DtfKCfYPIe5JZpuW3WCnFDo7vt9GSeRu8RRMs7ZVstOt6oZquafvUI41D7PYuYDlgtDxmXXDA9/vVfVluZQjR0CzHM7X+pka5xsxjklHarhUkhJBHDToTQkh4A1Fna5L7pTraavpe+cN86RWte5XoEC8/jfJCIT0i5cu1XqQpDGAtamyasiir1ZVhrXsJZ3AWrltaq+XANrQ3b94N57Ll/WWe1zRDp43d5Vkl44D8SvVLm66oRVlwxruYf1pmHreUdZmwRz1VOKp23HSYyUkW9n6Zc8LqZCFCCHkUoDMhhIQ90HVNzSrfi6p1uNHWa/LtVnl9li7hBTkOi2KS4D4ECnkhwRcRCV+BU/D/johPnKsl2MNbcAosxE9meugH/PX5BJlz3HGWG1AFtAhusLLe4Ze8CuMe6Q73LjLdFOPSJP2OPTvkuHLYgOdk0Zl2V0FwjnmnNY3mw20lhJAuCZ0JIaRLAZEH0VxWq4mClBMyYIP8bLZalJ5R0iNKx3p1t3sVhJFRsZ5U6RmtaxY3NIWTUEZvVNsk8oC9vS4tcg50y89TZOcNx4mBA66mvE53dDHN7HeNsfbllXURs7AS7qjs9UKJOug5LwRvtvQcJ5kQQsj/oDMhhHQ1IGQhfxubxdaoX9Jfy1dHEXNABm2U9xbpXo3PJ+gqwL3sduXxSKtTUx6PkvG7fB+UFRSgejNKdJEAU1tco0ek/HmRXMl3nBg4cGtqGuw75VtwJpPSrS4YECKgpg3Ncvi+59bBlkxOlz23wi8jRAghgYPOhBDSlYHsgzpvaNKxXgVVmkjZfUOWnZXoAzJ+t4zcJoM3yRdr5ZUkz8kTGJjfzJPssBLKtiY5kiG/nWdui2v0jJbP1kpxjePEwKHavUmOZlhIKezWSfYH7voytSZY4Nkoq5W1l8xtcQ00P/KgLsxFZ0IIIa3QmRBCuj4Qfxr2XEprQO9CIlfVy70SGbbFc9qku30mxrZrem64UFGnQ9qeijW3xTWeiZOo/bonYyeAG4E+n7rXwgpdu3XSvMXFmkMB2OCsct3NxtQQ1xiXJrNP6EQdQgghrdCZEEIeaWAzYE5mHvMwQRwB69IzWpcnLqkJD3OCSt4vlU9Xe16VC/FSomy41HkeoKjavlO+hSFPMw7I3eKwmYxR36hJKiurck3YI9vs05YIIYS0QmdCCHnUgepNuyUvxFuabfLzFNl3OwwEZYt9JYC1l+Q5C+3qNkN+Oksu5HSeAaiyya6bupm9Sa+7xsQ92gq4x9AHdrW4Rrfn9zhQDQH3cpV7LBJCyMPQmRBCHnUgKK8VyIcrLOUWnoyRYVslt8JxbsgCyVtaqwmT7p4aBd+ChvfboOq/0yb3w9pdytPt7U163TWg8mMO69T8EE9ToevQqP131W5ZGaU244C7TS0JIeTRhM6EEEJ0gFbEfl2ty6TaXeOxSPl1qqTd1LFSIasqUTFbk6w4J0/HeU6Y/ChCnoiR9Zd0NbNOA72XVS6ppx7S620GVP643boFfmcaJx9Ai4qrdd93zzP77S1ac4EJE0IIMUNnQggh+m33kXvyx4Vm1e4a3exT4UfukMKq0J1tgopV1svfFtsXRHZpgilwzLsLO3vyDDxGlU02XfWcXjAi9rDmWDrTO3lLQ7NsuaaLiVlJmEzcYx87F8JGixBCggKdCSGEqCjPrZDhWy1JecTv5suuGyE6GgdVKq+TuSc0BeSxLTjg8ShJPhqEDQ1xubM5OqDLyqwMKP5VF3XefAh2OGhqloxS+2pjFtqC9iYc0WXQQtbZEkJIsKAzIYQQBSpxxTl5NcnzIl0IGJj3l8nx+5psCTV5iSptuCw/nam5HVO1XQONfXWmbkYZFJVcWCXLz+sqVSbt7hpjdsnUfXLkvu5LE4LmpLBad3OHfTJVu82YuEdOZKqZoTEhhBATdCaEEOLgYo78fan0iDLLd9eAoIc5+XKd7ssRUkOMbPZNDNGKx6MsLTXWM0pGbteBVUFRyei6c9kSddDSmC4cE3dYzudoG0NH08PRldbqOK4p1hIm43bL3JN6SmgmfwghJLjQmRBCiIPyOkk4LC8kmOV7m9Fthk4cH7PT/i2+o4Agg2qcz9Yt7VExU23bDDTh7bmy/07nbWNiAuq8ql5WXNBtB00Kvs0wxkHBDYbOOCiYun13dOK7qartxfR9ciYraB1OCCEhDp0JIYQ4aGyWjBL5ZJWuomsl4dA9QncLiTkotQ3B/woclb9fKqN36I7vVgakoYGPRcrUdF1RKohTseExLuZanW0y5r9bpxeEwPIDuOMNTXIhV6IPWao8AvVfek5ny4SOsyKEkJCCzoQQQv4H9P3Gy/JMnKVJGojukfJyoqy7qN+CB0tu4rKwFsU1MvOoOiVTDdsL2JK/LdHv74M74QGXrmmQ1ResTtKAuMeRKy5IRX0wDRVsCR6VzDJdacDKIC4EDpu2T85mc4YJIYS0C50JIYT8D7gLCOUxO3SehknKtxnd7Obk1Zmy5IzU2ByFdDJQuqW1En9YekZbNVSIV5Nk0WldXDjoKhkG416JTNpjabYJAhJ/wh5ZfFbyKvV+dX79jWzJ7WKJP2J1HBoChmr5ec320JYQQkh70JkQQsj/gGpsbNa1qt6YrVkFk5pvL3Dka8mSclwH6nTmal2GRM6pkGnpOrfEygg0BA6D7/p6g9wp1sYGHaPPN16xtHu6ETAnEPqpp7QJnbzeMbxQtU1THxEHrA7iQqBdUYfkXE5IdDghhIQsdCaEEPIQULkQuwtPy4uJnvcDMQKH/ShCXknSaRs3C1V9doJUxiVsjXIlT4ZtUadhZW6JEd0j5a0U2XZNBX0nSnp3QO4XVsmsY1ZHRiGg9cft1lMu5dnNiaOkgFNSK3tva9LGq6pO3KPWS9dAC5EeJ4SQkITOhBBCzDQ168aLQ+2K32IiAgHF/1y8DN4sh+/pklOB8yfQ8Sg8r1LdxaerNVti3ZagOc/Gy+Q9kl/pKC0UgF5Hi67mS9wR9RsmZd9eQPGP3S2Jx+TYA91RRDs8MD2OUtHntQ26xsCmq7qjovVsCQI2Zsk5ySkPFR9ICCEhC50JIYSYgYKEzD2aIe8t9mJMlxE9IuXdxTL7mOrsQMyCQIHVNjn5QKaky6/mWp0PY0Q3+8CzrzfoEmSoW6hR1yjHH+j2JiZl7z7gT6bvk2Xn5WJeoHblh1MtqpaDd2XOCZ0PY6qA+xizW1cmyCwPxQ4nhJBQg86EEELaADKyql42X5HfztOMhMVhXQhjNd6XE+VfK2TxaZ3b3eCnZbuaWnTYEgxP7EH540LNz3S3trpxa6Bif1mks2gCl17oCOilynrZfcvqroWtYUw7iTksKy/oaDr0kl+W7UIXwZPUNahfmndKNy0Zt9u7io3dLT8ckCv5XI+LEEIsQWdCCCFtA6FcbdNlYWEzrK951RqwAS8lymdrZPs1/cbd1iQNzapQUawVV4BDcBgOhouAt8HpmWWy7KzDk1h3Sq2BJryUoMamM+foewsqll+lY58sLiLsHGPs61/FHpbt1+VBmWZgjN622OGgtc9hbNDtsKborsVn1ZN4ZUiMMPzS0fudPUefEELCFzoTQghpG0OnwpxMSNPtC01C32MY0+Ifj5InY+U3qfLdDs3AlNTqdAVj8xM3ahV/gqrGYbj63WJZflYGbdQZ9k/E6Ggx67NKWgOVQRO2XA0DlYyGPyiV5OOacIDZMMl992HMPJmwRyany6zjkn5Lssu1ybAZHjrc6HP7WmeV9XKtQNZfloiDMild3YVXs0paA9XYdl3XksalCSGEWIHOhBBC3AFRW1wt/1krvaJ9sQRGdLdbFPiKn8zSifUrzulX6TcK9av9nAqdjF5YrTtd5FZKVrlklMrlfJ3VsOCUfLlWfjJTevtqSIx4zD41P/Gobnvil2FOAQUVhJS/lKvZj3GW1xF2DSNlAWsx95SupgWzkVmu/YxOKK/TjRrhQCrqpKxWSmq08++V6m70MG9xR3QpLb20T4YEASeDElZekKKaMOhwQggJHehMCCHEHYZQvlssX66Xp2J8GUZlRLcItRawKPAJiB5RanXgOv44Xz5ZKYM3ydfr5R9L5ddz5fl4tTGwIjisu92QIHy+LuKnyRJzUFcbC6Mv72EIL+TqVoa+5SuMgKuBu0AJiHEIu1GJPCjJx3SMFpzD/NOScFSngkywWxEcYxyMs3x2RIgpe2XVRfWZIZ6eIoSQUIPOhBBCPAB52dCk36xPTZc3Z3s977y9gNlAOYZXgVExrEgHTYhzoPCe0fLrVFlwWtM+0PphBDQ9KnyjQLdTHN+B9IVrGF5FjUqrD3E5xudAadP36crCeZU6LI0QQohX0JkQQogloJVrG2T5OfnNPF8mxHdywN7A5/xzuU4Hr6p3NCHsQJ8/KJPl53XeiMkDhGZ8v0/SbklxjaP+hBBCvILOhBBCLGEM66qok63X5K9LHPkNkx8IkUDFekbr8LBz2eqmwncGNire2KzzcHbc1DFXY/2XOfFvjLFvSB97RE5l6gyW8O1wQggJLnQmhBDiBUbmZO9t+ddyndHe3X+Dr/wSOjwsUm3JsC26YXnXGFCEPofcP5ShU0T8O/jKLzHGPoMl+bjuXaNLnzlqTQghxGvoTAghxDsglOsa5XaRROzTHUt6RIaQOekZJb+fL4tO6yJUjSG5naJvNNt3mTyfIzGH/DztpIMBpzTBvgxXQVWX6nBCCAkKdCaEEOI10J/QyrUNsvuG/HOZPBMXzMFd8EW49ONR8kKCDNyk6+1CxHfJAUWQ/oVVOr98+j71A0Ec3GUM35qULjOPyYkHugAxOpyuhBBCOgidCSGE+AjEaEOz7lmedER+kaKDu0yeoXMCtuTpWPnbUll1XivT1HW/uTcMIfzJ3RJZc1EigjTzBLYEvijhqOy+pamSJst7zBNCCHEPnQkhhPgOFCmcQEW97Lst3+2U38135E/8sqyw+4Ah6RGpw8neW6zLGZ/N1j3jH4V9/Yw+r6rX+f3Lz8uMA500vguGBEYI14o/onmbO8W6lnSXzE0RQkiwoDMhhBD/UFQtB+7I5D3y7iKdhm4yEn6PFxPkXyt008BTmVJtexSHErW06A7uxx7otonT9wV8Zjw8SewhWXtJruarJyGEEOJ36EwIIcQ/6OCuJl3i9mSmJByRT1apeegZ5bcpKCgERfWMlleSpP9GWXpWLubqKsaNzY/oN/doNMxJfaNua3gpT8dWLTyjKZQJaf5ZwstYdGviHok9rHu6H86QW0XqhTjTnRBCAgSdCSGE+BnI1sp6uVGocyHG7ZJ/LNO56cYW790REeoxWqObEfaJ7MbPzn/F8TgL0SNKfpYs/1kl09Nl81VdEbimwXE5AuAUahukoFpuFsme27pz/OT0/+3ybgSchiPsQ7P+F//9vfPB8CQRB3TRrRMPdLfH0lodLEcIISSg0JkQQoj/MSZq19iktEa/0b9ZqHuxRx+QT1fJq0nydJw8Gasz5ntHaw7k8Sj1LfAe+KFXtPSOkSdj5KlYPez1ZBmwQWYdlX13JKNU51uX1aoE78LT3H0GHWJ0O/qnok4yyzTLseaSzDmhG6FM2atLaU3co5PXx6ep8UDghwn2rMikPepkcEzsYZl3WqeRnM/RdcCqbJqTQW+jZPY3IYQEGjoTQggJOIZihsathlep1S35TmXKrhuy/KwkHZaJu2XIJhmxVX5Il5Tjsvaizqe/kCNZ5Zp7gb2x2cUxrYhXoLvQaQ1N2u11jbpKQU6FXC/Qnk+/LZuvyIbLsu26HLynM+nvFOuyZjUNeiSOx1nscEII6XzoTAghpDOAyoU/QUDywqUYAQVshO2/P2g4HeD4tp5f2PsEOs1IpLRGk73/zfHwMQh2OCGEBAU6E0IIIYQQQkjwoTMhhBBCCCGEBB86E0IIIYQQQkjwoTMhhBBCCCGEBB86E0IIIYQQQkjwoTMhhBBCCCGEBB86E0IIIYQQQkjwoTMhhBBCCCGEBB86E0IIIYQQQkjwoTMhhBBCCCGEBB86E0IIIYQQQkjwoTMhhBBCCCGEBB86E0IIIYQQQkjwoTMhhBBCCCGEBB86E0IIIYQQQkjwoTMhhBBCCCGEBB86E0IIIYQQQkjwoTMhhBBCCCGEBB86E0IIIYQQQkjwoTMhhBBCCCGEBB86E0IIIYQQQkjwoTMhhBBCCCGEBB86E0IIIYQQQkjwoTMhhBBCCCGEBB86E0IIIYQQQkjwoTMhhBBCCCGEBB86E0IIIYQQQkjwoTMhhBBCCCGEBB86E0IIIYQQQkjwoTMhhBBCCCGEBB86E0IIIYQQQkjwoTMhhBBCCCGEBB86E0IIIYQQQkjwoTMhhBBCCCGEBB86E0IIIYQQQkjwoTMhhBBCCCGEBB86E0IIIYQQQkjwoTMhhBBCCCGEBB86E0IIIYQQQkjwoTMhhBBCCCGEBB86E0IIIYQQQkjwoTMhhBBCCCGEBB86E0IIIYQQQkjwoTMhhBBCCCGEBB86E0IIIYQQQkjwoTMhhBBCCCGEBB86E0IIIYQQQkjwoTMhhBBCCCGEBB86E0IIIYQQQkjwoTMhhBBCCCGEBB86E0IIIYQQQkjwoTMhhBBCCCGEBB86E0IIIYQQQkjwoTMhhBBCCCGEBB86E0IIIYQQQkjwoTMhhBBCCCGEBB86E0IIIYQQQkjwoTMhhBBCCCGEBB86E0IIIYQQQkjwoTMhhBBCCCGEBB86E0IIIYQQQkjwoTMhhBBCCCGEBB86E0IIIYQQQkjwoTMhhBBCCCGEBB86E0IIIYQQQkjwoTMhhBBCCCGEBB86E0IIIYQQQkjwoTMhhBBCCCGEBB86E0IIIYQQQkjwoTMhhBBCCCGEBB86E0IIIYQQQkjwoTMhhBBCCCGEBB86E0IIIYQQQkjwoTMhhBBCCCGEBB86E9J1aLHTbMf42fGHTqGpqSnjfub5i1fOXrhsxLkLl2/culNfX9/JNSEBpd5mu3Xn3sEjx/cfOtoaJ8+cr6mt5Y0m4QKe1dy8/POXruBtqvUtC29fdXX1jiMIISQY0JmQMEbNx3+BMaiqri4oKsrMysnOyS0qLsE/8UvHnwMsGVG+zWZbvGLtqPHTvxkzxYhvx06Jn5VaXFIKp+Q4Lmwx+tCE428+4SjiIRx/CnHKKypWrt3Ub+joPgO+bY3xUyPz8gvgiB0Hkf/iuLdt4TiCBAO8N+7ee2DUhOl4m2p9y8LbV0FRseMIQggJBnQmJPyApmlqam5oaCivqLx05fr6Tdtnpy6OSpg9PSph0vcx0IgTpkVN/iEW/0xInr9247YTp87m5uXDORi5FEcpfgXF1tfb4malftJ3yIefDzDioy8Gjp0SUVBYjNo6jgtD0GmlZWUZ9zPv3MtojbsZ93Ny8xsbGx0HeUlVVfWDrGwU4lwm/GRNbS3ukOOgUKWsvHzx8jWf9B38wWf9WwOqDh3SBSyof8GTn52Td/feQzfaiMzsnLC43V0VOJP1m7d/+tUQvE21vmXhqc7Jy3ccQQghwYDOhIQTMAAQfw0Njfczs9dt2jY1In7Qt+M+7z/8330GQR3+6z/9TPHRFwPw1/7Dx3w36Yelq9bfvptRV19vJFIcJfoJFIiSY2fORU1ar44qjZk8I7+wCFd0HOdvjA6B/msN4N/WwX7s3LN/5PhpQ0dNbI3h301KSllQVV3tOMhLzl64PDUibvjoSc5lRsTNunn7LprgOChUKSsrX7RszcdfDm690Yhvvpuck5tHZ+IMnsPaurpxUyKGjf7fXW6NSd/HnD53oTFgL43QwfEidXqd+v1F6gPo+bWbtuExdn7nxNsXDLbjCEIICQZ0JiRswGc5PtTLystXrdvyWb9h+EzF5+hHnw8wvrRu/XA1Bf704ecD/v3FQBz/eb/hCbPn3X+QZbM1+FcZoLTOdyaQNw0NDXV1ddXVNa1RW1sHL+HHr6JxiXWbt8PgffTFwNZAZ8IWVlRWOg7ykqMnz0CbfvzlIOcyR0/8/vLVG6EvVelMLILH/uLla//5aqjzXW6NLwd+u3zNhnqbzXF0FwXvDA2NjXhzqK7534u0pqYWL6vgPi10JoSQ0ITOhIQB+HTHp3hlVdXpsxcmfR/z6VdDYTZaP029io/7DBr4zdgt23fX1tX50ZwExZmg2Gs3bvYf9t2Xg76FzjPi66Gjjhw/5cfMg62hAQoG+rK1XYiPvhgw+YfY8gofncmRE6cHjxhvuokjx0+7dOW6zyPEOg06EyvgFWGz2RYuW+38inAO/H5G7Mz8gkLHCV2U5uaWgqKiAcPH9B08ovVF+tXgkdt27cHr149vQd5CZ0IICU3oTEgYAMFXWla+btP2r4eOhiZ2/ij1NnDuR18M/KL/8Dt3M/yoI4PiTCDiL125+nm/4cYYcSM+/WrI/kPH/Kjv6UxM0JlYAa+IsvKKEeOm4uXm3FGtgbv/zZjJp89ddJzQRcEjkZuX/8WAb/7d53/TOT7uM2j9lh0NjY10JoQQYoLOhIQ0+OTGR3tJadm6zdsHDB/j6kkMpwE5PvCbsZBB46ZGTpkRN+n7mO8m/TBs9KQ+A76xDxl6yMxAGXz29bBbd+75MbGAetbbnQkuh2sZ8eHn6kwKAulMLl6++p+vh37w2f865JMvB+87dJTOJHDQmVgBXXH2wqU+A7413eXWwAsEpnrTtl2QyEEU6IEG/ZCTl2d8fdDadrxlrd+8vaEhmM4Eb0rrNm37pO9gvE21vmXBMnEGPCEkuNCZkJAGn9w1tbXrt+z4esgofHC2frQbgd/0GfgtrMiKNRsPHT0BJXTtxq27GQ/gOqBxT5w+tyNtX8qCpWMm//BJ3yGtpwfMmdhmzV305aARn/UbbsTn/YdPnhFXWBSotbnoTIICnYkV0BVLV64zVjBz7ihTJKcuKi0rpzPpfOBMNm3f1XfwSLxNtb5l4e0rN7/AcQQhhAQDOhMSuuBDu8G+MNSA4WNMKhZy59OvhkIc7zt49N79zIrKKghoiFp83BrgJ/wbbqGouOTGrTtpew9OmRGrk3Htoyn87kwALgpTdO7C5TPnL/43Ll2/eTtwOy3SmQQFOhOP4IGvqqqe9H2M8y3GzwO/GfvpV0Naf4MYPzUSrxG8dhxndjlC1png0rl5+ecuXj57/lLrWxbevmrr6hxHEEJIMKAzIaFLU3Nzdk4u1IxJwsKWfNJ3SHLq4vuZWdD9jqPbB5/BsCgPMrPXb9oOQfzvPoMgFPzuTDofOpOgQGfiETiNq9dvDh010bmLvhw0Yt6iFYNHjHP+Zd9BI/YfOmbruit0hawzIYSQ0ITOhIQo+Myura3TmRsP71WCn/Gb2fOWVFXXWB+hjsOglurq6yHlx02JgB66DWcS5jqSziQo0Jl4BM/Mxq278Cpz7qIJ06LOX7w8bmqk88sZ3bho2erSsnLHmV0OOhNCCPEKOhMSihhGYt/BI30GmmfQQspMj0qELfFNBTY0Nmbl5EYnzsl4kBnuOpLOJCjQmXgED0bczLl4FFv7B25k9rzFRUXF8xavdJ58Ao0+YXpUxoMsx5ldDjoTQgjxCjoTEorg47youGTi9GiTeIWgGTVh+v0HWY2NPg5MhxRA4VXVSriLAjqToEBn4pFrN26NmfQD9LfROXjZ4rHctG1XQ2Pj4WMnvxw4ovXW40+f9Rt+7sLlrtp1dCaEEOIVdCYkFIGC2X/o2IDhY1o/yxEQMZ/2HbJ1x57a2roO7nEOQdAFNAGdSVCw7kyam1tgoSFAbbaGepsNgc7Es93U1NSFPQxeWbv3Hvxq8KgPnVbDGzJywvFTZ/GnnNx8/NxqWoy/rt+0vaa2thNekrgEuh7PGO4D7gVuSH29/b7ojcGdwa3BW4s/q0FnYgJNRp/Yb0GjcQvqcA9a74D9pdHJ3YIL4iWJi6MOjtfpf2sT0Mo4ugKX/m9X6NPoeJvQy9sfyCB0CCHBhc6EhCLl5RXJqYtNahgf7WMnz7iX8YDv0gb46HLjTPzVSfiUpDNxxqIzgZgoKS07f/HKgcPHt+9OX7dpO8TojrR9B4+cuHTlWmlpWZdUG2gUPMaCpaucb+6/+wycFhmf8SATf62tq4tKmGPakHR6VGJxSSkkmKOUgFFdU4M3kJNnzh84fGzXnv2btu1as3Hruk3btmzfvXvvAfz+bsb98ooKP94aNKp9Z9LQJZ8BN6C90N2ZWTmnz13Yf+jojrS9G7bsWL1hC24EbgdeKXi95OUXQo47Tgg8qFJFReXlq9ePHD+FZ2Dj1p14u9u8PS1t36Ez5y7mFxTibdZxqL+pra3LzsnFezjesbfv3otL42lcu3Hb1h179uw/fPTE6XMXL9+4dTsvLx92xXEOIY8AdCYkFLl87cZ3TqNBjPj0qyHrNm6rrKpyHNS5NDe3QDztP3wMn1vWI/3A4erqGp/1B8Qumjx/8crURStcI2XBsojYWZB9zr300ecDpsyIm7tgWeqi5abjTTFv8YqFy1bjw8999ULKmeDub9uVvnz1hmWr1huBnyFonC2BR9BeqOdDR0+0FoJYsWbj3gOHYRgcB7WPe2di114Nt27f3bB5R1TC7JHjpw/6dtyXg0bAQP7n62F9B4/EP0dP+D42KQUS5Obtu1DqXlU+xGlqaoYDgdNw7hw8PHMXLa+qqkbnNDQ07kzb59x7cCZfDRmFHmv0dYimG3DFxqYmPDZnz19ChyfOmT/p+5jh300e+M1YXPSL/t/gXQXV+2LAN18PHY3fT/w+Om5WKmwk3CMeb3X4nl688J9Q1QuWtP0inbtweULyPDgxNNO5yWMnz8DrN3WhpxfpohULlqw6fOykD2K9srLq6Ikz67fscH5Hch/rN++orKp2nO8/8IRD32fn5m3fvW/O/KVTI+K/HTsFtwAvh8++HoZb8Hn/4bgdeGngTeCH6KT5i1fsO3i0sLDYZ1cAQ3jrzj28v6EDWztz4dJVWdm5eI3iAFQJ72x4Vrft3BM7c+53E78fMnICngF4SON56Dd0NCr5Q0wS3mFu3LpT56fF33Fd2AwYkj37Ds2ZvwSOffSE6QPQFYNGoBOMp7HPgG/7D/tu6KiJ6I1xUyK+j0qcu3AZnrFbt+/BWuMV1JXeMQhxhc6EhBx4292yIw2fEM6f5YhhoyedOXcR78uO4zoXKIPbdzO+j0lq3ZXMY3ze/xvHTou+fpBcuXpj5LhpkHHwG64BZW8S90YYvzcd7Br//mLgZ/2Gbdy6w/3nXEg5k/yCwrGTI6DyP+k7BPFp3yGQ+/Gz5nml26AwSsvKZ6YsNAoxAs9bZHzyg0zPU7HdOBOIYCiY9P2Hx02NhLwwPcDOgbbjimMm/bBj9154V9wCv+ieoIOX5/FTZyExnRvbb9h3O/fsb2howAFo6YOsbNy41r9+8Fm/T/oO3rI9zTjAX6A/cS2Uefnq9cTZ8/HuYUpctBc45ov+w78ZMxlnnT530aMkfZCZHRk3C4+Q6fXVGm1e9MPP+uP3piPbiC8Goq/mLV7uw/tebn5B0pwFznu/egy/77Ro3AWY0j37D42fGgn7Yfq+qc2AkRswfMyM2Fl4lnyz7rA0h46ewPsbLtfamXjfuHj5mjE+Ci+6tH2HJk6P7jtoZOuwwzYDhYyZNCNt7wHjdeq4gPfgIcLpaA6c+YRpUXBBzplD94Ejvxo8Cu+Q0Qlztu1MLyou6RpvF4S0CZ0JCS0g0MrKK2bPW+Kq6iLiZmVm5XTCkI82wefZzdt3J30fg4pZDCgPyOiCwiIfvu80gKj6duwUK5/lPgQ+jz/9asj6Ldvdf9yGlDPJyy8cOX46REZrJ6Nz8GntgzOJT57XWggCn/3fRyfef5DpOKh92nUmOXlQDMtXb+g/fAxKcy93EPaLDoSBwYNdUICHJDgPtn+prKpes3Ernivnlo4YO7V1O0V0PrT+iHFTne8+buLUiHibX3c1gTbNzMpOmrPw6yGjIO5xCXR46xXdB47E8Tir7+CREfHJeAk4Cm0LuNkZMTOtq0yvwngyUxct88GZ5OTmxySm4EFFIRbj4y8H5eTlO873B7gLt+7cg+f/cuAIfVFYcIYI1ARHoub9hn6XunBZazbSUagFcN2DR45/+tVQFNVaLAzwhUtXbbaG0tKyNRu29Bs6+mOtkqXXKQzM9l3pHdk2Fy/wzOzcaZEJfQZ+a3SFc93ch3aI8Ux+NQQ+/9jJMx3xSISEOHQmJLTA2/f9B1nQiK5vzYuXr6mtrQvWd0WGM5n4fbSpYm4CdR4zeUY+nYkLHXAmBSPHTWs98QP7N9w+OZOy+FmprZdGQHx8H5WY4aszGTZ64q07d9dt2vZZv2HO7VJJ8d/sFsJVi+A3KGri9OiiopJGX5+T0CE7Jy8yLtl5hCEaOGVGXFW1DuUyjoHIXrxijfM+Rfjhs6+HFpeU+kVvoRCoz8tXb0yYGmno8tbKtAZ+CUmKOwKX23prXI/Eb/Aacb8tegg7k7zoxIem9HgMHAw/4zi/Y+B247UMRzp1RpzpxWJE6y1w6n/zMTgAVZo1d1FuXn5jo9Xdq8B/nckQ53uKapy/eKWwqHjJijWffT2s9ff2S2tNjB9af+8c+Ot/vh526Ohx32YHoSsys3LGT41Cc1wvoVe3V0BzO19ooqy1T0xH4peo+YEj3o1fJSS8oDMhoQXewS9cujpi3DTnt2O8QX8x4Jude/b78JHgL4LiTHQ01/hpn7QzmguBDyrTRRGOTzhPgc/IsBvNFbLOZOA3Yzds3jFk5ARnMYG66ZDx4WPw+0Hfjvt66OhP+j4klYzAb/D72Jlzc/P8OZCm80HHXrl2o/+w71rbiB8+7Ttk8fI1zs8YbvHpcxchsJy74uMvB6XvOwRB2fHXeE1N7dHjp0ZP/B5PqWtvI6AC8eR/PWQU7hpuDR7FAcPH9B08ElV1PR63psaDM9HRXJqWcXmJGWF6zo3AhUyHtR0dGM0VXGeC943rN29Nj0po7y58+tVQ+9wSvQU652TQyDZtJH4DExufPC+/oNC6HG/bmfQZdOrM+fT9h53H9eEA3OI+A7/9esjoLweNaPMVagTuBR6VrJxcH1xBdm5ehP0habOB2hWDRw0YPnboyAnDv5s8/LtJQ0aOx/vGF/2/MX0thWrTmZAuD50JCS1stgZ8okAlmN6O8ZFw9MRpx0HBAJ8EOXn5K9dtikmc4xpQAJHxydBkzmMD8JHTQWeSnZO7ev2WuQuXp8xf6hqzUxd/H534b5ePrknfx8yet2SOy/HmWLBs3uKVZ89fcq8F6UxMtOlMoDmGjZ5oyAjji94RY6fiEhu37jp09AQ6+eTpc5BEi5evnRoRD03sKjjgvZeuWt/BsexBBL1ab7OlpR+AnnZuF17LR0+ccn7GcLOKikuGjZrorNLwGEfGz66t69A8Y61Dve3kmXMjx001KXJcCxX7cuCIsZNnxCalrNmwJX0/7szpsxcu4T/8tGvP/sUr1uJV/N3E76FTW2/QJ30Hu3cmxSWlO3bvTW3nRTpn3hJcDpVxbix+/m7iD8mpiy28SJemLlqOt0Qf3kNKSss2bdsVNyvV9GZlRFTCbIhg02vQX84EzzBeqvHJqaaXid6FLwb2Gzp6WmQ8Xgtpew8dP3X2/MXLuBE7du+bt3gF3rvsnf9QrXAWjCv8rb46rD0ebToTXHrdpu0jxk3DL9FwNHboqAk/xCQtWr5my460PfsOb9+9F88AXrbjp0XCopg6x16NwfOXrMRbovWnFEfW1dVv2LJDJ7Q8XOAnXw7G2+D0qMTlqzfsSj9w+NipcxcvX7tx6+q1G2fOXcQzuX7LjtnzFuN9CXcKbgr1R8BU05mQrg2dCQkt8NmzcetO6Dznd3C8HUMuQLY6DgoS+DCw2Wx1bVFbW1tWXhH18DeU+CTroDNxT0ND44U2Vw0+eNQv3z0b0JmYaNOZOMd/vh4WnTD7zPmLVQ8vy4af8Qhl5+bhCR8xbqrpLAR+eeb8Jdw7xwlhBZqGnpmZstCkBYeNnpSbX+DcDzgSPTMzZZHzAwDbAMGandOh3SrxGNzLePB9VIJzHYzA/cKTs3r95us3b1fXtL1cHn5ZUVl1+eqN1eu3jJsSYdxij87EPahSTm4bqwavs68abKwTFSAg4vHidbxDuVBVXb1y3SYofue+8oszQTfCo+5I24s3DdMALZQ/avz0rTvS7KOzHnrOcRY6BLcPnT/o23GmO/jhZ/3hWKyvUdamM8HPg0fibUd/gzsyI2bmwaMnYJKdHzlUA0bi9t0MWMovBnzj+iANGTnBmPfiOMETqPCde/enzIgzlYNnAG84+w8dM3JBbT6QAL1UWFR88vS5FWs2ohDYEjoT0uWhMyGhRXFJ6dyFy0yyD6pxakTc/Qee103qBPAR0ib4PItJmtuZzgQfWsHaaVE/40eMX7V+y6Ztu32IhNnzXT/1u4AzQYvQ/3iA72dmwTe66k5cGlWtrKo+cPjYqAnToU6cT0cnQ9lDtDmODivQrgdZ2eZMSJ9BsTPn4qWBhjuOs3cCHqq0vQcfzq70R/P37Dvks+RCsZVVVbPnLYYebS3WUfLXw6LiZ5+/dKWiohL1dK6MCfypsVFv0NXrN5etWj9g+BgIwdq6esefvQfNCe5Oi7hEm+CFhtc1HmPT/eq4M0EP37mbMWLsVFMCGS+xMZN+sDv26va0OM6FOTxy/BQMgHOP4XR02tjJM1A9K09Im87EKAfFft5/+Ox5S+5mPKivr3etiXZOU1NRUcnGLTtdEx1fDhqBR9f64DqbrWHfwaP9hn3nXAi6fcqMWLx7OyrgOLYNUBkcgJtVVVUNv7Rrz/6YxDkwKm32HiFdAzoTElpAekLKOOt7fR/vMwhvxzAtjoNCD3xO1NXXm2qOT8Gu6kwQEArQWzAYPoSrYkB0AWfy7y8GRsTOvJfxwKN4gjjbvnvvwG/GOp8OJddv6OhjJ8+Eo+yAFjx05LjpaUQv7U4/4JoFQgNv3Lrz5cD/LayMH/BExSen+vZiQYFQk1C0EJ3OjxZ+xksyJjEFd9aKom0FB5dXVEJT4rGs68CiYSgnNPeAR3cFyJk0NDQsWq4vEOeS0fyvh4w+dea8x7cm9InNZjt09ITruttwiRZXl27PmSDwDmmsD+6x8/GJk7JgmenD6NO+QxJnz6+ptZpGKyuvWLJirckt44UPe+N+ZQVXUGG0PScvv7zcn5uBEhJq0JmQ0EJnCsbOMs2dwIdc4pz5EHOOg0IPfE48as4EgQb6HKaiEF3AmQweMf7IsVNWNmyGYEU5CcnzIFJbewM/oDnLVq2vqKxy+0VqKGKzNcyau8hVxmVl5bRpCSCwJs+IRfNbD0bzR4ybWlBY5JWFMMApNbW1E6dHP1ygeoBvvpucX1Do7SsCDwluAbTj/czsjrx+HzVngk6Do7PPuHso1YCS127chv600mR9dZRXzF+8wvQqQyFTZsRZ2Q613ZzJf/oPHTXh1NnzVuwN3vrOXbg8eMRDm/OgDpO+j8ET5TjIE3jLwsv844dfF99N/P7W7bs+PFf2x1KzPI5/E9IVoTMhoUVmVs7kGXHO8gKBz6fk1EV1HRhTEWjwgfEIOhP/Rrg7E9zupDkLSkrLoBwch7oF1Thw+PiA4WNMGg7yOuN+ZoCemQCBttTW1vYf9lBb8POIsVNtNlubOqq8vGLpyrWmboSiPXritA9PL7rr5OmzeEqdK4A78lm/YecvXgnicsyPmjPBvTt4+JjptqLtA4ePraiotPjSACjn2o3bpi07UQ5+c/zUWY/d1qYzwc9oYOLs+firlZ5vwr3TPWHmtJaAwL3DO9XV6zcdB3niQVb2DzFJeHtxLmRqRByef+u9QcgjBZ0JCS0yHmSNnRLhPAAdgQ+Y1IXL6+vpTB4CH950Jvg5FJzJh5/3/2rIqN3pB1C4dbFZXFwy+YdY52cG8UX/b6C9/LvtYEBBg9H/5y5edu4TPPwffzloycr17Y3Ir7fZDh493mfAN62nID7rN3zR8jU+fAeB7vohZqZpgVo8G3P1fcMWRAn4SDkTfRusq5sRO8v0SOMqq9dvxjuJ4zgLoN/wIp23eIVzOajqJ32HLFq22uMNbdOZ4BZ8OWjEoaMnLD4PaE51Tc2KNRtbSzAKgTs6cvyU4yBP3Luf6fpd25QZcXgbCbu8KCGdA50JCS3u3Ls/wkl6GvGfr4ctXLbayiAZKKTSsnLo19y8fPeBY4qKS/yl//Qj+RFzJmjdv78YCPXpQ+Bz2lkxGBHWzgQtGjPph2s3bjkOsgbU+eIVa503fUN80ldlXCiPXTSB/kRDUhctd/5iGPcX7Tp34XJjY9u3Bsr42o3b3036ofUUBF4+0yLj8fJ0HGQNCM3snLwBw8c4P1T4+fP+wy9duYZnAzV0HNrpPGrOBG+qEO7OQhzlfznw2yvXb3r1poSicHz6/sOmDUbwc1R8ckVlpfuua9OZoFbDRk8qKiq23u14eLbv3ut87z78vP/XQ0btSj/gOMITeDJdd5XBY3/7zr0AfS4QEu7QmZDQ4tade0NHTjQ5E3yuL121HurHcVD7QM9t27Uncfb8uFlz3UfC7HlLV62D0nWc2THwUfdIORM0re+gkTFJcxLnzPchJkyLslf7IXMS1s4E3R6TmAJX7DjIGmjssZNn+g4a4VwUahI3KxVXcRwU8jQ3t5SUlkHzOevRDz/rP3z0pJKSsqamtr+fhmQvKCxKmjO/9RQ96/MBQ0dNPHH6rOMga6Abjxw/ZepGVGZqRDyEsuOgIPFIOZPmlhZYwa8Gj3JuLMofPy0SN6K9J8ENKM1105UJ06PuZjxwX1qbzgSti4xPNq0U55H9h4991u9/yyrghy8Hjti6c4/jz57AS2P+kpWmt4v+w7/bkbavprbWcRAhxAk6ExJaqDMZ1Y4zsZAzgTSE5fj0q6H4EHIf+NAaPfH7O/fuO87sGI+aM8ENGjcl4t79TAgOH2JX+n7TN9yIsHYmeEQXr1hr5RF1BrI1Kyun39CHVhRFi0aOn15YVOw4KORBK86cu4jn0Plli5+TUxfX1NTir47jHgZ3od5mW7dpG14yzrIP5azduA031Lp8tNlsy1av/6zfQ6kn3KDV67cEPfX0aDmT5uadafs+7z8cvrS1TJQ/Z8HSikovJpm0cv9B1g/RSaYFUb4ZM/nU2Qvu3yjadCYf9xm0fM1G+8QnL7odpverwSOdH1HczfWbdzj+7AnYD9xr1KS1Ggj08/ipkWfOX6ytq4PFCuJjQEgIQmdCQgv7aK6pzp/iCOujuUpKy+z24KFPsjYD4gAXun3nnuPMjoGPlkfKmXCnRZMz6Tt45LZd6VYW/HEGNYFwGTJivHNRuJsQ2VnZuY6DQh50PjrE2WAg8ISkHzjsUXwfPnaq//AxDwnZ//RLnD1fFxKwLNeqqqojYmeZ7shnXw+DprSSaA0oj5ozWbB01Sd9HyoTP2/YvMPiqlwm4M+TUxd9/OVDQ6H6DR29K/2A+9da285E17A+iD95VY8Tp845f42CHz79auiq9Zsdf/YE6omaoITWahiBrh47ecambbvgvvCmB3+ioI/sOE4m5JGEzoSEFh2cAU9nQmfiEdwsvzsTKI9jJ8/40O04ZdL3Mc7SHIGn6MatO2EhUFDJ6uoaaCxnCYifvxw04vbdDI9NwAsQzceLsfVcBEq7cu0mxJrjIE/k5RdOmBbl/NJDDB45Xgvx3wvBNx41ZxLvWAjbUSDiw8/7HzxyAjfCh8ZW19QsW70eVqe1NMTn/YfD6rifItieMzly7KS3j8TJ0+cGfjO2dddIFPhp3yEr125y/NkT6JOCouK4WXNNyzMg8J7Td9CI4d9Nik6cs3l72vWbtysqK/E5AjODN7SwePkTEgjoTEhokZmVMzXC91WDS0vL4pNToc6hAx4O8x4adCYWoTMx0aYzGTJi/NVrN3y40Y2NTXhsYMWdbyIezvMXL0PTOA4KYdDky1evD3p4y0jUf8qMOBgGx0Htg0do1txFps7sM/DbtH0Hra9OkXE/87uJP5jeNCZMi7bPRgjIS886j5ozmREzs1XEG4GGn7t42beW1tts6zfvMC0RYRgD9yn0Np0J3hvPnr/o7SPRQWcC0Pbjp84OGz3R9IgagQLx+0+/GtpnwLdDR03Eu8Gm7bsuXr5WWl6O5sOl4C2xyZ5NcRRHSFeHzoSEFjnt7LSYNGeBlSHj5eUVcxcuGzh8TL+ho1vj6yGjvhw0wjQkAB8GdCZWoDMx0aYzGTpqgn3rNK+9BFTHrLmL8TQ6Syj88/jJM2EhR+Af1m3aDlHVWnkEHsLlq9ZXWHg8IL02b9/91eCRzqejb+ctXlFcUuo4yBPXb94eOW6qSfZNjYh/0LFNEv3CI+VM0NuTf4hpLe2/ZQ6Ed3Uc4SV4PLbsSDM/XX0HL1m5trqmxnFQW7TnTC5cutr5zgTU1tYtW7UeH0PO9WkN/BKBJwQPBroLdwH3BZUfPXH66vWbr16/iddCbV1dWHxVQUjHoTMhoUVeQSEko7O+R3zcZ1BsUkpJqWelAp10++69M+cunDpzvjVOnj67M23ft2OnOpeJzwA6EyvQmZho05kMGz0p436mD9IBAnHe4pW4urNkwcO5/9BRNCr0nUlZeXlUfLKpN74Y8M3BIydqamvROvdRX287e/7y8O8mO5+O5o+bGml9dYoLl64M/24SnknnQiLjk7Nz8+DuHAcFiUfKmdTV1Y+fFtVamhGffT3M+r6EJuBMdqTt6/uwccVb3PwlK9373radSd+gOZOmpma8byxfvWHIyAnoc9NbX5uBC+EwHNx30IgpEXEw8HDa3k7fJyQcoTMhoUVxSWnqouUmoQPdNi0y/kFmluMgt+CN2wTE7oOs7CkR8c5l0plYhM7ERJvOBMo4MzvHN2eyaLnr9PGBe/YebGwMA2dy6ep13DhUuLXyiEEjxu1I23v52o1rN2+5j6s3bh49cfrbsVOcT0dXfNZv+InT5yz256mz54eOnGB6nGJnpuTmFwT9a+ZHx5mgLZWVVeOmRLSWhkDhXw789tqN246DvARvPrv3Hvh6yGjnMlHnlIXL8BJ2HNQWoeZMAPqnvr7+6IkzcbPmDvx2nOlxdRO4IuLjPoOi4pPPnL9ofZQjIWEKnQkJLaprajZu3Ym3fue3ZnyQj5n0w5VrNxwHeQk+iqAap9KZ+ASdiYn2cib3H2T55kzmL1nlmjPZdzAMciao3rZd6a5jVD7rNwxmY+yUGeOmRniIKRF4aUO4O5+OQIGr12+prq6x0gPnLlyy76by0OMUlTA7hzmT9gmAM5GamtrxUyNbS0PgremL/t94uwNpK3jz2bVn/1dDRjmXibe4eYtXlJVXOA5qixB0JqC5Wb8mKygsOnzs5NKV676PThw0Yvx/vh6Gu4BHwqNXgTkZNWH69t17fVvojJBwgc6EhBb4KDp09ITpowhv2br/2qlzjoO8hM6kI3RNZ1Lq93kmE/Es+aCDIRBnz1uCp9FZQuGfOs8ktDc6QN2qa2pSFizzqKh8CPTGtMgEaDgrU3euXrs5YuwUdJpzCZB9mVk5AXrpWefRcSYAfmDi9OjW0ozAO5LPXyrZbA1qfQc+tIcmDMbi5WvcTzsMTWfSCp4KvHbuP8g6e+HSzj37FixdNT0qcdC349D/eE5wCSNaa94a+Gv/4d+dPHPehy9BCAkX6ExIaGFX29cgUp3fjvEe/eXAb3fvPeA4yEvoTDpC13Mm+FAvLimNmzm39dKIDjqTISPHX7t+04cb3djYBI+E/nQWIng4z1+8EuLiA429c+/+lBlxrdX2Y+DO9h008tqNW1ae5Lv37o+e+L3JmUz6Pube/cwAvfSs80g5Ezjz6ZEJJkn90ecD8JbuW0ttNtumrbs+7/9QSu2TvkOWr97gfqnGEHcmAB0C143Hu7a2rrSsPDev4G7GfVxr+eqNcHd9Bnz78ZcPjfBsvTreqaZHJeBdiOaEdFXoTEhogTfr+w+yvo9ONL0j43N92eoN9T7N/8NHEZ2Jz4SeM5necWeSX1AYlTC79dKIDjqTgd+OPXP+ImyG4yDLoL3fRyeZugKVuXHzdhBlqxUgrA8fOwnR5lxzPwZ05MYtHratMMjKyR03JQKd5nz6t2On3Lh1x4c74l8eKWeCxsYkzjHtRoWGnzh11rf3wNq6ulXrNpsG9/7n62FrNmx1v4dm6DsTV+xepQlGpay84ubtu8mpi/Gu+++Hs6lGfDV41Pbde9FGx5mEdC3oTEhogXdnvC/PnrfEWW0bgc+8nNw8H74owts9nYnPhJgzKRw94XvnE/FzVPxsr3oYj1BWdu6MmKTWQhAddCZfDxmVtu8QtKbjIMtAeQ8fPclZfOBuQlHhiQ1pXyJSWVm1Ys0GqL3Wmvs38IxNmREHbeq4XvuUlZfjSOeXHuKL/sNPn7vo7a78fudRcyaz5y3++OHlHD78rP+2Xen19fU+NLaktGzuQvOCKF8OGrF15x68LzkOaotwdCYAPaT+pLkZjhrvDHfu3o9KmI23dOdWINAhkfHJeOwdpxHStaAzIaEFPrvw8bZlR9rn/Yeb3o5HjJ2KzxUfNDedSUcIKWeCzhw/NcrkTKZHJUJmOY6wAG7HLfvW462FIDroTL4Y8M2qdZu9XTanuaWlsKio//DvnItCi74ZM6WgsMhxUKjyIDP7++gk09ZDeBpHjps2fmrkhGlRXsW4KRGf9H1IR+JnCHp4UY9fRtTX2+YuXGZ6RCFD8TZSU1PrOChIuHUmDV3PmWzYohsjmu7jwmWrq6qqPd5HV7Kyc6PiZ5s855BRE44cP+U+YxCmzsQZtShNTbl5BQnJ8z7r99Bek3jRTfo+2sqbFSHhCJ0JCUWuXLs5ZpJ5U2d8um/duafae6nRhZ3JpSvX/qM64H/tgtTYs/+QHxP9IeVMCouKcR+dHwx0MnStV84Elzh97iLUf2shiA46E4iVmSmWNgN1Bg8G7uBXgx9a7wGyIzpxTmlZSH8higf+/KUr/YZ956z8EGMnz7h7735dHV4N3lFdXT1mSoTpkcCraXf6fjzM7hV8Q0Pj7r0H+wx8aD8+3NC4WalB70bI8bz8AldnsmbDli7pTE6cOvvloBHOjUX5M2JnlpSW+eBMrt+8/R0+CB5+KvCM4ffu31S7gDMxwJvVrTv3TPtX4u0X/h9tcRxESNeCzoSEIuX/f3vn/dbEtrbhv/Pb194euxTpPSC99yIIIk2kbkGEjaACgiAqooiASBfpSE0joJ5znslk50wGCAmEPYHvua/3B0jWrPqutd5nMmVrO6+w7F+W0TAittjkTOEqFzu383OsTMYmpmRnKBFq1Dc+gZxwVMjjVMrk+9p6UnquTLL6q6J1er3tXmHY3UUgK3t92wmVCZwzIi515qt9ZzHRtxgs+Q2+1zwf1NSrNfaJnH8Swdt3DM2tbQgZ/+/vakMeY1wycu/iq2ME3Agla+ubZIEyMkxIzYHOsZ7hz5+/xsanXL0t3noB74JwmpiaQUDsqLlwDFA61NEVN5kycS8qqzreXXOO4jSUCZqDldbdV4UGmvNE/vhkembWrtMH6Jefv3519/ZddfeX1hAWn5q9+n3Nus45N8rk17//rdZoSitqzK2AwZc8/MO6et6YEhFyvqAyIc7I3t6Pjq4e7GfS5RhbwkUX7/bOnt1d+841nl9l8hOhsGzn/uOqh2ODHqdSJusbmzn5xdJOhmGTnptftP2MLDIpLq9GmCLN5ITKRIwVXr56a0pkG9tqjXgduTSry66+Xd2vDQZrjx5SFnT12vpGVt49qePhb0isusfNx3M8zJEv45OXXC2u4USv3vAMxOS1PrgoUaPVYa5Jj4XBSxW/aAo1R92uewRKvR1/p2blQ8LZ7rQO55SUiVarE55GYPmr5oXrXq1tnXbdhWUcUy0EgDkf0TCmuYWlR94+dG6UCYCTPGpq+c1iXri5eoe0dfaYUhByvqAyIc4I1uLV72uR8WnQD9KtBatzRFyq8AI1e3aX86pMhHbNLbj5qqRdhAqkZgtBj6OiMadSJmqNBjGBLJS/4RX06s076weaQbeMTUwZrxW0KP2EygRDgE9KHtQgMrP9HP3A4LBvSKTsYhVVZOLE1IxdJ5j/YVC36a/fMILSamM0EcB9/DR8PMfDlN/eVsseb4BeRVD7tK3ryLeaYC40Nj+V3amCAM4r8Nb019lTmoC2gHbp9HqvwHDpKKONodFJ+Pz8KRNohodCthbnDrDY3opN0enteD+g0cdmZW+UR79hsrc87zgyn3OjTNBSLOaVtY8sHdvdMyCs57V950EIOStQmRAnBfvHi65XV9z9LCMV4bFFWXlFOzs7tm/qYgR/LpXJ0vJKWEyydNMS2hUaA11nexBgHadSJtik2zu7ZZf5XXTxvldaacuPDOgThIONT55hmKSdBjuhMhEtJDJhaOSIJoigJru7eyXlNftv+y4ur97ccuqXFaDmbS+60e3masN+v3ITumJza/t4jgc5hxmEtlvOdzf4M5T2kV2K7lpb3/C0FAA4HAMdm5Klt2e5MIOGYIqd8AlaQrt2DPGpOWiIuWJChO0ZuLBk3xkWx3IaygSgnxcWl4w3v1nML6zbkAoQDLZ0JtLodPqGv1plPoY+DA6Pw2JuSnc4zqNMjF6EXjnmW1Nx4Mrq95z8YnMrYFh+/UOj3w98MiUi5HxBZUKcFKzj2NFlsT7st0tuF655VtTWa3W2npzGVnQulQk2rY3NzZyCYunui78vu/liUz/yNLONOJUywbcDg8MuXha3jBvjlfixiSlTosPB4eOT0z7BEdIeE80hykT42aS8GiHykVHI3t4eAougW7HysXP17ex+few45p8BgX62cE2dxd0+f1zzKCytEC4jNKWyD7QX0+R1X780goehT7wCwxGcoU9MSQ8Ch6NLHzW2/GG5XOBwaL8HNcJyYVeXGuvza3l19XZBCaaA6VP7QT44vLz6obRdqBUWisKyCgWvNDslZSK0d3c3WXiglsU4YsXwVUUtLi1bH0eAHIQfTGZmjXrAYomA0rh3v8pgOPoJeM6jTLBIzszO6fR6lHuMsYaHDA6NYG00twKGYYpOzPg2f7RCI+QsQmVCnBdRUdz0D5UFK9iuLrn43CurmptfQJBkZcUXNzm1WoMoMDgiXprJOVAmKFSv1yMak96IDEP/hEYnomk6nQ5Fi2EuMB1mJ06lTNCcr9/mYpOzpAein1G9uyUPVr+vHRjq4RN0wu7u3uzcPHb0A1+u7BBlghZdcfNrftq2va0+zC0xGqgJdFRSeq4sjEae+NCWOigIGoUecPNVyYYPYV/P674jf9ywAnIWrk70CZFeUg+74RXU1fPmyJwxxN/X1kOFVy5ansu47H7tZkB5dR3cA8JJnA6mYw4CCfb2fsC3h0ZGY5Mzr930x9Q2fWc/KAue8Ppt/wVLDYC/r7r7oQisTlijTjhJj8EpKRPw48fPvv6B6x6BsvairJSsO0vLq1hSDmupcZ7uzi0shsem7F/2IW6GR0ZtWU6dR5mMjk3eikmGku8fGFxeWdXp9PDkI50Q34l+CIWWlJEruzrOuP1VnsQtCXFmqEyIU4MNpuV5h5uPxa0UMPx74bpXZHxqR1fP9NdZjVa7f6HH4o9tYGJqBrG7nypaFkidA2UCsHuJvyHI+gdBQGhUYuvzF+ic1dU1RD8I2ZEY+6HMrG+QwKmUCWqLsa6oqd/vD1fc/XLvliLi3y9OEPchmH734SNkCcYdiRFbyKSFQ5QJDJkjtq5//GRpaeXAcYdPDg6NpGXn/77v7c6eAWGd3b3QLaakzgc6Fo169/6jTFPBrrr7r5z4GkJIi9QsoWekOV908SksrdTrj37lIoa+f+CTb0ik9HCY6B6ZuYV97z+urW8gKDcdsA+4ysbm1vDnLxU1dXBReAuiW1ve9mgF9AlEkVdguMzh8S8+rGtoHp+cQsyK2WQwCMJJNkNhJ+zVAzk9ZYIWaHW6wtIK2TiiIITUGbmF0GP6gx6mh0/QCe8HPmFtEeep9Fgs+PerHtp4cZ3zKJOR0THvwAgsL2h7QlrOXy3Phz5/wXBDgFlpCAZ9c2trcOjz7YJiWVfAPPzD3vYPWHFjQs40VCbEqcEmh0i0rvGJ8UmU8n0On1z3CES4+aC67nnHy+7evv4Pg9h7sGojwmt+2l5Z+ygiLhX7E4IA2eKOrSI4PG5y+quppMPBTobNsqPrVXtnjxV72tYZHCG7f9cVW1rDX61tL7pliaWGnHvf9K9vbJrKs5Ol5ZXs/CJZoCx0zmX3656BMUkZtwtKSitqHzY0Nz55JjN0EUJ56zu9UykTAJfofdu//0oP/IuIIS4lq6GptevVGwi28cnp0bGJD4ND8I2isips5wi80DNoS3xqdnC4xW9oJ1QmCMLMr3FAzyMKyc67B2X4aeQzxOHi0vLc/CJE8pt3H2rqHquiEmQnQcVa3blXdrzXPvxjwFUMu7sFxeWyyYh/MQ0hDEzpjotWq2toakEMKs0coxYZn7awuGRKdDjCcqHRNj155uIVDBeVZoKhQT4+wZGofMuzDngF3OMbRmVpBTnPfP32ZXwSuuXJs457pZWYyPAlBKMYF4SzupMpE4BAvKK2HnlKq4TMUavLbr5hMcnZd4qKy6tr65se75ukWD8+Do3Y6BUYIKxX8LQj1ytMiuTMPFnUi/rUNz6RpdxvCPqtXF8n1gHdGxqViGllzlzMH4OrikrELHjd9x6Lz9z8Alaw2W/zn79MdPe+hfbwCUYcb/GrJv5GPWMSM1ZWj3hYsBnnUSbDn8c8AwRRigOxSuBYKGcMNxTpi5e9A59GpmZm0QfQrtDM6Iup6a845OWrN/AH35Ao2Q+8+PvCNc+8wjLjmysdr1cJcQaoTMgZYHNrG8ExxIl0jZYaPr/o4u3iHYzIIyAsFlHvVXd/WfAkNSH9De/CskpsBqYyDmd3dzch/TYyvOzqe5hdEsxnf4nYkFAxfCVLL7Urbn6Bt+KwG5nKs5Mdg+H1237/0GjpBV22GDoB22Td42brm72zKROAqAh7s6xKZoMwuOEZ6B8ag3D2Vkyynyr6itv/nkWLP1SRCT2v+1Kz882HwE6oTFDinaL7ECfSDy+6IMqKh1hKy85PzshDjwmn4S1bLRpCMUjokS/jpjKcFbjK+saG7ElT6FJES1DgtoyddYw/egy6WT4uHH6Cfnv15p0p0VEgyKuofeS27y2QZoPn+KmiIhPSEtNvp+UUpGbfwdCHx6Z4B0XIHvsGc4gyQc8gUodDHlalwwzp4Rt3Sx7YqPqgCrBeVT98bH29gmFRQs6y4mBYr2Qp95urdzBUnPWnAOt0+o6uHt/gSOl7YM0G//HwD4uIT03OyE3PKUhMywmLTsICfuCiDQcICIuBPPv5U/gByVSAVZxQmZirIRo+uXrTPyA0JjYpMyXzTlbevZz8YixKMUmZqshEdIW5RKmhf/AtfMlGhUbIWYTKhJwBsJesb2w+amr1NJ72li3WomHDgGG5F026IUkNnyOqvu4RWP+4eWl5xZYfxLHTm68Csm6ysswmSyYz1BahHoJyU3l2gi1KrdEiLtz/s5J1Q9FnVJkgJPr4aVh8wixaIc1ENLFX0RswaRr8i15qed6xuLyScfuuOT3shMrEOyh8YHAov+g+PjffJoFyEYH9fuUmnBZmrIww4uajxDQoGgHK0MgoPM1UhrPy89evd+8H4AzSsUMTEOZOzzjg4bzIAUMQm2zxsArk/68b3pV/NqB0WwJTZLK2vtHU8twrULgcS5qVaMhQdA/0vDg0+EPmKma7cN3r5MoE1d7ZMUAPQycftoIdaEb3sE+ZGHZ3y6uEG+5xrHWTlSWaLM2BdsnF53Xfe+tVEtYlteZpe6fwXOxD9IZxCMz9L3Q+TJoG/yKZKirxbf/AjsGOJ6E7vzKBia0TO+EPowldIaxaBy9rSABZMjI6buVGHULOAVQm5Myg1mj6BwYhEhArHLZ2WzGkx1F/XPMICIt52/9Bozng1pQDwU6PKPzArcUhhpwRph9bmYhsb6vbO7uhcLC3mWMs612Eb8+oMsHAIYh/8fKVm1GM2eIJxtG/6eIV1NHVs61WQ+hm5hZKE5xQmfiGRAnXa01Op2TmiYG7LbVCMoyXf2j08Mio9TPQTsKPHz+L7lehztLWoRUhkQnGF7mc9DwulMfW9nZJebXsB0AUl55TAL1hexGY4FACkHzCjLBtOKQmOIxxdDwDwhx1q7FOp+97/zEiLgXOI52kVn7txLeog73K5H7VQ9nkcqxddPE+UpmIaLS69q4e4wVaBwu/wwwpkR4dFRqd9H7gE+a7XbG4M91nMu4bHAVRgeb8dtSafKDhELgidq64lOwv41NomilrQs4pVCbkzICgBGGrWq1taHp6zcMf24yNWx3SICXS+6mimlqeb2xuIQq0PcQ5E8oEzUGgsLS8ChXhExx5ycXnwjVPczRwYC/hwzOqTIAoTrp737p6BWPXt+4GKAghDkZ/bGISzUFosuFoZeIXErWwuIQhWF/fuFdWaf1iQpjok5dcfQqKHnxfW0er7Qq8FAE11Or0/qpoWW+jIWWVtfbGjgeC4+GNrW2dFyxf8wILDo8fHPoMaWRKehTGGfFjW60Rf04UH41lyxWPxqERrk+76aeqftiwtmGHHLIO8sFAQ1+hgdByGH00E8LD+iQ908rEOAp73+YXcgpKcJRwHmFfbvtNbLWLd/D9yofLK6uIxe11LedRJhjuxuZnkfFp1zwCcODvtp1JMZu4dqECj5pa1jc2z8RCQcgJoTIhZwxxq5tfWGp88iw+NQcB7nXPwMtuvgidsYKbfhC/6oG/sS1ddvW94RXkFRgenZjR0NSKo3DsMTa53Lul/qHRiD5PwxDqxaVkj0844ClhYudsqdWDw5//am27W1KRlJEbmZAeEhHvp5LXH+UGh8c97+iyficl9kIEUsHIQXpsaAz6RKPVmRLZyYfB4biULFmXpmTdGZuYsv01LBhH1G1uYTH3bpngBh4Bog/87QAecIArbn4uXsFh0UkPG/5aWfku7usAmqqs8k9p6QFhMQXF5bY8mEit0TQ0tUBHSQ9PTL9tvCdYyFyn17d39UQnpiMgRgVQDVTG7JaIz67e9PcMCItPzYayUqs1tjdZWdC06ZlZKFJpw2EBoTHvP35CwIcEpqQnY/jzGKa2zGPDY1OEN/3bGVaKM2JhabmmvhHRIfzkBpYLV1/joJhcRRiXqx6QIpewXHgGeviHRSWkIRD8NjePKB85ODYURIbwQ2i80bGJZx1dxeU18HwsUKrIxAMWGVVUYFhM7aNGG+NpDAH02OPmp6e3XsGwGgwOjdg+Fqi8wbD77v3H1Kx876AIF6+gA4bAuGJfcfdz9QnxDY68fbdkaGQURx3PqVDiuw+DQeFx6EBztYNuxX0Zn0T/mxLZxqfh0ZikTKyWpnxUQvObn7abvj4K0QP1Oztz84sdXa/yCssCw2KhNG54BmEdMO9c/+sHkyv6XPcIxAKiikqsrW+amf0G5W9vzQk5o1CZkLMH9iqs0eJuhyX7WcfLitpHCCvTsvMR7WGPR9SLzT73bkl5VV1nd+/c/AL2BuM7A2y9gVIKDsGhKA478WmYyPE24P0YO0fsH6HOIrISRRM5crcTMjQ+bEd+7LE6U0TMEEjzPMboGBsrvABh5uu31rYX+UXlyZl5cclZiCSS0nMRBFT92dD7pn9jc8tYX4v88a+09P0JDkMsVFZ5aW/gD/yPoBahVU1dY15haXJGXmxyJtwSkVlB8QMEjuOTUwaD4SR9qAhC0yz7TWi72HpTEgeAzIy5WpZi7KtjdBcOEcdrx2D4OjuH6LC8ui63sBRjgeUiJjEjNikzIS0nPafgftXD9s6e8Ykp8S1JNvrDMRCqJNbKWDERaWOlBuyqibm9snwcaH/XyOYq/V0rrMMQ8D29fRiC2wUlKZl3MClikjIwEBgOTFhE4RAwm1sHTFi7wHHGTpDP8WNkiEOMh1rkg8xNX9sAcgBCfYxzR6vTfRmfePGyt/HJs4ra+vyi+6lZQj8IO1dyVmLabbhiWcWfT9u7RkbHjGcuTtQVhJw5qEzI2QZL9t7eD8SmiPN2dgxbW9vY+RCJ6nR6BCL4/If4WitTcnIOEXd9uAF8AOO+vr6x+n1Nq9UZHWBPdABT0n8Q1AohBSqAWmm02u9rqNem3uiVRp1s37l/4hDgCfAHLAsYBsiPre1tuAqGBvEf/hXdBXEgo8BTQpyqGAJ0NYYAi/TGxiZWbKzbmBri3MAInO/+F1YGrFfww709cedC0zc2N5dXVrFEaDRakyvuCSKIrkj+H0JlQgghhBBCCFEeKhNCCCGEEEKI8lCZEEIIIYQQQpSHyoQQQgghhBCiPFQmhBBCCCGEEOWhMiGEEEIIIYQoD5UJIYQQQgghRHmoTAghhBBCCCHKQ2VCCCGEEEIIUR4qE0IIIYQQQojyUJkQQgghhBBClIfKhBBCCCGEEKI8VCaEEEIIIYQQ5aEyIYQQQgghhCgPlQkhhBBCCCFEeahMCCGEEEIIIcpDZUIIIYQQQghRHioTQgghhBBCiPJQmRBCCCGEEEKUh8qEEEIIIYQQojxUJoQQQgghhBDloTIhhBBCCCGEKA+VCSGEEEIIIUR5qEwIIYQQQgghykNlQgghhBBCCFEeKhNCCCGEEEKI8lCZEEIIIYQQQpSHyoQQQgghhBCiPFQmhBBCCCGEEOWhMiGEEEIIIYQoD5UJIYQQQgghRHmoTAghhBBCCCHKQ2VCCCGEEEIIUR4qE0IIIYQQQojyUJkQQgghhBBClIfKhBBCCCGEEKI8VCaEEEIIIYQQ5aEyIYQQQgghhCgPlQkhhBBCCCFEeahMCCGEEEIIIcpDZUIIIYQQQghRmv/857952GGyo5udTQAAAABJRU5ErkJggg==;fontStyle=2" vertex="1" parent="1">
          <mxGeometry x="1007.51" y="215" width="214.99" height="110" as="geometry" />
        </mxCell>
        <mxCell id="m3v_cfv3_CRkb0MolT_l-3" value="" style="shape=flexArrow;endArrow=classic;html=1;rounded=0;" edge="1" parent="1">
          <mxGeometry width="50" height="50" relative="1" as="geometry">
            <mxPoint x="979.66" y="319" as="sourcePoint" />
            <mxPoint x="979.66" y="454.59000000000003" as="targetPoint" />
          </mxGeometry>
        </mxCell>
        <mxCell id="m3v_cfv3_CRkb0MolT_l-5" value="" style="shape=flexArrow;endArrow=classic;html=1;rounded=0;" edge="1" parent="1">
          <mxGeometry width="50" height="50" relative="1" as="geometry">
            <mxPoint x="1249.66" y="319" as="sourcePoint" />
            <mxPoint x="1249.66" y="454.59000000000003" as="targetPoint" />
          </mxGeometry>
        </mxCell>
        <mxCell id="m3v_cfv3_CRkb0MolT_l-11" value="&lt;i&gt;push Docker image &lt;/i&gt;&lt;b&gt;main&lt;/b&gt;&lt;i&gt; to Docker Hub&lt;/i&gt;" style="edgeLabel;html=1;align=center;verticalAlign=middle;resizable=0;points=[];" vertex="1" connectable="0" parent="m3v_cfv3_CRkb0MolT_l-5">
          <mxGeometry x="-0.4985" y="-1" relative="1" as="geometry">
            <mxPoint x="-9" y="110" as="offset" />
          </mxGeometry>
        </mxCell>
        <mxCell id="m3v_cfv3_CRkb0MolT_l-7" value="Build FRONT and BACK Docker image" style="text;strokeColor=none;align=center;fillColor=none;html=1;verticalAlign=middle;whiteSpace=wrap;rounded=0;" vertex="1" parent="1">
          <mxGeometry x="1020" y="370" width="190" height="70" as="geometry" />
        </mxCell>
        <mxCell id="m3v_cfv3_CRkb0MolT_l-9" value="" style="shape=image;verticalLabelPosition=bottom;labelBackgroundColor=default;verticalAlign=top;aspect=fixed;imageAspect=0;image=https://opennebula.io/wp-content/uploads/2020/05/DockerHub.png;" vertex="1" parent="1">
          <mxGeometry x="970" y="486.00000000000006" width="290" height="72.09" as="geometry" />
        </mxCell>
        <mxCell id="m3v_cfv3_CRkb0MolT_l-12" value="&lt;i&gt;push Docker image &lt;/i&gt;&lt;b&gt;dev&lt;/b&gt;&lt;i&gt; to Docker Hub&lt;/i&gt;" style="edgeLabel;html=1;align=center;verticalAlign=middle;resizable=0;points=[];" vertex="1" connectable="0" parent="1">
          <mxGeometry x="990" y="463" as="geometry" />
        </mxCell>
        <mxCell id="m3v_cfv3_CRkb0MolT_l-13" value="" style="endArrow=classic;html=1;rounded=0;" edge="1" parent="1">
          <mxGeometry width="50" height="50" relative="1" as="geometry">
            <mxPoint x="1120" y="560" as="sourcePoint" />
            <mxPoint x="1380" y="610" as="targetPoint" />
            <Array as="points">
              <mxPoint x="1120" y="610" />
            </Array>
          </mxGeometry>
        </mxCell>
        <mxCell id="m3v_cfv3_CRkb0MolT_l-19" value="Call webhook when new image tag is pushed" style="edgeLabel;html=1;align=center;verticalAlign=middle;resizable=0;points=[];fontStyle=2" vertex="1" connectable="0" parent="m3v_cfv3_CRkb0MolT_l-13">
          <mxGeometry x="-0.1161" y="-1" relative="1" as="geometry">
            <mxPoint x="13" y="9" as="offset" />
          </mxGeometry>
        </mxCell>
        <mxCell id="m3v_cfv3_CRkb0MolT_l-16" value="" style="rounded=0;whiteSpace=wrap;html=1;" vertex="1" parent="1">
          <mxGeometry x="1380" y="30" width="420" height="600" as="geometry" />
        </mxCell>
        <mxCell id="m3v_cfv3_CRkb0MolT_l-15" value="" style="image;points=[];aspect=fixed;html=1;align=center;shadow=0;dashed=0;image=img/lib/allied_telesis/computer_and_terminals/Server_Desktop.svg;" vertex="1" parent="1">
          <mxGeometry x="1430" y="42.41" width="42.599999999999994" height="54" as="geometry" />
        </mxCell>
        <mxCell id="m3v_cfv3_CRkb0MolT_l-17" value="&lt;h2&gt;Our App Server&lt;/h2&gt;" style="text;strokeColor=none;align=center;fillColor=none;html=1;verticalAlign=middle;whiteSpace=wrap;rounded=0;fontStyle=1" vertex="1" parent="1">
          <mxGeometry x="1510" y="54.41" width="190" height="30" as="geometry" />
        </mxCell>
        <mxCell id="m3v_cfv3_CRkb0MolT_l-21" value="&lt;h3&gt;&lt;br&gt;&lt;/h3&gt;" style="rounded=0;whiteSpace=wrap;html=1;" vertex="1" parent="1">
          <mxGeometry x="1380" y="545" width="188.7" height="80" as="geometry" />
        </mxCell>
        <mxCell id="m3v_cfv3_CRkb0MolT_l-22" value="&lt;h3 style=&quot;border-color: var(--border-color); font-size: 17px;&quot;&gt;webhook service&lt;/h3&gt;" style="text;strokeColor=none;align=center;fillColor=none;html=1;verticalAlign=middle;whiteSpace=wrap;rounded=0;fontSize=17;" vertex="1" parent="1">
          <mxGeometry x="1384.6999999999998" y="545" width="180" height="30" as="geometry" />
        </mxCell>
        <mxCell id="m3v_cfv3_CRkb0MolT_l-23" value="&lt;i&gt;Listens on port 9000&lt;/i&gt;" style="text;strokeColor=none;align=center;fillColor=none;html=1;verticalAlign=middle;whiteSpace=wrap;rounded=0;" vertex="1" parent="1">
          <mxGeometry x="1380" y="595" width="120" height="30" as="geometry" />
        </mxCell>
        <mxCell id="m3v_cfv3_CRkb0MolT_l-24" value="" style="rounded=0;whiteSpace=wrap;html=1;" vertex="1" parent="1">
          <mxGeometry x="1380" y="120" width="420" height="110" as="geometry" />
        </mxCell>
        <mxCell id="m3v_cfv3_CRkb0MolT_l-25" value="" style="shape=image;verticalLabelPosition=bottom;labelBackgroundColor=default;verticalAlign=top;aspect=fixed;imageAspect=0;image=https://www.docker.com/wp-content/uploads/2022/03/vertical-logo-monochromatic.png;" vertex="1" parent="1">
          <mxGeometry x="1737" y="123" width="60" height="51.35" as="geometry" />
        </mxCell>
        <mxCell id="m3v_cfv3_CRkb0MolT_l-27" value="" style="rounded=0;whiteSpace=wrap;html=1;" vertex="1" parent="1">
          <mxGeometry x="1450" y="380" width="280" height="110" as="geometry" />
        </mxCell>
        <mxCell id="m3v_cfv3_CRkb0MolT_l-28" value="" style="endArrow=classic;html=1;rounded=0;exitX=1;exitY=0.5;exitDx=0;exitDy=0;entryX=0.677;entryY=1.01;entryDx=0;entryDy=0;entryPerimeter=0;" edge="1" parent="1" source="m3v_cfv3_CRkb0MolT_l-21" target="m3v_cfv3_CRkb0MolT_l-27">
          <mxGeometry width="50" height="50" relative="1" as="geometry">
            <mxPoint x="1640" y="545" as="sourcePoint" />
            <mxPoint x="1830" y="555" as="targetPoint" />
            <Array as="points">
              <mxPoint x="1640" y="585" />
            </Array>
          </mxGeometry>
        </mxCell>
        <mxCell id="m3v_cfv3_CRkb0MolT_l-29" value="Call script" style="edgeLabel;html=1;align=center;verticalAlign=middle;resizable=0;points=[];fontStyle=2" vertex="1" connectable="0" parent="m3v_cfv3_CRkb0MolT_l-28">
          <mxGeometry x="-0.1161" y="-1" relative="1" as="geometry">
            <mxPoint x="-568" y="-95" as="offset" />
          </mxGeometry>
        </mxCell>
        <mxCell id="m3v_cfv3_CRkb0MolT_l-30" value="&lt;h3 style=&quot;border-color: var(--border-color); font-size: 17px;&quot;&gt;fetch-and-deploy.sh&lt;/h3&gt;" style="text;strokeColor=none;align=center;fillColor=none;html=1;verticalAlign=middle;whiteSpace=wrap;rounded=0;fontSize=17;" vertex="1" parent="1">
          <mxGeometry x="1460" y="380" width="260" height="30" as="geometry" />
        </mxCell>
        <mxCell id="m3v_cfv3_CRkb0MolT_l-31" value="Pull images&lt;br&gt;Create containers for environment&amp;nbsp;&lt;br&gt;Run containers" style="text;strokeColor=none;align=left;fillColor=none;html=1;verticalAlign=middle;whiteSpace=wrap;rounded=0;" vertex="1" parent="1">
          <mxGeometry x="1460" y="405" width="190" height="60" as="geometry" />
        </mxCell>
        <mxCell id="m3v_cfv3_CRkb0MolT_l-33" value="" style="endArrow=classic;html=1;rounded=0;entryX=1;entryY=0.5;entryDx=0;entryDy=0;exitX=-0.012;exitY=0.696;exitDx=0;exitDy=0;exitPerimeter=0;dashed=1;" edge="1" parent="1" source="m3v_cfv3_CRkb0MolT_l-27" target="m3v_cfv3_CRkb0MolT_l-9">
          <mxGeometry width="50" height="50" relative="1" as="geometry">
            <mxPoint x="1340" y="560" as="sourcePoint" />
            <mxPoint x="1390" y="510" as="targetPoint" />
          </mxGeometry>
        </mxCell>
        <mxCell id="m3v_cfv3_CRkb0MolT_l-34" value="Pull images for target branch" style="edgeLabel;html=1;align=center;verticalAlign=middle;resizable=0;points=[];" vertex="1" connectable="0" parent="m3v_cfv3_CRkb0MolT_l-33">
          <mxGeometry x="0.4641" y="-2" relative="1" as="geometry">
            <mxPoint x="70" y="17" as="offset" />
          </mxGeometry>
        </mxCell>
        <mxCell id="m3v_cfv3_CRkb0MolT_l-35" value="" style="shape=image;verticalLabelPosition=bottom;labelBackgroundColor=default;verticalAlign=top;aspect=fixed;imageAspect=0;image=data:image/png,iVBORw0KGgoAAAANSUhEUgAAASYAAACGCAYAAABwryeAAAAABHNCSVQICAgIfAhkiAAAABl0RVh0U29mdHdhcmUAZ25vbWUtc2NyZWVuc2hvdO8Dvz4AAAApdEVYdENyZWF0aW9uIFRpbWUAdmVuLiAwNyBqdWlsLiAyMDIzIDEzOjA5OjI1qFSFRwAAIABJREFUeJzsnWd4VEUXgN+5W7PpvRJCCb13kKaIoAgKYsGC7bNib6AoIgJ2sYANC2JBsQuioIL03iEQQksjIb1nN7t75/uxSUjY3ZBQBGRfHuVhZ+6957Zzz5xz5oyQUko8ePDg4RxCOdsCePDgwcPxaM+2AOcDKhIBIEEIUf27xGFsSgkWi4W09CMUF5fg5WUkrnEsRqMBgXC9Uw8ePLjFo5jqQJUSkFjtduw2O0iQUqLRKOj1eiSSigorq9du5NsffuRoRhZWWwWZGUcIDgni9ltvZ9TwyzF6GT3qyYOHBiA8PqZjVFlAhYXFHE5J5eDBg6xas47MjAwKCvIpKzdjtdrw9/enR/du3Hbrzfz253K8fAIJDovEYDA6lJXFTF5WBj9/Pw97hYXPPvmQ0OCgs3x2HjycP3gUE46hWn5BIXO+/JaVG7dyIKeUUjuoIY3RBkZg9w3FGBSG4heMVHRQkod53c+ou5Yx9NJLGD76ZnQ6PWr1lZSAwFJeypdzPiIqJJAZr01HKMIztPPgoR5c8IpJSgkCHn1yIl+v3Uv0A+9S4ROKAFThPjagSBWRvJ2cDx+lW8sm3Hb3/Xj7BlbuVIXKbe02G88+MY5XX5rCoIH9UYRHMXnwcCIueMWkSolVtdP/9vHkR3emfNMfGHuOQN9rJLIeSkRTmod5w0J0W36lT9sWXHblKPz8/KoVE8DG1X+z5Lef+e3Xn/Dz8TmTp+PBw38CT7qAgMOHU8nQhqDtewP+t7+MeddKLD++glKUdcLN7d5B6C4ei3Lnu/yZaefFF55l09oVWMxllT0k3XsPAKFl8V9Lz+y5ePDwH+GCt5gA5n4zn6k7bGgvug4AjbUc+8GtlC75FK+hd6PEd4d6+IaEaoeUnZT//DpB5VmMvf0eWrRuA4qOTetW8NXH77F1y3qMesMZPiMPHs5vLniLSSLZuH4Til9I9W92nRe07IP3tU9TsWUxFYs/QuSlIahbh0tFg4zrhPd9H1DQ+1bemPMVH77zGkePpBIV05jcvHy2btt5pk/Jg4fzngteMQkEq9euQWPyc26MaIbvtePxbdGV/E/HU7H2R4StwvWOpASporFZUKxmTHGt0bUdwD9LlzHnw3cwGE1otVr2JR3ALtUze1IePJznXPAJlpYKK+lpRwg2eLtstyp6RJOuBNzzNvYtf1D66RN49R6JNqYl0mrGnpOKPSWBkrT9aEvzsZYUYNeZHFaXVo/odxNHs3ciFAWEwGatQFNHtM+DBw8exURJaSnmshKET6DbgZpEgG8Iuv43oo1uScZbd6FqDQitDnReKP6h4BuCxb8RBDerFZETUmIwemEpLcJmtRIVFfnvnJgHD+cxF7xiKi8rQ0qJ3tsXywn6qkKB5t3w6XIppRUSTAGg0VS2unOOS/QK7Nq+GSlVunbtehql9+Dhv8kFP6bw9vXB1z8Aa3ZqPbcQaLVaMPmDRotDIdURsZOS/IwU5n3xGQ88+ABhwYGnQWoPHv7bXPCKyd/Pl1demU7J5xNQ8tIQJ3BM66QV85FDtYZrdWKr4GhaMkGBQTx4/z2nQWIPHv77XPCKSUi4YfQopj4wFvPMO1GXfoq2rMBtf8VqoSzzMNRzaomuMB2DwcCUKZPx93MR+fPgwYMTHsUkBFqNhjHXj2bBFx/QKm0FRTPvxr79L5SKMqf+alayY35dPSfjVqQnMW3ai4wccQUa5YK/3B481AvPm1KJIgQt4pvx1dxPmXr/GIo+eoi82Y+hLc6u1a+iOB+0uvpZTLYKdOUFDOjX9wxJ7cHDfxOPYqqB3WZn9569JOxOICwkGN+UzWRNG0XFX5+iMZdUdrKiNZjq3pHVAvnp+B7dzbVXXUGjRtHU18Ly4MGDJ12gmoOHk5k8ZTrLli1jyJVX8ez0N/H18WXNyn/48tO3ydv4GyE3P4+tKAtp9KtUM9KR8W23gc2CzlyErvAIoVoLIy4bxI03jKd50zhPqRMPHhrIBT+JV5WSPYlJjLnxJnQGbx58fALhUY0QSmV+klQpKizg78W/8d1336Lx8sHuGwphzRBZB/DVQlSQN4MHDqBDq+a0bdOKiIhw/Hx9AYcPy6OWPHhoGBe8xXQ0K5uRo6/Hy8vEhMnT8PULqu0/Egre3iYqzOW0b9mc2JhocvPzad0qkF69H6R3z+6EhoSg02mRyGrryKOOPHg4eS5oxaRKyV9Ll5GRlsqz017H1z/YqY9U7Xz1ySz0Oi2LFvyE3qAHKdFqNLVWTHHgUUYePJwOLmjFBPDjT78QGh5B6/ZdXLbvS9hOaGgIzz87AS+TsTLP26OAPHg4k1zQikkI2Ls3kYsHD0Ov17vss23jGt58dRr+fn4oHoXkwcO/wgWeLiDIy8+jd78BLlul3Yqfn59DKXkiax48/Gtc0IpJlSo6nY4Af1+X7UJR0Gk9dpIHD/82F7RiUoRCZGQU5War6w5CQ7nZRoXVTbsHDx7OCOetj0mVEgHY7Hayc/NISU4lYc9usnPysFgsVKVnabVafLxNREVH065Na4KCgggKDECr0YCArp07sWf3NkIjolwep2XbDuTlFxARHupxenvw8C9x3iVYSgmlpaWkpKexeu0Gfv7pF3bu2ElBQR5SSoSioNFoqlWIlBK7qiJVFUXREBgUTHx8M6644goGDujLzl0JfPXN9zz6zBRchfvzczJJP5jAI+PuRqs5b/W4Bw/nFeeVYjpy9Cjzv/uR777/nuRDhykqLsbPz59GjeNoGt+S0JAQfAJD8fMxoamsLGm12SguKqKkII/Mo5nsT0oiPeUwZaUlmEwmfP38KSjI5/WZswmPjnM+qJSsWvY7fbq254ohg//dE/bg4QLlnFdMdlUlYW8i33w7n/nzvycnJ4fGTZrSuWt32nXsQkxcc/z9A+pVuE0IsFmtFBXksS8xgT07t7F7xzbSU1Px9vGhT/+B9B14Kc1atEGpYR2pdiuLfvqGe++4mbatW7lIrPSgSklhURF/L19JUVExfv7+DB7YH39fz8rDVUgk+YVFrF2/kdLSMqKiIujVravDreChFuesYpJIrBVWZrz3EW+++hrl5WU0aR7P7fc8QMs2HRFCqXextjqxV7A/aR9fzfmIhB3bQAgGD72C2+99GI1WX63w8nOymP7c4yz85UcaxzY69eP+xyizmLnvkSfYu39/9W+jhg9n/EPjzqJU5xYWq5VHJz7P5q1bAEepnXtuu42xY67zpKMcxzmrmPbsS+Kp8U+zcuUq4po2Y+T1t9Chczd8TF7YOf1fmAqLmYNJCSz4cT5bNqwjPCKCG265nZ79BjuWXgKSErax9I+FvDdzBpFhoaddhvMRiaNoXkLiPu544KFabRFh4fz05RzPS4fjOuXmFzLy5rFUVBxbmzAwIIB5H39IoL//WZTu3OOcSxewqypbd+7mpltuY/XqNVw69Eqem/4WPS8aiJfJ54woJQC9wUirdl14fOI0xj32JDa7ytuvv8RXn75HWUkRAM1btSciNo577nuI7Ny8MyLH+YgALBXOa8yUl5efFqP2v4BAcDQrt5ZSAqioqKCktLRSwXuo4pxSTFJKNm/ZyqhRo0lLS+e+h5/ktnsfwdvHdQLkmUDRaOg7cCjTZ7zHRQMuYcGP83l+/MNkZ6QgFA1XjbwWk28AI0aOJu1Ixr8m17lKVQqFu1QKT4pFDdxcCoHAo5dqc04ppk1bt3PrHXdRWlrG/Y9OoN+gyx1LJf3bKBr8/IO59+EJ3HHfA+QczeClyc+wL2EHiqLlmhtvxWqT3HrHXRzJPPrvy+fhvOQc9Zqck5wTikkiKS4t4YGHHiE7O5vHn51Gr74Dz65QQqDV6Rgy/Dqem/4mhQUFTH3uSQ4cSMLX149np75CakoqI0dfT45nWOfhBNSs1eXhxJwTiqnCauWhR59i7549XH3tGNp37Hi2RarE8SA1bdGaCZNfwmTy5rUpEzmwbzdGkx/3PPwkhw4c4K77HqC4pOQsy+rhXEYgUFX3FpPHlqrNWVdMEslvvy/h+/nz6dGrN9eNGYui0Z1tsY5DEN+6PROnvIpdVfngrVcpLsynbcdu3P/IE6xcsYLnJr+IXa17sUwPFzaK4t5i8hhTtTnrislmt/P6m2+j0+u5fuzdqOLcnfbRqElz7nv4SY4cOcKrLz4Ddgs9+l5Kv4sH8cXcL/hy3nwknHcRlip57ZU+EFfSS2QtH8mZPke7VLHZ7dhdrIxcdWxVyjMqR/V1UdVax5E12o/9OfE1sdvr+HAdt6l63LVWa1wHtYG+qppSHr+tlLXP4UxfU4c8juOolfLUfLaqjn1WtYBE8v6Hn7Br+zauueEmomObnE1x6kWn7r256bb/8fns91m8aAFDho/mtrvGkZaSzBNPPEWb1i3p1qXT2RazwZgrKjicksqexH0cPJxMRlYW5nJz9QPj6+tDRFgozZrE0a5NG2Kjozid63dWKwG7SmZWFjt2J3Dg4CEyjmZRUlaO3WYDwNvbRGhwEI1jY4lv1pT4Zk3x9jKe1uifRKLaJWmZmWzdsYM9+/aRkZlNcXExqt0hh1anx9/Pj7jYGNq2aknH9u0IDgyoc78aTf0vWJU/SiJJTT/Coj//prS0lE7t29OvTy/0DQwKVVRY2ZGQwLadCSQmJZGdk4vFXI5dVdFqtfj6+RPXKIa2LVvSqWN7YiLDURTltF9XgLJyMylp6RxKTiY7J4/8gnxUVSU0JIRBA/oTGR569hSTlJK8wkI++OAjQkLDuP6WO88Te1Zw6eXD+XvJH/z07Zf0HTgYb19/Rl1/M69OeZYXp77Ej9/NOy+mGdhVFUtFBXv2JfHhnLns3L0btR7DUaPRSKd2bbn/rv/RJDamel7iyaJKidVu43ByKnPnfcuKtWud8n1cIRDExTZi7I03cvFFvfAyGk9JDgCr3UZK+hHmfPUt/6xcSYW1bjlWr3f8HRgQyO0338xlA/sS4OfnNG1JIuu2mFygSodyfGziJFLT0wH4/pdfufPmW7hz7JgTKg2JdCik3Xt47+NPSDxwALvd7rb/9p07+GXRIryMXvTp2YOxY66naWwj9LpTd63YVZWCoiL+WbWO+T/+yOHUFJf9lq5YxUczXkczefLkyad81JNBCFatWceczz5n8LARdOjcg/OlmL9Gq6d9u7Ys/OUnsrOz6dHrInJy8ggIDOTPP37DPyiYHl1d1xA/V7BLlX0HDjH9jTf5fN63HMnIqHc422azkXYkgz//WU5yahod27alsLiYhYuX1OpnNBi45fpr3e5HSgkCsnJymfnhx8yc/QmJ+5PqfHmOp6CwkJWr17Bq3XpCQ0OJjYk6qa+8KiW5BYW8+8FHzJr9CQl792JX6y+H2Wxmw6ZNrFyzjrjGjYmKCIcaS3cJBLn5BfyyaFGt7fQ6HSOvHIafr48jh75SoalSsmvPXh55eiKZWVnV/SWQdPAAN193rdson2NoBPsPHeblt95l7jffknH0aIPu76HkZJYsXcaBQ8nEN2uGv1/Dcwkd91dgtdv54dffmP7mDP5atpT8wgK32+Tk5dK7e/ezOJSTks8+m4tdVenTfxDyPFFKVUTFtaBbz15s2bCa5AOJqKpK247d2LZ5A7NmzuLaUVcRGhx8Tk74tVgr+G3xUmZ98jElpxBNLCkpYfFff7NnbyJXDLmswdurUrJlx27enDmLg4cPn7QcqlRJOniQZ6dO5/abb2LMyBEYDIYGyZGwL4k3Z73P7j17TloOu6pyODWVL+d/R9dOHWo5cCWyzqgc4thnWUrJrr37eG76K+TmOaeiGNzUp686jt2u8uviP3lv9senFC0uKyvj7+XL2bFrNxMeeYhe3Rs44VhA6pEjzJr9KSvWrKmXNQ5gt9nOnvM782g2f/zxOy1atyK2SfOzJcYpcVH/SygtLmbzxvXVv/XqezFpqWn8uvD3syiZe6x2O+/N/ozX3n3nlJRSFRJITkvjozmfN2gbm2pn6eq1PPr0M6eklGpitpj56LPPeHf2p9jqaXXZpcre/ft5fOJzp6SUapKVk+Nk/AtEnVE5ZGVKgZTsP5zC0y9MIfNoplM3jUbDw/ePQ3Hj4LNabbz53oe8+e7M05bCkp2bw4QXprBg8V8ugxGukEgOJafx6ISJ/LNqVb2VUotm8bRq1eLsWEyqVPln5UpsVitDh119ntlKlUiV9p26YvLxYduWDTRv1R6AuKbNCY+K4rU3ZjDmumswmbzOmWkZ5gorn335NT8sXOj2QdHpdDSNa0KT2EYEBfhj0OspKSvjaE4uSfv3czQru1aEqIr6Dr+qhhnLVq3llbfexuqmbLFGoyEiLJzmzZsTERKEyWjEbLGQk59Pckoqh5JTsNqct7WrKj/8+iuBAf7ccdOYOi1WKSXbdiYwafrLFBQWuuyj1+lo0Tye+GZNiI1pRIC/L4VFJWRlHeVgcgo7didQVl5Wa5uw0NDqYUxN3EfTjkUZ12/eytQ3ZpCTm+vUSxGCG6+5hkv69XL5RNlUO599/S0/1XF/jQYDrVu1pmnjWJrGNcbXx5vsnDwOpSSzJ3Efhw4fdimn1WZj5uzZhAQF0LeXw+3i7spKKTmYms6zL04jLcP9tC0fb28aRUXh7eOLj7eJZnGNuXLoZRj0+tOnmCQSuyrRKApUzjh3J7gQgn/++Qejl4n41u3PE6f3cQgFk48/7dp3YuuWjdisVrQ6HRqtjj79B/HTN3P57Y/FjB559TlzestWrmLOvHku2/R6Pd06deK2m26gdXw8Wq0GRSjUTCAoKS/n72UrmffDjySnppzUFAspITk1jTfeeZfi4mKndo1GQ+PYxtx24w307dkDL6Oh1jLrEonNrrJp6w4++vxz9u3fj60yYleFKiWffT2Pzh060rl9G5fKSQJlZgtvvfc+Obk5Tu2KohDftCl3334rvbt3dchWo+ZXVZj7wKFkvvr2O7bt3k1ZWRkxUVHc/787XT79JxrW791/yKGUcrKd2rQaDcOGDuXu28eiVZyHU1JKlq9cw5yvv3aplPR6PV07deSuW8cS3zQOnVZbS0ZVSiqsVjZv287suV+SdOCA03UtKSnhmRen8dWH79MoJgp3PuGcvHzGPzeJ1CNHXLYHBQZx+eDBXD1sKNGR4WiEgl2qDquy8hqdsmKq2mFmVjYbNm0lJeUwep2ODh060LVzR7Rax0WseVMFgszMLPwDAjD5+J2qCGcNCfTo05f1a1aSkZFOo9g4AGJi4/AyebN02XJGXTUC5SxH6OyqSn5BodvhlrfJxPhHH2ZA714YDIZaj5uo8X9fLxNXXX4ZF/XszryffuXbH753enhPhNli4fV3Z5HvwkLRKAq33jiGMaOuxtfHB5BOL7hAoNNo6NWtE+3btGTxsuV88PEnFB03bLFarTw3bTqfznqb0OBgJ0exqqq8MuNtkg4edJKjyjK55YZrq52+TnIIgYKgRdMmTBr/BEXFJZSVlxEUEIDRaHT9yrrR41LC5p27efbFaeQX5LvsM2r4cO6/8zZ0LtIEJJKS8jLen/O5S6UUFR7BU48+TMe2rTG5iVwqQmDU6+ndvRsd2rZh2YrVvDFrFmZL7aoRFRUVfP7NfCY+/ojLD65dVZnz9TculZIQgkv69eOu28bSOCYaRYjqFALNcYUe66WYjpmlld9PCWVl5RxOSWZXwj7+3riDLclZ5OmD0Xn5UJaVivzgK9o3CuGGa66iT++eNGncGK1WiwCsqp2jmZmYTN4YG+CkPBdpHt8SRaMlLzujWjH5+PrhHxDIls1bOBdywVUpmfXxpxzJdPZZBAcGMnnCU3Tr3JET1QKQUiKEICQ4kHF3jiXI34/Zc+diNpvrJYeUkqXLV7Jp2zanNoNez7j/3ck1V11Zw0JyPLjupPL28uLqK4YQGRbCC6+87jQcy83PY+Hiv7j9xuudtk3cf4C/V650afXdcM0o7v/f7SiKQHDs5alJTYkURRDg70ugv/uP7LEUxuN/h6279vDx3C9cKiUhBKOGD+eBu+/E4CZsr0rJvB9+Ia0ypaAmTWJjmfTUE7RqEY8Qx+6hu+sqhONDdeXQSwkJCeaZKS9Sftz9/XPZP9x5y81EhR+rSVZlWSck7mfh4sVO+9XpdIy8Yhj3/e82hxVcdWzH4MqJ+llMwnHyioCj2bn89MsCPpszh0z8Cbz8TmTXe6GPD16VU0n8pERrKyd5/xYmzp6F/ZlJ9O7Vk/Hjn6BHl05ohCA7J4fw6Fi02nNt+knDMHmb0Go1FBQcC4EqioYWrVqzesUySopLCAo4u0XAcnJzWbNhg8u2cXffRfcunRzO1xMMNaraBQKNENw4eiRGg5HXZ85E1sMpapcqC45LKahiUP/+XDPiSjRCqSVHneVUBGgQ9O7WjXdefol7H3ucsvLy6j5SSuZ9/wPDLx9KWJAj+bEq+3nRn3+5tPZax8dz1223VLok6pahvu1VfVxd3/Lycl6ZMQOb3VkWIQRDB1/Gw/fe5VYpARzJyOLzr792UrI+3t5Mmfg0LZrWSFwWdcvskBMsVhvLVq3G4iKfzFJhIS01rZZiQkrMViuvvPOOk5UFMOyyy3jovv+hO25BD3fPXL2icna7yrr1G7nzngcYcsdjvL6tmJIxb+L3+JfYOl2BzRSIreb8NiGw6UyI1n0JeHwuQU/NY4sSw4iR1/HC1OmoUlJaWkpISMj56V+qgV1q0Gq1FBcW1fq9aXxrbFYry5avPEuSHWNnQiKFRUVOvw8dNIhB/fuCm5fmRAghGHrpQDq3b3/CvhLIKyhib1KSU1vzpk15+L570Go0Jy1Hs6ZxXH/NKKe24pJiFv7uiJBK6bASysrN/O3ivgQHBfPK5OfxOgNWvEQiXaQLSCldKiWAK4cM4ZlHHzxhguPyNWtcKtkxo6+haVxsg2QEyM3P58VX32ThH3+4HBrGREXTvl2b2j8KSEs/QroLqy0yLJz/jb3ZSSnVRZ2Kqerrsnr9ekbdeBsbfdqj3vYWhsvvh7iOqHqTwyB04wQVSJAqik8gfq17og+OZO26dUjpGIv6/hcK1QuHw049LhkvMjoWoShs3eo8bPk3kUh+W7zE6Wvq6+PD3bffgl6nO+mYoQC8TV6Mf+TBOnNrqvouWvyn07BPCMFN144+5WdBEXDj6FGEh4Y7ta3ZsBGrzVZtLSTsSXTp8L6kf19CQoPOSBT1hOkCNVAUhSGDBvH4A/ehr3R/1MX6jZucfouKjGbsDdfVsvzqoipamp6RyVPPv8if/yxzqZS8jF48eNedGAzH7rcjiifYm5hUy2IFh9N+4pNPEBTYsFFDnVLbVZXvf/6NKS++jOofwdE1iyidPw1N9qHaJ+XiK6dYzbD9LyoWvouasR+1RR98el6JyWhqkIDnOnabDavNVl0XvApFo8Fk8mb5irNrMUkp2Z2Q4PR7y+bNCQ8OOeUaQQJB45hounVyPz/QMVEUVq9f79Sm02rp2bUL9Xxn3aIIBR+TieuuHuH0Imfl5FBWbqZKM23fvdtlHtCVQy47YzWTqqLW9WHQgP489dC4ellupeXl7HSRf9W7e1d0Gk29laxdlWzbtZsHnprA7r2u87nCQkJ4Y/pULurdw2mgI4C1Gzc6bRMTFU3rFs0bfF3dKiZVSn76ZSHf/7yAfoOGYlUl9ibdKczOImPWQ1QsmoXITXNYRdXCSchNxbZyHuU/v4GtohzDFfcjOgxC+oUgNVq8vLwQQqDVaCgqcg4Xn3eoVux2Oz6+zin7/v7+HNi/32Xez79FVk4exWWlTr8P7NvntFUHFULQulXLOjo4omRJBw44NXXt3JXAAP/TYqUIAZ07tUd73NCnoKAAs8VhqUkp2VdjJZcqwkNDadms6RkrjCQQaOqhfYcMupSJjz+Kt+nEH3CJJDUtk/LjrBSANi1b1HtYbLPbWLlmHZOmv8yRzEwn61oIQfu2bXl1ymS6tGuDTlM71UBU+qBdRTibxjXGdBKTrF0+mVUlHD6d8wX3PzaRlMMHkFUJdBEtkOHx5O3bjmbp10Te9gJq6wFgtWBeMQ/bgS34D70T20XXIRWNU1RKp9OhCPD18yf7aBZSqo6lmM5TigrysVmtBAY4zyw3epnIz8vFbldRtGfnHLOznXNiAFq1bH1aj9MktrH7RumYUe6qXlW3ju1Om5UiEPj5+OJlNNZK3LTabJSXlSMAFZyGGwBtW7c+o9OH6jOJt3fP3ox/5AGMBn29XmOBIO1Iqsu2oKDAeslllyq//7XMkezqJvWjbcuWvDH1BXy9vd1eIwnkukgKbda06Um5kV0qJgGkpWVgMBrRGbwICYtA2Gp42oVAhDZB+oZw5Pe5eP/9Jd69r0LXojvGi2/GqvNysU8JGh1arQYJREaEkZNbgLWiAr3h1GeFnxWkZNsWx/g+MDjMqbms1GERnurs+5NFSul2WsLpjhQG1uFDEEK4TcYMDQ6ujPieHqVg0Ouqc+eqUFX1hIaQYxKt+9SEU0Ug3JY9UYSgd8/eTJv4FMaaofR6YHahZAG8jCceBlqsVt7/9HN+WrDArVK6ZsQI7rntFvx93PsARbXKdyYqwvFeuMkKcItbW37L1q34+QcD4Ovr50heOg5p9IWo1mgphR4j6xCvMlWu0kEsEERHR5OckobZbD5vFZMQsGn9GnR6PZHRMU7tefkFxDWJO2u1noVwH2073YXxXU1Jqc8QVlXV06oKrHZb3ZNl3VBhtZ7xqUNufUxCYDGXY7ZUoDfo0dTzeZFI3DnnXEUAq1ClJDc/nxmzPmTZqpVunNxGRo8cyV233Njg2k81qa/z/XjcblVYUoKXlxcgUbQ6sNaVRFePPA4psZUUoNHoEALatW1LQV4uedmu09bPB45mpHHowH5iG8ehN9S2EivMZVgrLFwycODZEQ7HA+hqiAlwtEYpjdNBSqpzmFij0R6rSOjGakxOSzttMqhSUlZmxnJcHo1Wo6mLoh7cAAAgAElEQVS2VgRgdBFBPJqVe8YrN7rzMamqyubt23jsmefIy3c9Z88VAkFYSITLtuKSErcfhrz8fMZPfpGlK5a7VEpGo5HHx93PPWNvwqDT1WnxnlBGIaisbtMg3Comk5eR0tJiQICUBLsz1aVE2pwTqmqRl075grcoXfMTfS7qjUBw+eVDUFWVNSuWNVDkc4fN69cgpaRtp25ObRkZ6Ugp6dbt7NVlUoQgOirKpVLYsWfvaXkNq/bhyrHtX5kJLZGYTF4E+Dk/Q+s2bWlwqVh3CODI0UynBD+tTofJZEKtzHqOjIhy2jZpf1Jl5O7MUediBFKSsC+Rqa+/SU5+Yb3vTXzzOJdBjNQjGc7F6qRk5569PDT+GXbv2ePyGOGhoUx7biLDhgyuNf3lZP1vJ3tnXSomCURFRpFRPd9FpUu7Nig5yeBCCyuKa1NPsZph06/kTB+N/5afmPvRu9x60w0AdGzXltZt27J40UIs5c5Ro3MeaWfdymUYjEYaNW7q1Jy0dxcajYYB/fufBeGO4W0yEhbi7P9a5SYpr+FIrHY7m11MM4mJiHBkEiNQFIWO7Z1Xv0ncn8TR7JzTZq38vPAPp697YEAARr2+OnrUvbOzHEUlxaxat/60KcnjkUhEPaJy6zZuZMKkyRQUFdarxIivjw8tmjuXDVq/abOjrrZUUaWKTVVZs2kzD014hgNuyszERDdi9ttvcFGP7ic8bkMQouEKyq3F1LVzR45mHiH3aDoILSOvvZHOphLEtt+QxdnUPJRqr11+QthtsH0JOa/cgGnJO7wx6Qn+/nMRlw7oV50/IhTBQw89iKW8jHWr/mmg2GefXds2krh3D42bNMc/IKhWm81q5VBSEvEtWhAWUr/oyBlDCC4d6KwcD6ekkH4aFuuUEr7/ZYHL8hZtaqQQCOCKwRc7fXlVVWXZilWuXJgNkwPJ1p272bh5s1NbeEgIeoO+UkVCpw7t8PZyDsf/tWx5dQTpdA/rROXIoz7sStzLpOmvkJvnvtJjFVpFoUMb5wjrjl272LUnESEEFTY7P/yykBdefpWysjKnvkIIunXqzBtTJxMSHIKA0+oXPW1Duapx+CUD+/POGy+Rm51JUHAIj42fxNWX9ifw4CpE6i6wWgCJrEypF6odUnZR8tkTmOeOZ0zfdiz9YyG3jLmeoICAWg+llI5M2/CICP7563ek6rouz7mIubyM2e+9jRAKfS+5zClZr7iogMLCfHr1PPvlghUEA/v3xaCvHaUpKS3l1bdnUlrmOqpTFzUtkpT0I8yd961LH0SHdu2q+0skPbt2JjQ42KnfV999R2r6kZNWBhLHYgoff/GFyxpNPbt3R185J1MIgZ+vD/379nHqt27TJpavWXdGluFqyLlJKdmweQvT35hBUUnJCbft26uX0zNotlh49a13SM88ytxv5jPj/fddTkvSaDQMGjCAaZOeoXFM1Ek7q083bqUQQvD8pIlEhIUw8bH7+erTDyjKz+aSS4dyy+330CNMh9jyK8JcjKLVoc89RPGnT5D96hh8Dm/i9ddf4ZXpU/H19XZ9YCEIDw/j7nvuYc+unezc6pw1eq6ydcNqMtPTadW+I5FRjZzaDx5MwmK2cOWwYWdBOmcax8QQERbq9PuW7duYPffLBiuEqg9MmdnMK2/PJM/FrPjY6GjatWlVq78Qgn69ezv1zc3P59mp0ygsKm7w8kH2yrlm73z4GVt37HRq9/X2Zvjlg53kv3TAAKeXucJqZdL0l9mduK/ex68vjknHzh8pjUaDn4vkXHAoynsffZK8gqI6h5idOrSlq4vM+4OHD/PAExOY85XzBF9wXIc7b76JSU89hr+v7zm16madixGYjEaGX3E5MbExJO5J4Ofv57N65XIKCwtp16ETzZs2oTBhLaVp+1G2L6Glv4ZBl15O734DSUs7Qt/e3dHVkcMjhKBTx/asXL2WxX8s4qL+F+Nlcq3Iqrep/FtKlYy0FBL37CA9LQWjXofJ213B9IZmUbgn52gG77w2lbKyMoaPGoOPb+1SF9YKCz/P/5KWLVvy/LMTXNbP+bfRaDSEhoSwbOUqpwc0cf9+iopLaNeqFXq9jvrMlZc4LK6pb7zFWhfTTAx6A5OfHu9Y4kkcmxsgBISHhbH476VOlSvzCgrYlbCXFvHNCQwMrPdQosJm5YtvvmPed/OdXl4hBGNGX0PfXj1r7U8gCAoMZO36jeTm11aqdrudTVu2EREeQUx0ZAPmmtX9hEkkWTl5/HrcYgQmLy+efeIxjmQeJdtFgmJ+QQFp6Ufo3qULRqPe5d1RhKBVfDxLlv1Ta3UZx30qcamU/Hx9uefWsdxwzcjqeY6nkmAqkXzxzXynfKiL+/WleZM46leD4RgnXCVFr9fTvm1brhl5FTfeeAOBQYGsWb2SpUsW0Sy+JRcPHkaXLl3o0qU7cU3j8fHxRQiF8nIzRp1CXKxzfk9NdFotcXGN+eyzOWgUhXadutZ5gRRAoBIb5otOLWP6lBf4Y8FPrFmxlNCISKIbNXbeXh5b6O9ULr7NWsGsN19if+Ie+l48iHYdnaNxu7ZtJGHHVmbNepf4Zk3PicUIFCFo0jiWA4eSOZSSXKtNVVV2793LzoQ9tG3dqjq7113VxwqblaSDyTw9eYrLukoAPbt1Y+z111ZHAwVUO8GDAv0xmfxYv2mj0wuTmZXFyrXraNyoEWGhwWi17ud62VQ7Wbl5zHhvNvN/+tHlxz4oMJCnH30IX2/n5ECdTkvbtm1YuHiJU8i8pLSE5atWY7ZYad6kCQajvlYVzerrISV2VaXUXM7KtRtZuW4DRoOegAB/J2tMIMjJy3e5Ssr/brmJS/r3Y+WadZSUOvuAklNT2bsviX69e6PT65zujRCCAD8/Uo9kuJxuczw+JhNPP/YoI64YgrZ6xr9jsYQyczkHkpP5ccHv/LV8BY1iognwO3Exx7oUU9O4hufyNWj5Jr1OR8f27Rg9eiTt2ndg/rffoDMYCQ2LdOprNHpRUVZI544nLokRHR1FcEgYsz98n/DIKJdRrirKykoI99XSsXUzmsQ1ZtEfizmSkcnDjzyMYq8gaX8STZq1qO6vFXaOpB7k84/fY8eWjZh8fAkKDEBpQAkGcLzA3335Cf/89QeRjWIZdvUNLjO6F/38HU2aNmX8k4+g0zk/RGcLKSXNmzflj7/+psJFne3Mo0f5c9k/JCYdwGg04G0yOapZCkeYOzsnl50Je3j/08+Z8/XXpLup5dwoJpapE8fj7+fn9gsZFxtDwt69LgvXlZWXs2zVKrbu2InFbMHPPwCDwVCdh1RUXEpyWipffPs9783+hO27nIdv4IhWvfT88zRr4uJDVUlQoD/5BUUkJCY6tamqys6EBP5ZvYbDKamYvLwcHzchsNlVSsvKSDxwkC++mc/7n87h199/Z8PmzSxZugxF0dCpfVvna5ydx6+/Oyumq4ddQUxUJAP69GHXnr1k5zhXPsjMyuJwcgq9e3RzVIRwoZw6tGvLlu07XFpeVWgUhdFXXUXPbl1R7RKz2UJ+YRGZR7P4bsEi3v/4Y+Z9/yMbt2xh7759rN6wiYv7XoSPd91z9+pSTM3i4hr8HgjZwMypY8smS7bv2MXd9z/EsKuvw9tFiVxpzmPCYw/Va782m4277n+QVavWMOWVNwkMjXben5RsWbeMe2+/kaDKiZ9pRzLYlZBI3z49sFgqGHjpUJ6Z8iomb18CfIx0bBVLQX4ePXpeRHlZGYMGD6FR02YMvmJUvTPOpZT89dsPzH7vHXx9fbnmpjuIjjl+bphk2+YN/P37L3zz7Twu6XdRvfb9byFxZGLv2befJ597nrx81yVcwfGQ+/v5ERIUhFGvp6S8nNz8fEpLS+tc7SIkKIjpk56lY9s2bvtUVUPNPJrF+BdeJNFFfaaacphMJgL9/Qnw9cVmt5ObX0BeQX6dix8YDQYevOdurh52ORpF1DmIKCgqYuKL09m8fXudSYSKEBiMRny8vdFotFRYKygoKHB5PVq1aMFnM99COW4OaMK+A9w+blyt37xNJua+N5OY6ChUKTmcksKkl15l/8GDLuUZOugSnnnsEbdlZhIPHOTJSVM4muWs9GtiNBgxehmRqsRqtWKxuJ7LCHDHLbdwz9ib6tyfXaoMvuoaSo+bIjPlmQkMHjjg9FUXcEeVSa5VFDp1bMfcz2ZT7MLbD1T6LOqHVqvl7TdfJ7ZRDK9NfwGbi696cX42WM3VSgkgJiqSoZcOxMdkIjgwgDvuvI0jKYdISdpJl1aN8PcxERkezr333cuQoUP5dPYsenVpz/dff1LP85Us/3sBc2a/j0ZRuPq6W1woJcjLzeH3X77jjjvuoP9Fzg7es43AUVe5bct4nn70EQx1KGUpJQWFhew/dIhdiYkcTklxLI9dh1KKjIjkvTdepb2L0HUtOSqHRJHhYbz4zHiCAtynU8jKgoJpR46wKzGRvfv3k52bU6dS8jIaeeHpCYy68nK09VjiOsDPjxeffZqW8fF19lOlpLy8nOycHDKPZpKXl+f2ethsVpcWgttJvJV9FSFo2rgxM6a+QKMY5w8zwOKly5j5yedu5YxvGscHM14jMsJ5FFMTs8VMQUEBhUWFlJWX1RmJLD9B5LauYMXJph6cUmxQEYKWzZvSo5tzRKCwII/oyIgGOfr9fLyZNfNtSouKWPDDl7VKqgAcyciga+eOdaaDBPj5cSQ9FY1Q8fF2ONJ1Oh0vPPs03371OYEB/lwzcgSpyckUFzovJlgT1VbBbz9/x8cz30Gr1XLl6DE0imvm1E+qKqv/+ZPGjWN5cNy91VMPzqEgRzUCwUU9u/PWS1Np0axZjXK5J4dGo+Hifv2YMW0KjaKjGrSj2Jho5rz/Lv169zkteTNtWrbk5cnP0693zwYNHQL9/XjjxRe4fPBgt+u1NYR2rdu4jKK5S7B0JCBWVc2WBAcH8doLz9OujbPlKaVk8Z9LsNlcK2chBBFhIcyY+gKX9O93ysGXyPBwRg6//JT2cTJpIKd0Fxw1ZhS8ncohSBJ2buXSSy5u8APfKr45c7/4nL//+I2kvTuOO6BCTl6u24dfSsm69Zs4dGA/wy8fUvl1dlSYFEKgqSycZdQbaBYXR0mJs6OxCpu1gvlffsycj2aiKBpGXDOGdh2cHfNSSrZuXkfKof189923REc6sp1VVVJRUUFxSQmFhUUUFBZRVlZ2mrKtTw1FEXRq15YP33qD0Vddja+vb4NfSI1GQ0xUFE89+CAvPP0UTWIboQgFpUF3XBAWEszLk57h0XH3ExUe3uBKDIpQCPD358bR1/H2y9McNeXrYSnVlkIQEhTIM489zKQJE4iOjDqpihAGvZ6+vXoy7n+3u2yPjghzKpNrNBrxqTFz3/G8KjRuFMPUic/QKKaR0zNn9PJCcVOpQOBYvSWucSwvPD2e58Y/SbMmTdCdoDzv8RgNBjq1b8cbU6cQE1W39VWFv7+z9RsYEHhSybOnHMu2WK2oioHQkCCysh1Ot9KSErp36XjSpTV6dunIM08/zdTpU3jx9VkEhzomKkZGhPP7j19zw7WjncqU2qVk7759/PH771w65Eq8vNwPVVSpkpOX57ZOTElRAR+++zob164iMDiY0WNuJyzc9c3Jzcli+V+/M+WFyTRv0hirzcbmbdv5bdEfZGZmUVRcirm8HCntVFRYCA0JZdCggVw94sp6RTvOBFUF501GI4/ceyfXXj2cNevWs2DxElLT07HbbC5NewH4+PgS37wZ11w5jE7t2zkCCSdp7VTZalqtltEjhjGgTy82bN3Oz7/9RnJKap0ryXoZvYiNjmbY0KH06dGFmMjIytU/Th6dVsvQi/vRs3MHNm7byYJFi9izL4mSUvdy6HU6AgODuKhHNy7u35/2bVq5rTzp42NiwEV9+fMfx/xQg8HAPbfdho+PtwtF6rB8Pnrrdaa88np1dUiTlxfjH3nohDWOBKDXarls4AB6d+tCQuIBfluymK07dpGbl1trGCpVR2q2TqvFz9ePvr17MnTwYNq2bI5RbzjhNa1anOLm60fz5sxZ1asgd+/cmXZtWp/U89Fg53dNVCn54pvvkIYgQsLCOXwgieLiEtau+JPXpk+mRfNmJz1EqLBaeeqZ50hOy+R/4x5Ho9WBVJk/90PuvmMsPbt1qf6SqFKSmpbOkxOepXW7TpSUm7lm+GX06e48gVYiycnNY9DQETw//U28fWsoTynJzEjlw7dfZdf27TRtHs/Qq0YTdFytJYlAEZKiwkK+++oTRo26msnPPs3efUks+XsFVqmlaXxLfH390OgMIFVUKSkuLuJAYgIr/vqdstJi7rnrTkaPvArDObCElURitlRwNCubpAMHyc7OwmK1UWGtQKfV4m3yJjoqmuZN4wgK8EfRKChCQYiGZqjULYOUjohYbl4eBw4nk5qWRrnZjKWiAq1Gg7eXicDAQFo0b050ZHj1BNbTXVrGLlXsdpW8vAKSDh3iSHo6JWWlWG02tBoNJqMXQUEhxDePIywkBJPJy2EtukgrqEmZ2cya9ZvIzc2mVYsWtK8MFLiTX0pHCP/v5avIzsmhXZvWdOvc0WkdthMhpcSmqhSXlLD/wGEOHj5EYVERdlVFowh8fHxo3qQpzZs2wd/fF0UIJ+d9nfvHsWDm2o2bOXjoMP5+vgzoexHBgQEn9XyckmJKTs/g4cfHc+8jzziEU+38+sM8QgJ8mDzxqVNKb1elIyR7+ZVX02fAZVwydAQAxYV5vDJ5AtddN5obr7sWg5eRlavW8Nyk57lixDUMumIk6SkH2bNlNa+/PK3WPqtqT7/17iy27znImFvvrtWekXqASeMfoyAvlxZt2zHyurHodM7RDzsKOkUy/6tPiQwP5Zsv5rBq7Tq2bN9Jx54XI9xMaq6WQ1XZs2srs2a8Qrcunfjko/er/WFnCwlQOfv+fKDqXp6tWlc1UaV05GqdA7L8VzhpxSSl5OU336ZF++54+wUDEtVmZfY7r/LFnI/wNnmd8pdUAmvXb+SBhx/n+ZffxmB01DwqLsxj+5YNFBQUgpSYTCZatetEZFQ0QtEgVTsLf/iKXt06cfWIYfh6eyOlJDM7hx9//oUVqzdx8533oNMfq6G0beMa3pvxCsXFRfS75DJ6973E7Qq6drudf5YsIMDXm/ffe5v1G7ZwMD2H+NbtK83e+p13ztF0PnjnTeKbxvL+rLerVyzxPOD/fU7HXIRT3Ud1Rv4pynEmOCnFJIFNW7Yz58tvGX7d2Opflyz8ntjwEB558L7TJqAqJS++9AqFpRVcNvy6em9nMZfz24/fkJmRSrMmcZSWlrJv/yHadejEZcOvQV9jUmt6ajKTn3qAigorw0ddS3xr57IYVUgp2b5lPckHkvj26zkg4MeFf9OyfVUWuMRut5Ofm01xSQkmHz9MXl54e/u4dDBLaynTJz9LdEQYEydOIDIinEB//7NWjteDh3OBk1JMpWXlXHfzrdx+72P4+DkqJBYW5DPpqQf4589FRIY7r+11Khw4fJiLBw3hzQ/m4uPbMId6eWkxFZZyBAKd0YSXyUTNb8TRzDSefWwcQghG33Q74eFRLidbVrF39zaSkxL4+svPCQ8L4cmJU+h36XAMRiPlZaXsTdjJ+vVr2ZNnwdR1CAREYMw9TFzubkaOug4/f+eKkjmZKTx2353E9h6CISSSdoZiZrz6EiYv59rpHjxcCDQ4KieRrNuwkXYduuDrF3CsguGenYy4chgR4c5FyU6VuNhY+vfvz6H9ibTv3KNB23p5++LlZnKvqtr57ovP0Gu1XH39WMIiXCe1VZF8aD85Gal88MFMAoMC2bFrDz//9COGoCgOZOeTmJ5NsTEYfY870TduR4XWgERglf3YvHcdSe+9z5hhQ2jbobZTPiQilvsffYrZ877Hv1kvvvnlA55+Ipu4xvVfRdWDh/8SDVdMEmbM/JBb7rivVhhx9bLFzHz7jdMWoamJRlF46snH+Hju/AYrprpYt3wJO7dv4e4Hn0Trwsldk7TUZJYvWcjiPxbg4+PDPfc+wIYSE4ZrJrAwZiCyZSAqCvrKSEbN9DdVKGhb98HevCMffDCOSWGhhEbEUNNy69y9D75ffIalqAAlMKo65OrBw4VIg8NmK9esJTvraPUQDqCsOJ/c3BxCQoLq2PLU6NCm9Wld2aOstIQlfyxi5A1jHUlu3iaCg4MJC48gLDyC0NBQTCYvtBqF5MMHST+4h98W/kRkRDiJiUn8vnwdJeUWbHbHemF2NKgnCK9adN54Xf8sr732KoX5tbPOjV7e9Oh9EWXb/sJHPQ9LDXvwcBppkMUkkfz886/0HXAJmhqp7om7d+Dr44PRcOZ8Iqd7NdtDSXvo0q0nXbp2Jyg4BK3edULm7m0b2LlpNZ9+/D6NG8UgJdhsduzeQZQaAilbuwjxx2f4duyHb68R2EPiUI21y2wIJJhLITcVy7YlFODNhlVLGTz82uo+Ehg0ZDi//DAWnV7vdg2yM4WsjieeizEaDxcaDXr6VVWyceMmuveqPXN+754EfLxN6HVnpiiaRLJu45bTFqlSBOzetY3BQ4YQFhHtVintT9zFulXLmD9vLs2aNKnOmBYCFHMJaA3IyJao8b0pyMkj/YsXKXznf9hXf4vWUowiVQxlOVhXzKP08wmou5ahbX8J4eNm8uvSFaj2ilrHC49qRHBIMJbystO2fLc7JBJ7ZeKnKmX1tIGqf5+povwePNSHej/9EsgvLKLcXEFArUxoSXpaCtFRYWcs/8ZsqeDFqdMZfOXo6t9Uu5Xs7CzysjMJDArBaPLBy8sLg/HEa75bLBZ6XTQALz/ncrMASJWUQ0kcObSXmTNeIzQkuDqRTyDQ6bRorGXH/EgaHcI3GOkbTHlFOeaNf6NP2IBWSLwaxaONaYX+lqmoJn8kAlW1U+oTwdaNa+naa8Cx4wpB8/gWZB899UUCToRD7wjsUmJRJRabQxkpisBLq2Csx4oeHjycKRr0WV63fgMhoWHUdNpKCXabDUu5BZuqoj3NxcwlklVr1rF71y7ue/w5kJKS4nz+XPgjsXFN6dS9Dxpdw1by1ekNxDZp4bb98MEk9iVsZ9qk8RgNBmrWCZBSYtDpHQuA2q2gqT05Uuq9kKFNMAMmxY4yxJHTVXMgKhUFr6YdSEzYVVsxAdExdVf8PFmqlr+2SxVFCCyqZFtuBYszVHbmqWSYNdgR6BRBnJeZ7iEahsXqiTU5fqvCM9Tz8G9Qb8UkgAULfyc4tHY6gBAC34BACvLzkVLlFAsWOLErIZHxEyby4BMT0RuMJOzYwp6dW+h/8RDComKQp/N4UpK0dzveOsH0yRPQa3XVE01rYvQyYLdaXK6xV5OqJdGdDoNAGxBGVuJGjs/fNZhcr5x7qghE5fBM8HdGBV8cVNlZqGCW+hp9JFIV5BVr2Fos+TbVxoAQO4+0MxCqr1x2y6OXPPwL1PutlkhWrlpFYFAwyNovXMvWbUlJTaWw0HXBuJNBlSp7k5L43933EREdQ9tO3dixZT3r16xi2NXXExoVexqVksMiUrASFmDi5htGYdDpXM/DEqA3GBCKQLHXveSUOM6HVAvVhq3CeXuTse60hZNFSolNSn5KMTNpu2RjgQ6z1OCvsdHGx8qAECuXh1oYGGwh3mTFqEgKbBoWZGi5f3UZh0ttlVUwG7aKiQcPJ0O9LSabzU52dg7eJhOI2k7oHr378fns9/j08y956tH6ldJ1RdVwQyJZtPhvHnjwQRo1jufOcY+TdSSV7Zs3cNtd4xANrNft/oB2igoLWLX0D9KOZKJaLQT5ebNt23YuGdCPi3r3xMvLWGv4IhCEhYYSGhZJZuouaNoN3E3adWNRCSTlR1PxCQjkeGvMVlnlUNaxnHSDTrFSiahIlmVambZLwYIGDSo9Ayt4pI2BJj4adIpAEQ7FY7bDjkI707dZOGwxsKfci5d2WZnZXUF3XK2jmtG8qvvXUPnqu+3JHKs+0caGyl2zv6wx8flE+zmZ61O1HRw7h+OvQ822/wr1NjlUVcVSXorQOn/Rff2DuHrUtbz+2hv8tuTPkxZGSkjPzGTSlJe49977aN6iNeMen0BZSQmvTZ/M0CuvdquU0pMPsGPTmnofy26zsuD7eXzw9mvk5OYTHRVNfMvWGPyC2ZOYxN33jqPvgEFMmfYKh1NSa21rMhpZ8OsPjOgch9jwPTJ1J1S4KD/qQmEJJKIkD0vSRmKinf1JZrNjP3Y3w8CGIqXjv9wKyfuJdixo0KIyKtrKa92MtPbX4K1V0CsCrRDoFQU/ncJFITre6qmnuclh9W3IUfgltcJpueeq/as17CiJxFYZ8ZO4j/DJymhgVSqIrNxWlbJyf8cihNUKtkYUsWYE8dgfF8ep3E5W96V6/zUrR9b823kfx7at+rfEUcfo+La67oUqK6OhldvbpVrnNYJKBSSPHbP6mh8XTf0vUX/TQzrKddgrXFd9vGzEdaxetYJx4x5C++GHXNKvNxqt9oRlKaoeLIvZzJ9LV/Dsc5M4kp7GiFGjueHWe0EofP/VJ/QbeAmhkc5TNKSqcjQ9mXlffMzQYSNdyK1SkJuF0GjxDwyp/nnbxlXsTdjJw08+h8HkvLyPpayERb98z4cfzWb2x5/y9ozXGT7s8uoKhE0axfDRe+9w2Y+/MO2llzi6cz+2uB4I/xDQ6EEIpHLMshSqHcVcjH37nxQs/IDylL10fPh+p+MWFxUCYHIh08kgBNhV+CKpjH1ljjyzXsF2nmpnxKC4LxsigGY+Gu5rYefJbRKr0PDVIZUrYyReGqqdTUJUBkBUSYUqKbcL1Eonu5ciMGkVdG4+fypQZFVRAL0iMWo12FWJxS4ps4MViUkRGDWgr8zrEghsUqXMLiivtC5NCnhpNWgFCFHbZ2e1S4rtEiElvjoFraJgsauY7ZJyCRrAKMBLq7SMSRQAACAASURBVKBV3Fs0jgUrJVbVToUdLFJgk44PjZcCekWg17h/1quUp00VlNsl5ipFIiU+GoFBI+qsySQqrVmbKrFJQandcZ4KEm+NQFvHvTwfqb/zWxHovUzk5bmuk+3j68dz015n1uvTuOWmmxk06GJuvOlG+vXpg6+PNxqNUsvsBSgrN3Pw8GF+Wfg7vy1YQFJSEs1btGLSuEdp0bo9CAVVtbN86Z9Mmvqas0zSxspli2ncKJJWrdvQtmNXpz6KopCfl4PBy6daMZnLSvj+m695atL0aqUkOLaCB4DB5M3VN9xK/0GXsWbVcp6a8AxffTWPadNeoHULR0Tv/+2dd3gVVfrHP2fKbem9AqGH0IsgAjawIeCCbVVsKLu2VVwLursqus1de+8igmIBFRtFQBAEBRTpIC1AIEBIb/feKef3x9ybQhIMrvwW3Hx9Hh+dO5k5c+acd976fTVV5dKLRjP0zNNYufJ7Zn70MfOWzKXKE4/I7IqMjkazAlg7VlO56C3chbsY1r8HB7u2ZZMaILORNlW7dm5H1TViY5pq3nmUkFBqWHxx0NF0FQFXZKn4NCX81E3+qYKgT4JGshagzNKosgTFAQtvhFZjlthSUmbCOzv8zM8XFBoKwZAFG61Bh0iLse00TkoMUbpQS+tyKCC5dqkfoagMijO4s2cE7+cG+WiPZH9AwZLgVqBvrMUtOS5a+1QO+C2mbg+y+KBCseFcJ1KVtIsMcmNnne6xWj0H/ew8Py9uV9Btgwd76cT7dF7YFOCHUpVyM8TKqQl6xQS4tqNOp2gNEDVVBooQNdxP+X6bN7cFWFGoUGgITNuZzwTdpmuM5MI2Gj3jtJrIdN05siQsLzB4P9fkxwqNCssR6JoCibpkUKLNtZ08xOpOrhzSmafwmrSl5Icik/d3WWwqhUJDwUbgEtDaazIwEa5o7yFKP3JXmBMFzRZMmqbRoUMHtmzaSFNMMLHxydx+74N89tH7LFuyiPnzrychIYGU1FR69upJq/RUFFXDX13Fuo2b2LxpM3l78/C4PbTt0JmbJ9xN/0Gnomi1lCRV5WWUlZYQFduw5/3ePbuIjXDjr6ygZ9+BCKVhAmYgGOTb5UsZeOqwmmObN6ylbfuOxCXU5jGVlRThVi0OFZdSXV1NVoccVFUlITmdkWMuo3fffrz+4nNcfOnlvPj8sww6eUBNY8ikhASGn3sW55wzjM1btvLCy68y74sFVFoK5oFNtPLanH/uMC4aM4nCwmKGDTubcTfc0iDvywxWs33bj5w5dNhRdZg5IgTkV0sKAs694oSfrnF1ubKOsIgFJLoVJg92EwhtwnhPXf8S7Kq0eHB1gFWlbqQQuBWJpgiQNnl+QV61YGWRzTXtqrm2gweXUntny7bJDTjvupXH4ulN1UzPVTBQ8Wpg2IISUzD7oML2cj8P9nbx+EaDlSUuXELiUmvPyQvAnu8CPDtQoW1E7Tookm52VUtUKfjmkMGne0x2BVy4NIELm4AtKA1Kdle7WFMU4OF+0DVWRa3zbmxgbYnJg2tMtla6QDr3dgubgFTZXinYWqXw1YEgt+VIRrbScSu17KpCwEe7Ajy83qZauNGw8WgCiaDSkBwKCrZUSr49WMbDA6LI8il1ZhhM22Zuvsm/1pkUWi5HS1NBxabIEhQEdVaXSr4vqmZidxdZkSraUTJcHm84KtqTqdPf49Zbb+OJFyeTmpHV9IlSEvBXsWPbFpYu/oK1369m/768eqdEx8TQvmMnBpwyhD4nnUJ0fCJqI/6j4qJCbhl3Ka++/RHeOuaNFazm7tt+x7SpU7jqmnFMevgZIiIbahlrf1hFn+zWfL9uCz1OGgLAiqULKauoZNi5I2vOq64o4S933MLbb73J6jXr+PDjz7j6d7fiq9PFNRjw8+rzj7F+9Xd8Me9z2mVlNbqtLdumsKiYvfn5JCcmkhAfh6ZrCCG44qpxLFu2jMdfeIPI6Pq1hd8sWcBjf3+AKVPfZPTI836RL58lbebkm9y92tkIZ8RV8tTAqGYtXBkyP0TYsRQyJ1ShIJEUGTY3Lq1iQ5UHzTY5OdHmqo4u0n0KhiWZv89g6g6bUtuNjsUd2RZj2/tqHJv51RZDFzrLL0KxCNgK3SKDXNNZo2O0xt4qm3+sMcj1u1CQxCgmJbZG74gqxud4aRWhcCAgeXljgG9LnVy2C5Kq+Hv/6Jp7TNvp5x8bnXXlwcRCMDJTcmFrlXi3yq4Kk2nbgiwvdmGhkKAGmDrETZuwcJNQGLS58muDXdUairQZkx5gRBs3yR6VclMyLy/Ae7tVym0NFzb3d7e5oJULVSjYUrKz0mLsUoNSS6e1K8CtOQrZsS5UIdhVYfL+jiALDzmCfURqkH/28YQ0Nafj8KL9BnevUQlKhSjF5MJWkvNaa0SqCtsrLN7ZFmRZiQdF2vSMNnjlFA8+7cTm8zqq8NaoEcOZ9MAk3nztRW6/96FGaWcBEAK3N4Iu3XuT070PVdVVlBYVEAiaIMGlK0RGxxIZFY1QwiZF4/B63BjBIIf259GqXXbN8X379pKRns76deuJjIzG52s849urQc9uOXw6dyG9BNgSOmR34+03XubMYeeghJz5mqaRnJ7J+BtuZOzll3PT78bx3sy3GHreKOKTnEYELreH8TffwcvPPMroMZcy68MZtG3TqsE9FUUhKSGepMR4CDmGq6qq+ee/H2P5suXc+ee/Ehldv6OEZZks+mI2ycnJnHPWGb+YOi4QbCgykThf2l6JWrMjHrUaneNfAacrSdhfMm1bkA2Vzoa6MNPkrp4RuIRzjpSS9p0UTkmxuec7g91+nae2SHrHG3SPC2uDtd/EKlvhvDSLO3M8JLkdc6S1V/DkyQpjvzKpsFWKbZ1zkwPc3zOCKN2JDmb5JKm9PFywyMQUGpuqXPhNiU8LR7Bq59GUgts7W1zc1o035NNp5dXpFafyxAY/7+11UWi5mbnL5PYuitN1V8Jf1/jZU+3CJWxuy7b5bVYE7rDmJ6BLtJfucQb3fh+gWriZssPm/EyJEnKMz8r1U2a50YTkvp4qA5PcNfOb6dXoHa/yr3UBPtznYvEByYGgJNXljDsgBS9vlQSlQoIS4O99NE5JdqOE3PRtfDp941Qe3+jnw70u1pdrfL43yIWtPSc0E+pR6XsxUZGMHDWK1Su+YfGCucifjBw5XSu8Xh+pGW1o07Y9bdq1J61VW6Ji4kKm1xHCq7bFwQP5KKrGug3r6/22b28epwwaxLJly0lKSmrUjJNS4lYtPB4Pm9evRZoBAOITEhl02hl8/+0SAtWVGEaQdWtWc+OtdzD60muY8eEn3HPvn4mMcPOvh/5S45AG0F0exo67kcqqKp586plGi4vDfpSwf2Fn7i7+MOFOXnv1NcbdcAudcno2eO6C/Xls3riBIacNwdfMDsHNxcFAaD4QdIk98pwfjrDHQtT84zybJQVz8gVSKMQLP+O7+PAqCqpwGjgpoefvFqMwOlM6KRJSY0mBXS+CF0aUJrmps06yRwkR4QtUodDOK0jzOnOs2wbXdHIRqdW25VKEQkaERqLm5ISVmwJ/nVQLU9R+e7tGm1ze3kOEptSMTxGCSE3hphwP8apzjfn7LIJOwI3tZQYLDurYCLIjDC5uo+NRaluChTuEnJnm4sp2TgA/t1Kw9KBByFHEplJHWxVCkOBW60TXJIoQRKgK52WotPeZpHmgPGjX+Mm+PmiwuUJDwebKDgqDknW00HOrwnmOOJfKhC4eEl0WBiqvbTExJEdsYnm846gN0T/dcyedc7ox+YUnmfXeVDhGYcqK0kKmvvo8kyZOwDKCrPr6q8N+L8br9bJh/XoiIhuPYO3bk0ur9HQ8bjeWafDdqhXOD0LQq+9AMrI6smThbGZ9MJ3EpGSi45JIz2zNuaMu4qzzL2R33n4qKyp57rG/YZu1yZIxcfHcfs8DzJj5AZt+3FFz3JZ2jdPUME1WrV7DLRPu4tzzRrDi2xX86aF/03/w0PqDlDZ2sIoXn3oUv7+aW26+6Rf90kmgbrDIpf7nupiUkt3VNvmhAO3wTEGyu/5SsqWzsxUEo7I8uKWz6dcUy3Dng3pLJ8VlkajLBmMTgppoV5QmyY5Snb5xh52oh/7fkIKmGt4OSlbRhdPzr+4sKEIQpwtOT3M+bvv8CjvLLaSEVcXU0NkMSxP4GmF9MC0LBTgz041HBQOVBfvMmnB+nCvsK4L3dlkUGbUPHh7HSYk60wa7mDLEW+MjsxFM+TGILRSiNDgnTW/y3cW4FNp7nDV6IKBQ4LcatDg7kXDUmYrJiYlMfuV5rrx6HO9Me4O9e/cw5tIrSc1o8x9vKGnbFBcdYu3qb/hk5vuYRpA77/ojC+YvZMmSJRjBAHqIq1v3+MjL28uBgwVktm3YHRdg3Zrv6XvpKHRd5/TTT2POJx/Rq+/JKJqOUARpGa1Jz2jtRAtDX/GYqEj2qxoJSckkJA2jT//BvPLMI6z8ZikDBp8ZurKgU5dudOzcmfsfmMSf7r6ToBGkoqKCgwVFbNu+jQULv2Tb1m1EREYy+PSzGTnmYiKi4hrWdAjBrA9nsGn9Wm646Ub69Oj+H81hI7NaL1xfeRT9Nmu2T0jIiDrRqgV7KgiKCFRpcWq6805sade0/FFCkSRFCBJdknSPzY4A5FU4UsM+LIE01iXw6qqTlkL9aQr/Z4pH4uh7R0pibBodYjRH42tkwwoEHaOd44bQyS03yI7R2VPpXFG3DU5Pd9UfUAia6owqSRf4VCdlYuUBCwuBiuSCNi4WFdpUWArv7lFZWeDn1DSVTlGCztEKaT4FryqI0h2/UjgFo9y02VYOKE707sdSk31VjbcUlYAM1W36FTf51TZpXjX03k48/KwU6i6dO/H5Zx9z5dXXseiLuaxYtpQRoy9hxJhL6zmomwvLCLA7dztzPpvFiq+XEAj6Gf+78dwx4VYS4uLI35fPV4sXU1FeVhNJi4uN481XnqO6smlStfLiAnTNCW1fddUVPPnUU8yf/WG9pgZOkb2o8UV4DuPZdrk99Ox3MksXza8jmBxf1cBTh/LcY//ky4ULsS3LUc1VlfSMTDp07swdF4+lc5ccVJevUaEtkHw+6z3emzaZ7OxsJt55+y/Sorr+PSCtTtu6XRUmJDev7CXs/AYQUmBJyxmflOyqcsbpViDFI0LmW/2xh/NqFCDeq7AjAJV2ndyucFwc8Cg2qgibjU2MB/GTxXqqbdLYstZskxhNQYimsvQlkVrttSss546FITNYE5JUn0Zjoi8sKN2KxB16vPKABSFTcUCSxl1dgvxtrYWh6Gz3u9m+05kXXdikuAIMTROMbK3RIVJFkc7fVRsWdqjKojCocPsaBSElssl8p9r5rwqxRWgnqJ/pZ9d2JCfE8860ybw380Nef30KM9+ZysJ5s+mck0OXnG6065hNfGIKbo+nZjEHjSBVFeUc2J9PwYF9HNi/n53bt1KwP5+S0hI6d+7E7bffxojzz6NTh/Yh/iVJSqi5QXFhQY1gSkpJrWGBNIyma9Yqq51M6ozUVMaPH88Lz7+A2+3ltLNH0PgWaLjwstq157MP321wvHNOd1RN47aJ95PVth2apqNoOpGRUbhcrvCWbnRcRYcO8snMt5n76SzOPe88Hn/kYeJ+Zufin0KXBB1lh42Nwjf5BmPbHd2Lf2ZDBatLdNyKzYRuLrKjtJpZUhSBR/y0OR8IuSNV6mR5N8sNII6qcNhqojyoqc1cc5c6XXwVaeNRHa0lGNLsPGp47E1fx4IaM9KjhkcPqhBc0MpNl2iTxQUW3xVBbpnFoaBKAJXdARdv5Epm7jYZ09rk1mw3HlVgWJKgcD4ibmGRqgePKJjCUKWNVw1F9vh5ZTD/bfxHRWe+CB+X//YSRo4YzhcLF/H2W9PZuPYHli9ZjG1ZeLw+fD4vqqIgcXiQ/P4ARjCAqqp4vV4Sk5MYMmQw48ZdTZ9ePXG7XYd9fQXpqSHBVFxcc+/ExAQ8Xh/+6ioqm9CadJeLnTtzOalvb0By8w3jmfXRLF5+9gn8/irOOGcUrsNYNwN+f8Pr6BqHDh7EDFahuWqjf6lpGURExRAVGUlKev2s9Ka2XCDgZ+vGH3jx6ccoKynh6mvH8cBfJh7DduGCdK9jYlRYsLZMoyQoSXQ3b7FWmPD+bpUSqRGhStyhTREWTUHLpsxWyTzC5QwJ+dXOCdG6DHXvbR6kbOh3OhJU26KxZW0JFdM2G83AC+calQZtQEXBJjZk/3pD/q1KEwISPAoN0vjCxSymDYGQYEqJUFFqThRoQpIdo5ITqxGUkmJDZ3OJwed7AmwuU8gLaJTZOlN3WrTyBbi0rQe3JvDYVVQqPjI9NlOGRBChNU+jFtIKCfQTTyjBzxBMtpQcKirm/ZkfsHDBQvLy9iEUBV+El5wu2YwZMxpd1/nyy0Xs2b2H0tISbCnxul14IyJJSUmmTZt29OndnZwu2aSlpRAbFX1ExsaEhAQURaG0tFYwae4IBg4azJfz53Fg/34sy2yQB9W+UzbLv/mWSy4ajRCC9LQ0Ppn1IZdcNpbJL7/Aqm+/5crrb6R12441f1NR2bDmrbLS8fIqh3EvIRQyM9IJ+Bsv0wlDESAtkw1rv2PGO2+xeeMG2ma14YnHH+Hcs4aia79QMmUjEALSPIJkl0VFtUKZdPNtgcHwTHdIY5FNtoKWoWzjshA1SqIaJCEkyPsnaXy4z8ZEsKPUpEuUk3hY12QNm4E7K2xKDVCw6RKrhdpSH5sEQKuR6GwYBwIqtm3XOIXrahK2hK2ljmBSkWTHO/ZvUiih1BIq6woNBiXpDTQQy3aiaDsrbSoMx0TvnayiAKa0KTcdJ7hHFbiFxKMopLkhLcXNkGQXZUGb2ftMHt6kYKHyyW6DC7MkkS6lxhQrsVQMU6Jrsl7pSW0RNBT6LQK2I8iTPOESnhMTR8FgKQkEDaZMfYtnnn0ey7Jp3ymbrr36IhAUFR3im+UrmfH+TNp3aM/148YxasRwvD4vUoLbpaMoSs2k1gSMD/d0NoKoqCgURSFQXV8ADBl6Nl/On0fxoQKqKiuJiq5vCnXq0pMZb79JeUUlUZGRCKBdVmveeXsKDz70D+bNm8d9d/6B/icPpGe/k2mV1Z5AVUX9inFps3rlMtIzWzUUTIAvsnHzSxFgGgaHDhWwaf1qli9ewJYtm+nQvj0PPPAXLrv0EpIS449VULMGUoJPFYxIlzy33UZKmLzdoke8SaZXPeLcl1kwbYeJhQsVm9+0hmjdURkGpnrwrQtQIXVm7goyLE3WY70MP5ZpS2bvCWKETJKuMZajQTfzueuaWM2BcgSOrKUHTEZmCHSp1tvcQsDOKptlBTI0Rkmc5vx3dnSoeFgozMkLcnKijiIk6mFRPROYtSuIiRsvJudlOgSDBdU2N68yKQ9Kzk+3uTnbgyJqzStVOI7/s9JUnt/kpxgPVZZTBedTJMPSYOZ+KDdgXZnNGZ76XjgpnSTagA13f+dnW7kgSgR5Z2g0PiHrZbCfSGi2YAoEDa77/R+YO/szLrpsLCMvvBz1cKYB2yR360ZeePZJbrttAi+8+BJvvvk6Hdu3Qz3sq1zz1WnGvKmqWpt9XAfde/XH6/NRVlZKZXlZA8Hk9kYQF5/I3x9+lIf/NqnmePu2WUx+7UXWrtvIpL/+nUUL5rNowRcgBJFRUSQkJtMqK4uEuHj8fj/btmxm8Gln0hhs26ppXR5GSeEBNvywkrmzP2fLpg1Ex8QwdNhQnnzyMbpld0JVa6lDjuW6CQt/RcCVHd3My/ezucrNxgoXd68K8NzJHmL1hqF3AL9l88TaCpYVekFAB5/B2A6+mi90rArtoxXWlMKqYo0v9xsMz6j1sgscLaQwaDFnf8hRbgcYkuwOfeHtZgmcMANBc3GkTjWLDgqWFtqcmaTW871UW5LH1/opMJ3xn5vplHRIJH0SNCLxU4GbRQUau/027Xy1Wll4aJtLLT7L10FA2yjoGq1iS9BVqAra7A24+CKvims6CmIPYwSVQMCyHX+ShBhNOgmtUnJ1to/P9xtUS42XNlZzcmIEkbVJ6SjCoUdecCDAqhINC4WL20l8obSQxovHjn80SzBZ0uavf3uYOZ9/ysT7/0GPPv0b31GKRlbnHjz0yHMs/XIeM6e/yRlnnM3vfzeeP064heion1eYWlxSgmVZeCPqR/wUIUlKTmF37k42rPue1IyGWdjDhl/AE/+cxJjfjOSkvn1q7G5NUenTszszp09ld14ea9dtYP7Cxfzww/fs3JnLnl252LZTaSkUhcFnnNXo2A4V7GfpooWs+PYbCvbnUVVVjYJFmzZtueSi3zDolH/RNiuLpMSEY2a+NIVw8wRwfEx3dXNx60qDKltjXbmLcV8HGJkhGJiik+h2nLTllmR1gcFneyUrSzxIIYjGzx1dXbhFuKgVVEVwVZbkL2tNqtF4bKNJadDPwGSNRLdKwLJYW2wxdYfFPr+Ohs0fuyqkhTa1IhQU4ZiSR3yGo9xV4ggakykV/rJaclGmn4FJKi5NsL/K4rM8m2WFOoq0ae0JckZqbYJrikfhzm4q/9xgU2Iq3PKNyfXtTQYma0TpClWmZEWBwevbJbbQcWFyVdvaiGSMrjA4WTJ9j2SX4eWR9X6u6eCiVYSCIhT8lkVuhcWUrQZVodKdS9ppKE64mDY+uCBT8m6eZGOVh7tXBfhtlkrHaAVVwKGg5PM9JtN3CUxUOkUYXNbOc8JqSmE0SzB9seArXn39de69/yG69R3wk+e7PV6GnncBOd268eLTj/P000+zaPFXPPzPv9GnVw80XaPxbIyGsGybFStXYds2Kamp9X6zUUlOTWd37k6mvf4KPXr3Iymlfjfdrj36csqQU7l1wl1MmfwynTu2r3dnXddp37Yt7bKyGD1qBKZlsWdfPpu3bGXSgw+xecMGzjx3BD37nNRgC/mrKiguLOTqsZeQlpqKx+chNiqa1NQU9JCWF3asHpU9ciwgoX+iyqP9bB5eZ7LHr/FjlYvHt0rcW01iXKAiqbQVKgwFS6gIJK09Bnd21RmQWBuJc/JsJMMyXORXB3hum0V+UOPvG2xitxj4PCBNk4MBgYELTUjOSTa4sI2n3oILR+WElChHUIuOwCZSAyUc7TuCxnRaksmqIoXXcnWm7DBD5wss4dTidYw0ebSfhxS3UvOsqoALMnV+KArweb7GrmqNB9ZZxOgWcXqQSkuhIKBgCwWPYnNVFpyb4app7KAAN3Txsro4wNYywUd7dRbsN2gXKVEFBC3YWSmokE6ZyZkpNmenu2tI+5CSW7q4yK+s4utiN4sO6XxdYBKrm2jYlFoa1dKZ1UxXgLu76sS5TmyhBKBOmjRp0pFOqKqq4vrxv6dVVjt+c+lVoaPNe/Co6DgGnTaU+IRE5n7+CTNmzOTHrdvpkp1NYkLzmmN+s3IVd0+8h7j4eC675oYGDu6d2zazZeMGggE/hhGk74D6raWEEOR068k3y77m7WnT6NGzB60bIfwP+5QURWHz1h+ZOPHPbNm4kV79BnDDhHvQGiHI27xxLQX5eTx0/59p3SqD1KQkoqOj0BS15nrhsoXjoW5JAq0jVAYlCwzTYEe5jYGKiUKlpVBuqQRsp0bMg8moNIt7euj0jtdQBHX8g452pQqnxKVdhGRXWZAiQ8VvK5QagnLLyblJ0/z8vqPC7zq7iFDr+3aCEgor/XSMkmTHKJyUqDVYWRJJfrVFissiOxoGJjdGeSzJLQuS4ZV0jZEMSdFxh6TZDyWSZQWO8Lu5i8YFrQR7SgMcDNQ6hxN1g4tb2Uzs5qJ1KOu67i0UITg5USXda7G9yE+5rVElVYpNlUpLQZUWWZ4Ad3TTuKSNji4cjTL8PfIpgl4JCpuLAhQEFarR2B9QyQ+oHAyqGFIhQrEYnWEwIcdNlK5g2RI1ZPJ5VMGQVJ0o3WJ7qUm1JaiQOhW2hikFEYrJ8DSTiT3c9Ig78ZkF4CfYBSSwZt16zh0+irvv+ys53fvUvDHbDPL14gXs3bWdNh06kZbeiozWbXG5PI0qB7u2bWLGO9P4fsVyXG43558/gpEjzmNA/5NISIhDU7WaF2laFvsPHGTuF1/wyL8epaKyij//9V+069S1wXXnfvI+rz73FKqq4Xa7mPTvp2nbIbvBeeUlRbz24pN8/+1yzh85khHDz6NLl87Ex8UiBRQWFLJh0ybmzvmCufPmEQwGOXfkaEZfMhZfZOOh/Ldef57LL7qA884e2ujvxyNkKLXalJLtFRbrim32VNqU+B2fT6JHkO5T6RGv0j5SRVXCfpCmKXAlkuKgzaZSi70VFgHpkMNleAXto1VSvUooaN5QOIezw4/kCzka2l0k9T4Ck3MtHtngEMU92U8wLEWlyoI9lQYlAYlLFaT6VFI8CmoTeT+1HWYkBQGLzSUW+/1OjpNHEWT6BJ1iVBLcSoM5Cj+XRFJlSb47ZLK51OagXxCwJNE6pHmhR4JKToxWTzs8/FqWlBzw22wtMdnrd66coEvaxmhkRSjoyq+DiwmaQXvywquv88ijT/Dsa2+hqCGtQUo+evd1igsO8sTjj5CWkkTunr1Mfvt9uvfqT1R0HDQmtaXJmu9X8NJTj1N46CC2bRMXn8DgwYO45uqxeLxeDh44yOQpU1m3di3FRUVEREZyw613cnIdPqW6+O7bpTz8wD1cf8ONzHj3XSSSZ159G29EQ3+WbQb5aOa7fPTuNPzVVY5m4PUhBFRVVCCEQFVVunTrzvibbyetVVua2i7+ynJmfzSdF595jCMXSRyfqFtGG14B4VKI8BeiuYyIYeFSQ+8qnBq5GjP2vzg/YcEE8HRfGJYaNknrL/ufGqFdE6mtpcENP3NYIw4X5TYGS9p1hFWtMK7zrybTNg4fh+Pwtmuix+G5/v/2YR5L/KSP6YfVP9Alp2utUAKqqyuZP3cOH8/6DKxurQAACjVJREFUgOSkRASCNpnp/OWPt7B81Wq+X7+azjk9UQ7nVxIaPfuewqPPd2PzhnWs/GYJm9evZc7sOXz6ySeomoZlWbg9HtLTMznz7OEMOfMc0ltlNTm++EQnE7xT+7ZMnfoGV19zHTPfmcrY627kcKGiaC7GXDqWkwedyg/frWDn1k1UlJcDEBuXQPtO2XTM7kpGZiaaq+l250bQz+RXnufv9088AUVSOOu6Rv5QLw8vJJyOxnlaU3oS2mxS2lhhDUse28jjz0E4i+loiPzDgieswdQVRI4rqGmhBI6glqEJD/M0OFxXIGXzJ8gJTju5Z+HbyZA/69eEnxRMwUAQny+iwXEpJeVl5XUWpYJLVzhtYH+yWmewbOU6ohPTG6YUAL6IKPoMGESfAYOwzCD78/OpKDkECDRNIyo+kaSkFIRQfnJVh7NcjGCQ0wefwscffcC48eP5cvaHnH7OKESDEgVBemYbUlLTMYzhaJqO1oBXqmkl0rYtVixbzI3XX0XXnM5HHNvxirAgCntB6neBoSkl8SiuXX+r/1e3zE+Q/DcXgrCJWDf/qfkpHyI0J7JODlM4AHQ0gruxMR8P/stfGkcUTLaUxCcksG/DpnrHvd4I+p08iJdeeYV+fZ/j8KXXOiOdyIhI3p7xMe1z+jYsTK0zkarmIqNVG2jV5uhHL23y85wOJunp6QD07NaF96ZP49rrbiAyOob+g4bWNVowDIPvvl3KgoULCaR1xn0ol3NPH0Kvkwah1mRgN/6ipW0x75MZtG2dxllnnnr04z2OUJNHdQzExvGkRYbLQnTbAI5dhn1zcTzNzfGMn4zKVVRW8u77Mzhn+Mha00wIOmfn8OmsD9m8ZQv9+vXB66lLbibwut1kpCez8MuFRERG4/qFyc/CmD97Fnt253LvxLtITIhHAvGxsZxz7tl8MXcOubk7iY1PIG/3ThYvW86MJSv41kgkeNo1mP0uoLp1b5Z9NoN1iz5HsQ0SEhMbHWtRQT5fzJ5Fn+7ZXHfVFeia1rLITgAcCliUm5AZqTA4WSXd2/LOTgQc0fltS8nu3bs5ZcgZTLj3QXr0Pqne71VlRTz56N+Ijojk1ZeeJTW5tn142BYPGgYPP/k8HbJ7EZeY/IuqnUKa/OH6sXjcLhYvnEdcrNNeO+wL2Jt/gHv/9m8Wr88lesD5KL3PQUanNMgOVqSNuXEpJe8/TIxRyqjRYzhl0Gm4PD6CgWq2bNrAj+tX86eJd9ChbVazokQtOD4gQ840eRTO/Bb89/ET6QISI2jwm4t/S2lZJff948kGBnEw4OeNl57CqK7k3bffxOdtqG2UlJUxbfoMfty5m7POuwDd3bRjubkwTYPXnn2EBXNnM/HeP/GnuybUE3r79u9n1IWXU3X2H1B7nImt+36a+sJfDjtXU/nVu+g7V5GZkUnnzp257poryOncEZ/PS4sy3oIWHHsc0ZQTOOHzrl1zeOnll6iuKKVz154oam2tkKppZHfpwvNPP86VY68gNqZ+zo8EvG43vXp1Y1/eHma+9y5JyYlERMWgHKES/EgwjABzZr3Hh+9NZ8ipp/LkY/+qrafDEahbt25nep6GZQRRq0ogPh0accTXPqtEam5IaoOn91mItr3Yt20T21cvJ8rnplPHjsRER/8qHY0taMHxhp/0MQEkJycRHRPLE489RkREBJ26dAvFLS0QClVlxXz8wftcN+5aEuLrd/8Ib2NFUejTqydtWmdy7913sXPbFtq1zSIiKoamnM0NBitsqioreOGJh5n98Qckp6Yz/e03SU5IqBNlctT2PXn7+HTTAZSh4xBmAP+CN3ElpiMj45q4X+0xqaiQkImn33C83U9j2ecfMv3lZ/EHg3TtmoPuaiz7uAUtaMEvhWYJJgl0zelCdFwsb05+ne0/bsQbEYFLd1FRUc6brz6P1+Pmpht/h8ftbvQaTotlaJWRwSUXX0T+vr288forLPtqIfl78wj4/VhmEE3XHcdyTWhWYgSD7MndzvzZn/LGS0+zZfNGLhg9mimTX6F1ZkZN2UfNvYSgorKST5eswsg+FRmTgp7REWP9YszV81B1HSU25Yh1VQAoCjIqEW//ESjt+rBs/hzee/FpTMOgb59eCKW5FX8taEELjgZH1fDStG2+WvI19/7pPnbs2O4ID6GQmJjISy8+y+CBA5rtgZFICg4V8fxLr/LuO++wPz8fy7ZJTEwiKS2dxKQkdE2npKyUQ/n7yNu9C0VVadW6Fffddx9jRg4/Ij/23vx8Rt39KP5LH67nW3KX5lPwzj/Q3BFEnns9dnJb+AmTUglWYW5cQtm8yQQMG70oly3fLiIm5lixTragBf/bOCrBFEZZeTkbN//I9h078Hi8DOzfj7Q0h/72aF3DtpQcOHiQ5ctXMO2dd9i8YRMHCg4SDFHcarpOSkoqvXr2YOyVV3DKgJOc6FvoNk3dr7ComDOvn4gc93S93mIAwvBjb/+O6i+nImNTiR55C1ZkYoNrCGkhN31N6WcvEpQqdlI7cHlwr/2cTcvmEnPM6HBb0IL/bfwswQTUY3n8pWBLSXlFBYWFRVRWVmBaFpERkSQmJBATE12TPdscBA2DMy64jPLrX8V0N+zcIpC4AuVUfPsZwbUL8fQ+C7332di+WIRtouzdRMXSDyjb+gMiPRvprRVCKTu+ZMX8T4iMbJgR34IWtOA/x88WTCcCZs76hHs+XoN79N1HZDZUzCBy+fsUL/2A+NET8G9ZQcUPizHa9AbdzeHO8na58/lqwRw8Xm+Lj6kFLTgG+PWUIzeC34w4nzEZkqKnr0c5uJOm2KNtzYUY/Fvir3uEg9P/QUnuVoz2A0D30FgET3EKp1qEUgtacIzwqxZMKPDgfRO5eVgvKl68CVbPQdRp9V0XtlCRyW2J7XUawu1rnLYFwAyiaWqIJP9Xq2y2oAX/VfyqBZMiFNy6zj133MaUx/+K/vkTlD5/E+rBnU3+jXB5ELbV+I9Swp51REZFH1Wnjxa0oAVHh1+1YCJE4qWqKkNOGcCH06dwRoaLoievwVrwOiJQv1GmRIBlNnIdG0r2I9fMpn+SwoOT7kfT9eOOZ6gFLfi14FctmOpGDRUhaNumFVNff5lJt9/IwbcmUf3qbSjVZUe+iGVib1qMsvoT7hh3CTPfe5uT+vSiKarYFrSgBf85ftWCqSmMu+pyFsybQ3efn0P/vgx78zJUy2h4Ykk+Ys1nnN2tNZ99+hH3/PE2vB7Pr4rCtAUtOB7xq04XaAoO/avEMExeeuU1nn7hJWTfUXiHXoOxZDrFu7ZjVZWRFtjLHRNu44pLx6BpGuIwovsWtKAFxwb/k4KpLkzbYt++/dx5z19YsPw7tJhEROFefj/+Wq69eiytMzNaCnZb0IL/Z/zPC6ZwJ4+Kqiqee+EVVqxYwbXXXM3wc85C+RW1w2lBC04k/M8LJqjbWkdi27KmOLhFU2pBC/47aBFMLWhBC447tISXWtCCFhx3+D+PbXsz7fKyVAAAAABJRU5ErkJggg==;" vertex="1" parent="1">
          <mxGeometry x="1623.01" y="440.38" width="104" height="47.4" as="geometry" />
        </mxCell>
        <mxCell id="m3v_cfv3_CRkb0MolT_l-38" value="" style="endArrow=classic;html=1;rounded=0;entryX=0.559;entryY=1;entryDx=0;entryDy=0;exitX=0.595;exitY=-0.056;exitDx=0;exitDy=0;exitPerimeter=0;dashed=1;entryPerimeter=0;" edge="1" parent="1" source="m3v_cfv3_CRkb0MolT_l-30" target="m3v_cfv3_CRkb0MolT_l-24">
          <mxGeometry width="50" height="50" relative="1" as="geometry">
            <mxPoint x="1627" y="305" as="sourcePoint" />
            <mxPoint x="1440" y="370" as="targetPoint" />
          </mxGeometry>
        </mxCell>
        <mxCell id="m3v_cfv3_CRkb0MolT_l-39" value="Create &amp;amp; run containers" style="edgeLabel;html=1;align=center;verticalAlign=middle;resizable=0;points=[];" vertex="1" connectable="0" parent="m3v_cfv3_CRkb0MolT_l-38">
          <mxGeometry x="0.4641" y="-2" relative="1" as="geometry">
            <mxPoint x="70" y="17" as="offset" />
          </mxGeometry>
        </mxCell>
        <mxCell id="m3v_cfv3_CRkb0MolT_l-42" value="" style="group;" vertex="1" connectable="0" parent="1">
          <mxGeometry x="1380.9499999999998" y="140" width="150" height="80" as="geometry" />
        </mxCell>
        <mxCell id="m3v_cfv3_CRkb0MolT_l-40" value="&lt;h3&gt;&lt;br&gt;&lt;/h3&gt;" style="rounded=0;whiteSpace=wrap;html=1;dashed=1;dashPattern=8 8;" vertex="1" parent="m3v_cfv3_CRkb0MolT_l-42">
          <mxGeometry width="150" height="80" as="geometry" />
        </mxCell>
        <mxCell id="m3v_cfv3_CRkb0MolT_l-41" value="&lt;h3 style=&quot;border-color: var(--border-color); font-size: 14px;&quot;&gt;nginx&lt;/h3&gt;" style="text;strokeColor=none;align=center;fillColor=none;html=1;verticalAlign=middle;whiteSpace=wrap;rounded=0;fontSize=14;" vertex="1" parent="m3v_cfv3_CRkb0MolT_l-42">
          <mxGeometry width="150" height="30" as="geometry" />
        </mxCell>
        <mxCell id="m3v_cfv3_CRkb0MolT_l-43" value="&lt;i&gt;Listens on port 8000 (prod) &lt;br&gt;or 8002 (preprod)&lt;/i&gt;" style="text;strokeColor=none;align=left;fillColor=none;html=1;verticalAlign=middle;whiteSpace=wrap;rounded=0;" vertex="1" parent="m3v_cfv3_CRkb0MolT_l-42">
          <mxGeometry x="-0.95" y="45" width="150.95" height="30" as="geometry" />
        </mxCell>
        <mxCell id="m3v_cfv3_CRkb0MolT_l-46" value="" style="group" vertex="1" connectable="0" parent="1">
          <mxGeometry x="1593.7" y="140" width="135.3" height="31.18" as="geometry" />
        </mxCell>
        <mxCell id="m3v_cfv3_CRkb0MolT_l-44" value="&lt;h3&gt;&lt;br&gt;&lt;/h3&gt;" style="rounded=0;whiteSpace=wrap;html=1;dashed=1;dashPattern=8 8;" vertex="1" parent="m3v_cfv3_CRkb0MolT_l-46">
          <mxGeometry x="2.0509105524979502e-13" width="135.2999999999998" height="31.18" as="geometry" />
        </mxCell>
        <mxCell id="m3v_cfv3_CRkb0MolT_l-45" value="&lt;h3 style=&quot;border-color: var(--border-color); font-size: 14px;&quot;&gt;back&lt;/h3&gt;" style="text;strokeColor=none;align=center;fillColor=none;html=1;verticalAlign=middle;whiteSpace=wrap;rounded=0;fontSize=14;" vertex="1" parent="m3v_cfv3_CRkb0MolT_l-46">
          <mxGeometry y="3.3908249999999955" width="135.2999999999998" height="23.384999999999998" as="geometry" />
        </mxCell>
        <mxCell id="m3v_cfv3_CRkb0MolT_l-47" value="" style="group" vertex="1" connectable="0" parent="1">
          <mxGeometry x="1608.7" y="190" width="105.3" height="30" as="geometry" />
        </mxCell>
        <mxCell id="m3v_cfv3_CRkb0MolT_l-48" value="&lt;h3&gt;&lt;br&gt;&lt;/h3&gt;" style="rounded=0;whiteSpace=wrap;html=1;dashed=1;dashPattern=8 8;" vertex="1" parent="m3v_cfv3_CRkb0MolT_l-47">
          <mxGeometry x="1.5961632016114867e-13" width="105.29999999999984" height="30" as="geometry" />
        </mxCell>
        <mxCell id="m3v_cfv3_CRkb0MolT_l-49" value="&lt;h3 style=&quot;border-color: var(--border-color); font-size: 14px;&quot;&gt;db&lt;/h3&gt;" style="text;strokeColor=none;align=center;fillColor=none;html=1;verticalAlign=middle;whiteSpace=wrap;rounded=0;fontSize=14;" vertex="1" parent="m3v_cfv3_CRkb0MolT_l-47">
          <mxGeometry y="3.2624999999999957" width="105.29999999999984" height="22.5" as="geometry" />
        </mxCell>
        <mxCell id="m3v_cfv3_CRkb0MolT_l-50" value="" style="endArrow=classic;html=1;rounded=0;entryX=0;entryY=0.5;entryDx=0;entryDy=0;exitX=1;exitY=0.5;exitDx=0;exitDy=0;" edge="1" parent="1" source="m3v_cfv3_CRkb0MolT_l-41" target="m3v_cfv3_CRkb0MolT_l-45">
          <mxGeometry width="50" height="50" relative="1" as="geometry">
            <mxPoint x="1250" y="240" as="sourcePoint" />
            <mxPoint x="1300" y="190" as="targetPoint" />
          </mxGeometry>
        </mxCell>
        <mxCell id="m3v_cfv3_CRkb0MolT_l-52" value="Redirects &lt;br&gt;/api/" style="edgeLabel;html=1;align=center;verticalAlign=middle;resizable=0;points=[];fontStyle=2" vertex="1" connectable="0" parent="m3v_cfv3_CRkb0MolT_l-50">
          <mxGeometry x="-0.1711" y="2" relative="1" as="geometry">
            <mxPoint x="2" y="21" as="offset" />
          </mxGeometry>
        </mxCell>
        <mxCell id="m3v_cfv3_CRkb0MolT_l-51" value="" style="endArrow=classic;html=1;rounded=0;entryX=0.5;entryY=0;entryDx=0;entryDy=0;" edge="1" parent="1" source="m3v_cfv3_CRkb0MolT_l-45" target="m3v_cfv3_CRkb0MolT_l-49">
          <mxGeometry width="50" height="50" relative="1" as="geometry">
            <mxPoint x="1541" y="165" as="sourcePoint" />
            <mxPoint x="1595" y="165" as="targetPoint" />
          </mxGeometry>
        </mxCell>
        <mxCell id="m3v_cfv3_CRkb0MolT_l-53" value="" style="edgeStyle=orthogonalEdgeStyle;rounded=0;orthogonalLoop=1;jettySize=auto;html=1;" edge="1" parent="1" source="m3v_cfv3_CRkb0MolT_l-49" target="m3v_cfv3_CRkb0MolT_l-45">
          <mxGeometry relative="1" as="geometry" />
        </mxCell>
      </root>
    </mxGraphModel>
  </diagram>
</mxfile>
